<svg id="Capa_2" data-name="Capa 2" xmlns="http://www.w3.org/2000/svg" xmlns:xlink="http://www.w3.org/1999/xlink" viewBox="0 0 532.8 430.54"><defs><style>.cls-1{fill:url(#Degradado_sin_nombre_3);}.cls-2{fill:#8e68a4;}.cls-3{fill:none;stroke:#171717;stroke-linecap:round;stroke-linejoin:round;stroke-width:5px;}.cls-4{fill:#171717;}</style><linearGradient id="Degradado_sin_nombre_3" x1="120.44" y1="330.43" x2="438.67" y2="330.43" gradientUnits="userSpaceOnUse"><stop offset="0" stop-color="#fff"/><stop offset="1" stop-color="#8e68a4"/></linearGradient></defs><path class="cls-1" d="M414.33,363.11c-134.78,1.88,0-46.79-134.78-46.79-110.44,0-110.44,0-110.44-42.89a24.34,24.34,0,1,0-48.67,0V411.78H438.67V387.44A24.33,24.33,0,0,0,414.33,363.11Z"/><rect class="cls-2" x="457.67" y="46.65" width="21.97" height="21.97"/><rect class="cls-2" x="457.67" y="13.69" width="21.97" height="21.97"/><rect class="cls-2" x="424.71" y="13.69" width="21.97" height="21.97"/><circle class="cls-2" cx="143.08" cy="396.74" r="3.28"/><path class="cls-2" d="M145.74,396.74a2.67,2.67,0,0,1-1.73,2.49,2.67,2.67,0,1,1,1.73-2.49.63.63,0,0,0,1.25,0,4,4,0,0,0-2.56-3.67,3.91,3.91,0,0,0-4.71,5.66,3.91,3.91,0,0,0,7.27-2A.63.63,0,0,0,145.74,396.74Z"/><circle class="cls-2" cx="132.47" cy="396.74" r="3.28"/><path class="cls-2" d="M135.13,396.74a2.67,2.67,0,0,1-1.73,2.49,2.67,2.67,0,1,1,1.73-2.49.63.63,0,0,0,1.25,0,4,4,0,0,0-2.56-3.67,3.91,3.91,0,0,0-4.71,5.66,3.91,3.91,0,0,0,7.27-2A.63.63,0,0,0,135.13,396.74Z"/><circle class="cls-2" cx="153.95" cy="396.74" r="3.28"/><path class="cls-2" d="M156.6,396.74a2.67,2.67,0,0,1-1.73,2.49,2.67,2.67,0,1,1,1.73-2.49.63.63,0,0,0,1.25,0,4,4,0,0,0-2.56-3.67,3.91,3.91,0,0,0-4.34,1.16,3.91,3.91,0,1,0,6.9,2.51A.63.63,0,0,0,156.6,396.74Z"/><circle class="cls-2" cx="252.51" cy="329.28" r="3.28"/><path class="cls-2" d="M255.17,329.28a2.66,2.66,0,0,1-4.74,1.66,2.66,2.66,0,1,1,4.74-1.66.63.63,0,0,0,1.25,0,4,4,0,0,0-2.57-3.67,3.91,3.91,0,1,0,2.57,3.67A.63.63,0,0,0,255.17,329.28Z"/><circle class="cls-2" cx="241.9" cy="329.28" r="3.28"/><path class="cls-2" d="M244.56,329.28a2.66,2.66,0,0,1-4.74,1.66,2.66,2.66,0,1,1,4.74-1.66.63.63,0,0,0,1.25,0,4,4,0,0,0-2.57-3.67,3.91,3.91,0,1,0,2.57,3.67A.63.63,0,0,0,244.56,329.28Z"/><circle class="cls-2" cx="361.94" cy="329.28" r="3.28"/><path class="cls-2" d="M364.6,329.28a2.66,2.66,0,0,1-4.74,1.66,2.66,2.66,0,0,1,2.54-4.28,2.7,2.7,0,0,1,2.2,2.62.63.63,0,0,0,1.25,0,4,4,0,0,0-2.57-3.67,3.91,3.91,0,1,0,2.57,3.67A.63.63,0,0,0,364.6,329.28Z"/><path class="cls-3" d="M98.69,416.85s-.53-51.39-13.52-61.51-27.46,18.44-38.45,24.12"/><path class="cls-3" d="M46.72,379.46c54,.64,45.62-15.32,38.45-24.12C61.31,326,46.72,379.46,46.72,379.46Z"/><rect class="cls-3" x="69.8" y="256.2" width="17.43" height="66.95" rx="8.72" transform="matrix(0.93, -0.36, 0.36, 0.93, -98.39, 47.23)"/><line class="cls-3" x1="61.52" y1="269.67" x2="72.87" y2="274.93"/><line class="cls-3" x1="67.03" y1="284.06" x2="78.38" y2="289.32"/><line class="cls-3" x1="72.54" y1="298.45" x2="83.89" y2="303.71"/><line class="cls-3" x1="61.52" y1="269.67" x2="72.87" y2="274.93"/><line class="cls-3" x1="67.03" y1="284.06" x2="78.38" y2="289.32"/><line class="cls-3" x1="72.54" y1="298.45" x2="83.89" y2="303.71"/><line class="cls-3" x1="80.46" y1="270.39" x2="75.53" y2="281.88"/><line class="cls-3" x1="85.97" y1="284.78" x2="81.04" y2="296.28"/><line class="cls-3" x1="91.48" y1="299.18" x2="86.55" y2="310.67"/><line class="cls-3" x1="72.87" y1="274.93" x2="89.76" y2="319.05"/><line class="cls-3" x1="66.54" y1="258.41" x2="61.17" y2="248.49"/><line class="cls-3" x1="90.48" y1="320.94" x2="111.54" y2="386.91"/><rect class="cls-3" x="120.44" y="269.54" width="99.37" height="142.24"/><line class="cls-3" x1="120.44" y1="297.83" x2="205.48" y2="297.83"/><line class="cls-3" x1="120.44" y1="318.8" x2="205.48" y2="318.8"/><line class="cls-3" x1="120.44" y1="339.77" x2="205.48" y2="339.77"/><line class="cls-3" x1="120.44" y1="360.74" x2="205.48" y2="360.74"/><line class="cls-3" x1="120.44" y1="381.7" x2="205.48" y2="381.7"/><line class="cls-3" x1="133.23" y1="297.83" x2="133.23" y2="279.64"/><rect class="cls-3" x="229.87" y="269.54" width="99.37" height="142.24"/><line class="cls-3" x1="229.87" y1="297.83" x2="314.91" y2="297.83"/><line class="cls-3" x1="229.87" y1="318.8" x2="314.91" y2="318.8"/><line class="cls-3" x1="229.87" y1="339.77" x2="314.91" y2="339.77"/><line class="cls-3" x1="229.87" y1="360.74" x2="314.91" y2="360.74"/><line class="cls-3" x1="229.87" y1="381.7" x2="314.91" y2="381.7"/><line class="cls-3" x1="242.66" y1="297.83" x2="242.66" y2="279.64"/><line class="cls-3" x1="255.79" y1="297.83" x2="255.79" y2="279.64"/><line class="cls-3" x1="268.93" y1="297.83" x2="268.93" y2="279.64"/><line class="cls-3" x1="400.35" y1="297.83" x2="400.35" y2="279.64"/><line class="cls-3" x1="413.49" y1="297.83" x2="413.49" y2="279.64"/><line class="cls-3" x1="426.63" y1="297.83" x2="426.63" y2="279.64"/><line class="cls-3" x1="242.66" y1="359.35" x2="242.66" y2="341.16"/><line class="cls-3" x1="255.79" y1="359.35" x2="255.79" y2="341.16"/><line class="cls-3" x1="268.93" y1="359.35" x2="268.93" y2="341.16"/><rect class="cls-4" x="284.85" y="280.27" width="8.46" height="8.46"/><rect class="cls-4" x="297.73" y="280.27" width="8.46" height="8.46"/><rect class="cls-4" x="306.45" y="395.79" width="8.46" height="8.46"/><rect class="cls-4" x="135.08" y="304.08" width="8.46" height="8.46"/><rect class="cls-4" x="147.86" y="304.08" width="8.46" height="8.46"/><rect class="cls-4" x="160.64" y="304.08" width="8.46" height="8.46"/><rect class="cls-3" x="339.29" y="269.54" width="99.37" height="142.24"/><line class="cls-3" x1="339.29" y1="297.83" x2="438.67" y2="297.83"/><line class="cls-3" x1="339.29" y1="318.8" x2="438.67" y2="318.8"/><line class="cls-3" x1="339.29" y1="339.77" x2="438.67" y2="339.77"/><line class="cls-3" x1="339.29" y1="360.74" x2="438.67" y2="360.74"/><line class="cls-3" x1="339.29" y1="381.7" x2="438.67" y2="381.7"/><path class="cls-3" d="M459.41,410.68s3.65-15.09,3.65-42.91"/><path class="cls-3" d="M481.26,357.26c3.94-2.66,5.84-6.74,4.27-9.47s-6.06-3.11-10.34-1c-.33-4.74-2.92-8.44-6.06-8.44s-5.73,3.7-6.07,8.44c-4.27-2.08-8.76-1.69-10.33,1s.33,6.81,4.27,9.47c-3.94,2.66-5.85,6.75-4.27,9.47s6.06,3.12,10.33,1c.34,4.74,2.92,8.43,6.07,8.43s5.73-3.69,6.06-8.43c4.28,2.08,8.77,1.69,10.34-1S485.2,359.92,481.26,357.26Z"/><path class="cls-3" d="M264.64,95.81c3.94-2.66,5.84-6.75,4.27-9.47s-6.06-3.12-10.34-1c-.33-4.74-2.92-8.43-6.06-8.43s-5.73,3.69-6.06,8.43c-4.28-2.08-8.77-1.69-10.34,1s.33,6.81,4.27,9.47c-3.94,2.65-5.85,6.74-4.27,9.47s6.06,3.11,10.34,1c.33,4.74,2.91,8.44,6.06,8.44s5.73-3.7,6.06-8.44c4.28,2.08,8.77,1.69,10.34-1S268.58,98.46,264.64,95.81Z"/><line class="cls-3" x1="381.53" y1="326" x2="381.53" y2="332.57"/><line class="cls-3" x1="349.32" y1="326" x2="349.32" y2="332.57"/><line class="cls-3" x1="388.98" y1="326" x2="388.98" y2="332.57"/><line class="cls-3" x1="396.43" y1="326" x2="396.43" y2="332.57"/><line class="cls-3" x1="403.87" y1="326" x2="403.87" y2="332.57"/><line class="cls-3" x1="411.32" y1="326" x2="411.32" y2="332.57"/><line class="cls-3" x1="418.77" y1="326" x2="418.77" y2="332.57"/><line class="cls-3" x1="426.21" y1="326" x2="426.21" y2="332.57"/><line class="cls-3" x1="129.85" y1="367.94" x2="129.85" y2="374.5"/><line class="cls-3" x1="137.3" y1="367.94" x2="137.3" y2="374.5"/><line class="cls-3" x1="144.75" y1="367.94" x2="144.75" y2="374.5"/><line class="cls-3" x1="152.19" y1="367.94" x2="152.19" y2="374.5"/><line class="cls-3" x1="159.64" y1="367.94" x2="159.64" y2="374.5"/><line class="cls-3" x1="167.09" y1="367.94" x2="167.09" y2="374.5"/><line class="cls-3" x1="174.53" y1="367.94" x2="174.53" y2="374.5"/><line class="cls-3" x1="181.86" y1="367.94" x2="181.86" y2="374.5"/><line class="cls-3" x1="189.31" y1="367.94" x2="189.31" y2="374.5"/><line class="cls-3" x1="196.75" y1="367.94" x2="196.75" y2="374.5"/><line class="cls-3" x1="438.67" y1="400.02" x2="369.41" y2="400.02"/><polyline class="cls-3" points="170.12 251.47 170.12 236.4 388.98 236.4 388.98 251.47"/><path class="cls-3" d="M279.55,251.47v-36S309.19,196.8,314.91,187c5.28-9,6.82-41.31,6.82-41.31"/><path class="cls-3" d="M279.55,215.43s-26.88,4.22-34.37,0c-5.1-2.89-12.12-20.09-12.12-20.09"/><circle class="cls-3" cx="233.06" cy="188.68" r="5.94"/><circle class="cls-3" cx="252.51" cy="95.81" r="5.94"/><circle class="cls-3" cx="301.96" cy="133.58" r="5.94"/><circle class="cls-3" cx="321.73" cy="139.52" r="5.94"/><circle class="cls-3" cx="399.72" cy="145.7" r="5.94"/><path class="cls-3" d="M300.64,141.53c-2.91,25,18.41,30.57,18.41,30.57"/><path class="cls-3" d="M302,199.71s98.56,17.59,98.39-45.29"/><path class="cls-3" d="M279.55,215.43s-31.28-35.32-27.87-100.78"/><line class="cls-3" x1="399.72" y1="133.58" x2="399.72" y2="131.58"/><line class="cls-3" x1="389.23" y1="139.64" x2="387.5" y2="138.64"/><line class="cls-3" x1="389.23" y1="151.76" x2="387.5" y2="152.76"/><line class="cls-3" x1="410.22" y1="151.76" x2="411.95" y2="152.76"/><line class="cls-3" x1="410.22" y1="139.64" x2="411.95" y2="138.64"/></svg>