<?xml version="1.0" encoding="utf-8"?>
<!-- Generator: Adobe Illustrator 24.3.0, SVG Export Plug-In . SVG Version: 6.00 Build 0)  -->
<svg version="1.1" id="Capa_1" xmlns="http://www.w3.org/2000/svg" xmlns:xlink="http://www.w3.org/1999/xlink" x="0px" y="0px"
	 viewBox="0 0 77 77" style="enable-background:new 0 0 77 77;" xml:space="preserve">
<style type="text/css">
	.st0{fill-rule:evenodd;clip-rule:evenodd;fill:#FAFAFA;}
</style>
<g>
	<path class="st0" d="M36.4,28.5c-4.2,0.9-7.4,4.3-8.1,8.6l19.1-4.4C45,29.3,40.7,27.5,36.4,28.5z"/>
	<path class="st0" d="M38.5,0C17.2,0,0,17.2,0,38.5S17.2,77,38.5,77S77,59.8,77,38.5S59.8,0,38.5,0z M41.1,49.1
		c2.6-0.6,4.9-2.2,6.4-4.4l9,2.1c-2.4,5.3-7.2,9.6-13.4,11c-10.5,2.4-21-4.1-23.4-14.6c-2.4-10.5,4.1-21,14.6-23.4
		c10.5-2.4,21,4.1,23.4,14.6c0.3,1.3,0.5,2.6,0.5,3.9l-6,1.4l-3.1,0.7L30,44.8C32.4,48.3,36.8,50.1,41.1,49.1z"/>
</g>
</svg>
