<?xml version="1.0" encoding="utf-8"?>
<!-- Generator: Adobe Illustrator 24.3.0, SVG Export Plug-In . SVG Version: 6.00 Build 0)  -->
<svg version="1.1" id="Layer_1" xmlns="http://www.w3.org/2000/svg" xmlns:xlink="http://www.w3.org/1999/xlink" x="0px" y="0px"
	 viewBox="0 0 1102.6 204.7" style="enable-background:new 0 0 1102.6 204.7;" xml:space="preserve">
<style type="text/css">
	.st0{fill:#05CE78;}
	.st1{fill:#151515;}
</style>
<path class="st0" d="M983.3,204.7h-881C45.8,204.7,0,158.9,0,102.3v0C0,45.8,45.8,0,102.3,0h881c56.5,0,102.3,45.8,102.3,102.3v0
	C1085.7,158.9,1039.9,204.7,983.3,204.7z"/>
<g>
	<path class="st1" d="M936,78c0-16.4,8.6-24.9,24.4-24.9h29.1c17.7,0,31.5,13.4,31.5,30.6c0,9.3-3.9,17-10.3,21.9l8.7,13.9
		c2.4,3.7,3.4,7.7,3.4,11.9c0,12.4-9.8,22-22,22c-7.6,0-15-3.8-19.2-10.9l-2.4-4.2c-2.9,8.8-10.8,15-20.9,15
		c-12.3,0-22.4-10.4-22.4-22.9V78L936,78z M929.3,134.1c0,10.8-8.6,19.4-19.1,19.2h-34.8c-15.9,0-24.6-8.4-24.6-24.9V78
		c0-16.3,8.6-24.9,24.6-24.9h34.8c10.5,0,19.1,8.6,19.1,19.4c0,9.8-6,16.8-14.6,18.5c4,2.5,6.1,6.7,6.1,12.3c0,5.6-2.3,9.8-6.1,12.3
		C923.2,117.2,929.3,124.5,929.3,134.1L929.3,134.1z M823.8,130.7c0,12.4-10.4,22.5-24.2,22.5c-13,0-23.5-10.2-23.5-22.5V96.2
		c-11.2-0.7-20.4-9.9-20.4-21.5c0-12.2,9.7-21.5,21.5-21.5h45.4c11.9,0,21.5,9.5,21.5,21.5c0,11.7-9.2,21-20.4,21.5V130.7
		L823.8,130.7z M667.2,78c0-16.4,8.7-24.9,24.4-24.9h29.1c17.7,0,31.5,13.4,31.5,30.6c0,9.3-3.9,17-10.3,21.9l8.7,13.9
		c2.4,3.7,3.4,7.7,3.4,11.9c0,12.4-9.8,22-22,22c-7.6,0-15-3.8-19.2-10.9l-2.4-4.2c-2.9,8.8-10.8,15-20.9,15
		c-12.3,0-22.4-10.4-22.4-22.9V78L667.2,78z M612,134.2c-5.7,11.8-13.7,17.4-23.5,17.4c-17.6,0-30.3-16.1-22.4-34.2l20.6-47.8
		c5.2-11.8,12.7-18.2,25.5-18.2c12.9,0,20.4,6.5,25.5,18.2l20.6,47.8c7.7,18.1-4.9,34.2-22.6,34.2C625.7,151.6,617.7,146,612,134.2
		L612,134.2z M553.3,130.7c0,12.4-10.5,22.5-24.1,22.5c-13,0-23.6-10.2-23.6-22.5V96.2c-11.2-0.7-20.4-9.9-20.4-21.5
		c0-12.2,9.7-21.5,21.6-21.5h45.3c11.9,0,21.6,9.5,21.6,21.5c0,11.7-9.2,21-20.4,21.5V130.7L553.3,130.7z M485.2,120.8
		c0,19.9-15.4,32.5-41.3,32.5c-26.4,0-38.8-9-38.8-23.8c0-10.2,7.9-16.8,19.1-16.8h0.2l-6-5.5c-7.5-6.9-12.7-13.7-12.7-23.8
		c0-19.6,14.4-32,39-32c25.1,0,37,8.9,37,23.8c0,8.9-6,14.9-15.1,16.2l6.2,5.5C480.2,103.7,485.2,110.7,485.2,120.8L485.2,120.8z
		 M400.1,129.2c0,12.3-10.3,22.6-22.9,22.4c-7.1,0-14.3-3.3-18.7-9.6l-4.7-6.6c-2.2,9.6-10.6,16.3-21.4,16.3
		c-12.5,0-22.4-10-22.4-22.3V73.7c0-12.3,9.8-22.3,22.4-22.3c11,0,19.5,7.1,21.6,16.9l5.2-7.3c4.4-6,11.5-9.5,18.5-9.5
		c12.1,0,22.4,9.5,22.4,21.8c0,4.7-1.3,9.3-4.2,13.1l-10.8,14.8l10.8,14.8C398.7,120,400.1,124.5,400.1,129.2L400.1,129.2z
		 M301.6,124.1c0,16.1-13.4,27.5-35,27.5c-28.9,0-50.1-21.4-50.1-50.1s21.2-50.1,50.1-50.1c21.6,0,35,11.4,35,27.5
		c0,10.8-5.3,18.1-15.9,22.6C296.3,106,301.6,113.4,301.6,124.1L301.6,124.1z M184,51.4c13.5,0,24.3,11,24.1,24v52.3
		c0,13-10.6,24-24.3,24c-13.3,0-24.1-10.8-24.1-24V75.4C159.7,62.4,170.5,51.4,184,51.4L184,51.4z M153,129.2
		c0,12.3-10.3,22.6-23,22.4c-7.1,0-14.3-3.3-18.7-9.6l-4.7-6.6c-2.2,9.6-10.6,16.3-21.4,16.3c-12.4,0-22.4-10-22.4-22.3V73.7
		c0-12.3,9.8-22.3,22.4-22.3c10.9,0,19.5,7.1,21.5,16.9l5.4-7.3c4.4-6,11.4-9.5,18.5-9.5c12.1,0,22.4,9.5,22.4,21.8
		c0,4.7-1.3,9.3-4.2,13.1L138,101.3l10.8,14.8C151.7,120,153,124.5,153,129.2L153,129.2z"/>
</g>
</svg>
