<?xml version="1.0" encoding="utf-8"?>
<!-- Generator: Adobe Illustrator 24.3.0, SVG Export Plug-In . SVG Version: 6.00 Build 0)  -->
<svg version="1.1" id="Capa_2_1_" xmlns="http://www.w3.org/2000/svg" xmlns:xlink="http://www.w3.org/1999/xlink" x="0px" y="0px"
	 viewBox="0 0 88.9 94.7" style="enable-background:new 0 0 88.9 94.7;" xml:space="preserve">
<style type="text/css">
	.st0{fill:url(#SVGID_1_);}
	.st1{fill:#171717;}
	.st2{fill:#FFFFFF;}
</style>
<linearGradient id="SVGID_1_" gradientUnits="userSpaceOnUse" x1="49.4605" y1="-327.6402" x2="49.4605" y2="-277.0602" gradientTransform="matrix(1 0 0 -1 0 -233.1802)">
	<stop  offset="0" style="stop-color:#FFFFFF"/>
	<stop  offset="1" style="stop-color:#8E68A4"/>
</linearGradient>
<path class="st0" d="M75.6,54.7l-0.1,38.8c0,0.6-0.5,1.1-1.1,1.1H30.6c0,0-2.4-2-5.7-4.9s-0.8-7.8,4.4-7.8h13.3
	c8.5,0,15.3-5.4,15.3-12.1V47.5c0-1.3,1.5-2.3,3.1-2L67,47C73.4,48.2,75.6,52.8,75.6,54.7z"/>
<path class="st1" d="M30.2,11.9c1,0,1.7-0.8,1.7-1.7c0,0,0,0,0,0V4.5c0-1-0.8-1.8-1.8-1.8s-1.8,0.8-1.8,1.8v5.7
	C28.5,11.1,29.2,11.9,30.2,11.9z"/>
<path class="st1" d="M43.1,14.9c0.5,0,0.9-0.2,1.2-0.5l4.2-4.2c0.7-0.7,0.7-1.8,0-2.5c-0.7-0.7-1.8-0.7-2.5,0l-4.3,4.2
	c-0.7,0.7-0.7,1.8,0,2.5C42.2,14.7,42.6,14.9,43.1,14.9z"/>
<path class="st1" d="M48.3,24.3c0,1,0.8,1.7,1.7,1.8h5.7c1,0,1.8-0.8,1.8-1.8s-0.8-1.8-1.8-1.8l0,0H50
	C49.1,22.6,48.3,23.4,48.3,24.3z"/>
<path class="st1" d="M17.7,18.4c0.3,0.3,0.8,0.5,1.2,0.5c0.5,0,0.9-0.2,1.2-0.5c0.7-0.7,0.7-1.8,0-2.5l-4.3-4.3
	c-0.7-0.6-1.8-0.6-2.5,0.2c-0.6,0.7-0.6,1.7,0,2.3L17.7,18.4z"/>
<path class="st1" d="M77.3,55.6c0-2.7-2-8.4-9.3-10.2c0,0,0,0-0.1,0l-3.3-0.7c0,0,0,0-0.1,0l-21.3-4.3V27.2c0-2.4-0.8-4.7-2.3-6.6
	c-1.9-2.4-4.9-3.8-8-3.6c-3.1-0.1-6.1,1.2-8,3.7c-1.5,1.9-2.3,4.2-2.3,6.7v39.4c-3.3-1.1-7.5-2.7-10.8-4c-0.5-0.2-1.1-0.3-1.7-0.3
	c-2.4,0-4.7,0.8-6.6,2.3c-2.4,1.9-3.7,4.9-3.6,8c0,2.5,1.6,7.4,15.6,21.1c0.3,0.3,0.8,0.5,1.2,0.5c0.5,0,1-0.2,1.3-0.5
	c0.7-0.7,0.7-1.8,0-2.4c0,0,0,0,0,0C5,78.3,3.6,73.9,3.6,72.6c0-5.3,4.4-6.8,6.7-6.8c0.1,0,0.3,0,0.4,0.1C16,68,21,69.8,24,70.7
	c0.5,0.2,1.1,0.1,1.5-0.3c0.4-0.3,0.7-0.8,0.7-1.4V27.3c0-2.4,1.4-6.8,6.8-6.8s6.8,4.4,6.8,6.8v35.6c-0.1,1,0.6,1.8,1.6,1.9
	c1,0.1,1.8-0.6,1.9-1.6c0-0.1,0-0.2,0-0.3V44l7.8,1.6v15c0,1,0.8,1.8,1.8,1.8s1.8-0.8,1.8-1.8V46.3l7.8,1.6v10.6
	c0,1,0.8,1.8,1.7,1.8c1,0,1.8-0.8,1.8-1.8l0,0v-9.8l1.2,0.2c5.2,1.3,6.6,5,6.6,6.8v35.6H52.9c-1,0-1.8,0.8-1.8,1.8s0.8,1.8,1.8,1.8
	h22.6c1,0,1.8-0.8,1.8-1.8l0,0V55.6z"/>
<path class="st1" d="M10.3,31.8H16c1,0,1.8-0.8,1.8-1.8S17,28.3,16,28.3h-5.7c-1,0-1.8,0.8-1.8,1.8S9.3,31.8,10.3,31.8z"/>
<path class="st2" d="M74,9.9h-9.9V0H74V9.9z M88.9,0H79v9.9h9.9V0z M88.9,15.2H79v9.9h9.9V15.2z"/>
</svg>
