<svg width="423" height="224" viewBox="0 0 423 224" fill="none" xmlns="http://www.w3.org/2000/svg">
<path d="M36.425 126.465C34.9282 126.879 32.6083 127.293 29.4277 127.669C26.247 128.083 23.1039 128.271 19.9981 128.271C16.8923 128.271 14.1607 128.045 11.8033 127.556C9.44594 127.067 7.46274 126.239 5.8163 124.997C4.20729 123.793 2.97246 122.062 2.18666 119.917C1.36345 117.735 0.989258 114.913 0.989258 111.376V15.498C0.989258 12.6382 1.77506 10.4557 3.30923 8.87531C4.84341 7.33254 6.97629 6.05317 9.67045 5.11245C14.3104 3.49442 19.5491 2.32793 25.3864 1.57536C31.2612 0.822789 37.1734 0.446503 43.0856 0.446503C61.7202 0.446503 75.9394 4.43514 85.818 12.45C95.6592 20.4649 100.599 31.302 100.599 45.0364C100.599 51.6967 99.5508 57.6796 97.4553 63.0605C95.3599 68.4414 92.2541 73.0321 88.138 76.9079C84.0219 80.7836 78.8207 83.7563 72.5343 85.8635C66.2479 87.9707 58.9886 89.0243 50.7565 89.0243H36.425V126.465ZM46.9771 61.1038C52.6648 61.1038 57.0054 59.7868 60.0364 57.1152C63.0673 54.4812 64.6015 50.4173 64.6015 44.9988C64.6015 39.8437 63.0299 35.855 59.8493 33.0705C56.6687 30.286 52.0661 28.8937 45.9668 28.8937C43.7965 28.8937 42.0378 28.9314 40.6159 29.0066C39.194 29.0819 37.7347 29.2324 36.2753 29.5334V61.1038H46.9771Z" fill="black"/>
<path d="M214.387 81.6873C214.387 89.0249 213.152 95.7228 210.645 101.743C208.138 107.802 204.546 112.957 199.794 117.209C195.079 121.498 189.316 124.772 182.581 127.067C175.845 129.363 168.212 130.529 159.718 130.529C151.224 130.529 143.59 129.363 136.855 127.067C130.12 124.772 124.357 121.461 119.642 117.209C114.927 112.919 111.298 107.764 108.791 101.743C106.284 95.7228 105.049 89.0249 105.049 81.6873V3.90895C106.546 3.64555 108.903 3.26926 112.121 2.78009C115.376 2.29092 118.482 2.06514 121.438 2.06514C124.544 2.06514 127.276 2.29092 129.633 2.78009C131.99 3.26926 133.974 4.09709 135.62 5.33883C137.229 6.54295 138.464 8.27387 139.25 10.4187C140.073 12.6012 140.447 15.4233 140.447 18.9604V81.0476C140.447 87.5574 142.243 92.6373 145.798 96.3249C149.39 99.9748 153.993 101.819 159.68 101.819C165.48 101.819 170.158 99.9748 173.638 96.3249C177.155 92.6749 178.914 87.5574 178.914 81.0476V3.90895C180.411 3.64555 182.768 3.26926 185.986 2.78009C189.241 2.29092 192.347 2.06514 195.303 2.06514C198.409 2.06514 201.141 2.29092 203.498 2.78009C205.855 3.26926 207.839 4.09709 209.485 5.33883C211.094 6.54295 212.329 8.27387 213.115 10.4187C213.938 12.6012 214.312 15.4233 214.312 18.9604V81.6873H214.387Z" fill="black"/>
<path d="M218.652 18.9599C219.326 17.0785 220.261 15.1595 221.496 13.278C222.694 11.3966 224.228 9.66568 226.061 8.08528C227.895 6.5425 229.99 5.2255 232.423 4.20953C234.855 3.19356 237.549 2.70438 240.505 2.70438C244.434 2.70438 247.877 3.68273 250.833 5.63942C253.789 7.5961 256.82 10.9827 259.925 15.7239L275.716 39.9567L298.991 5.33839C300.076 4.81159 301.573 4.28479 303.556 3.79561C305.539 3.34407 307.447 3.08067 309.356 3.08067C315.567 3.08067 320.432 4.58581 323.949 7.55848C327.467 10.5311 329.225 14.2187 329.225 18.546C329.225 22.3465 328.252 25.7331 326.307 28.7434C324.361 31.7161 321.667 35.3284 318.299 39.5428L297.457 65.2055L330.46 112.655C329.375 117.66 327.055 121.648 323.463 124.546C319.871 127.481 315.044 128.911 308.982 128.911C305.053 128.911 301.685 127.932 298.841 125.976C295.997 124.019 293.116 120.632 290.123 115.891L273.733 89.8146L248.213 128.497C247.128 128.647 246.118 128.723 245.182 128.798C244.247 128.873 243.274 128.911 242.339 128.911C234.63 128.911 228.98 127.33 225.35 124.245C221.721 121.122 219.887 117.246 219.887 112.655C219.887 108.704 220.71 105.28 222.432 102.383C224.116 99.4476 226.51 96.0234 229.616 92.11L250.87 64.6411L218.652 18.9599Z" fill="black"/>
<path d="M354.71 127.895C348.91 127.895 344.308 126.202 340.94 122.815C337.573 119.429 335.889 114.8 335.889 108.968V3.7206C337.385 3.4572 339.743 3.08091 342.961 2.59174C346.216 2.10257 349.285 1.8768 352.278 1.8768C355.384 1.8768 358.116 2.10257 360.473 2.59174C362.83 3.08091 364.813 3.90874 366.46 5.15049C368.069 6.3546 369.304 8.08552 370.09 10.2304C370.913 12.4128 371.287 15.235 371.287 18.772V99.1844H417.649C418.585 100.69 419.483 102.684 420.268 105.205C421.092 107.726 421.466 110.322 421.466 113.032C421.466 118.45 420.306 122.288 418.023 124.546C415.741 126.804 412.71 127.895 408.93 127.895H354.71Z" fill="black"/>
<path d="M17.752 145.316C18.912 144.639 20.6707 143.962 23.0281 143.36C25.3855 142.758 27.7428 142.419 30.1377 142.419C33.5428 142.419 36.5737 142.908 39.193 143.924C41.8124 144.903 43.4962 146.483 44.2446 148.59C45.4794 152.165 46.7891 156.304 48.2484 161.008C49.6703 165.749 51.0923 170.603 52.5516 175.645C53.9735 180.687 55.3954 185.654 56.7425 190.546C58.0896 195.438 59.287 199.765 60.3347 203.528C59.5115 204.506 58.2767 205.259 56.6677 205.823C55.0213 206.388 53.0755 206.689 50.8303 206.689C49.1839 206.689 47.7994 206.538 46.6768 206.275C45.5543 206.011 44.6188 205.598 43.9078 205.033C43.1969 204.469 42.5982 203.754 42.1866 202.888C41.7375 201.985 41.3633 200.969 41.0266 199.803L39.193 192.729H20.6332C20.072 194.798 19.5481 196.905 18.9868 199.088C18.4255 201.27 17.9017 203.415 17.3404 205.447C16.3675 205.786 15.3946 206.087 14.3094 206.312C13.2617 206.538 11.9895 206.689 10.4927 206.689C7.01275 206.689 4.43085 206.087 2.78441 204.883C1.10056 203.791 0.277344 202.136 0.277344 199.991C0.277344 199.05 0.42702 198.072 0.688952 197.131C0.950885 196.19 1.25024 195.024 1.62443 193.744C2.11087 191.901 2.74699 189.605 3.60763 186.858C4.46827 184.112 5.40374 181.139 6.41405 177.978C7.42436 174.78 8.50951 171.506 9.6695 168.157C10.8295 164.808 11.9146 161.647 12.9249 158.637C13.9353 155.664 14.8707 152.993 15.7314 150.66C16.6294 148.327 17.2655 146.558 17.752 145.316ZM30.0254 158.562C29.0525 161.422 28.0048 164.658 26.8074 168.157C25.61 171.694 24.5248 175.269 23.5893 178.881H36.2744C35.3015 175.194 34.366 171.581 33.3557 168.044C32.3828 164.507 31.4473 161.346 30.6615 158.524H30.0254V158.562Z" fill="black"/>
<path d="M73.7681 159.917L63.5527 163.115C62.5424 162.438 61.4947 161.459 60.4844 160.255C59.4741 159.013 58.9502 157.32 58.9502 155.1C58.9502 150.999 61.4198 148.101 66.3966 146.483L77.8468 142.57H81.6261C84.5448 142.57 86.8647 143.435 88.586 145.128C90.3073 146.859 91.1305 149.155 91.1305 152.127V205.673C90.3821 205.823 89.2595 206.012 87.8002 206.237C86.3409 206.463 84.8441 206.614 83.3474 206.614C81.8506 206.614 80.5035 206.501 79.3061 206.313C78.1087 206.124 77.0984 205.711 76.2752 205.071C75.452 204.469 74.8158 203.603 74.3668 202.55C73.9178 201.496 73.6933 200.104 73.6933 198.373V159.917H73.7681Z" fill="black"/>
<path d="M113.919 159.917L103.704 163.115C102.694 162.438 101.646 161.459 100.636 160.255C99.6254 159.013 99.1016 157.32 99.1016 155.1C99.1016 150.999 101.571 148.101 106.548 146.483L117.998 142.57H121.777C124.696 142.57 127.016 143.435 128.737 145.128C130.421 146.859 131.282 149.155 131.282 152.127V205.673C130.534 205.823 129.411 206.012 127.952 206.237C126.492 206.463 124.995 206.614 123.499 206.614C122.002 206.614 120.655 206.501 119.457 206.313C118.26 206.124 117.25 205.711 116.427 205.071C115.603 204.469 114.967 203.603 114.518 202.55C114.069 201.496 113.845 200.104 113.845 198.373V159.917H113.919Z" fill="black"/>
<path d="M151.338 192.992C150.59 191.298 149.804 189.342 148.943 187.234C148.083 185.127 147.222 182.681 146.287 179.934C145.351 177.188 144.416 174.064 143.443 170.527C142.47 166.99 141.422 162.926 140.337 158.336C141.272 157.395 142.582 156.529 144.154 155.814C145.763 155.1 147.521 154.723 149.43 154.723C151.825 154.723 153.808 155.212 155.342 156.228C156.914 157.207 158.074 159.088 158.822 161.835L166.904 190.094H167.316C168.139 187.761 168.925 185.24 169.711 182.493C170.497 179.746 171.245 176.924 171.993 174.027C172.742 171.129 173.453 168.194 174.089 165.297C174.725 162.4 175.286 159.54 175.773 156.718C178.242 155.401 180.899 154.761 183.855 154.761C186.25 154.761 188.233 155.288 189.767 156.304C191.339 157.32 192.125 159.126 192.125 161.647C192.125 163.491 191.9 165.636 191.414 168.081C190.927 170.527 190.291 173.086 189.505 175.833C188.72 178.58 187.784 181.402 186.736 184.299C185.689 187.197 184.566 190.057 183.406 192.879C182.246 195.701 181.049 198.335 179.814 200.856C178.579 203.339 177.382 205.597 176.222 207.591C174.313 210.94 172.555 213.687 170.908 215.794C169.262 217.902 167.69 219.595 166.193 220.761C164.697 221.966 163.2 222.793 161.703 223.245C160.206 223.697 158.635 223.922 156.988 223.922C154.145 223.922 151.825 223.057 150.028 221.364C148.27 219.633 147.185 217.413 146.848 214.666C149.018 212.935 151.188 211.053 153.396 208.946C155.566 206.839 157.55 204.732 159.308 202.512C158.148 202.173 156.914 201.383 155.566 200.103C154.332 198.899 152.872 196.491 151.338 192.992Z" fill="black"/>
<path d="M225.202 157.846H200.057C199.57 157.094 199.121 156.078 198.71 154.761C198.298 153.444 198.111 152.089 198.111 150.659C198.111 147.988 198.71 146.069 199.907 144.902C201.104 143.736 202.639 143.171 204.547 143.171H242.677C245.67 145.655 247.167 148.928 247.167 153.03C247.167 154.761 246.793 156.454 246.007 158.11C245.221 159.803 244.211 161.384 242.976 162.889L219.777 191.035H245.932C246.419 191.788 246.868 192.803 247.242 194.12C247.654 195.437 247.841 196.792 247.841 198.222C247.841 200.894 247.242 202.813 246.045 203.979C244.847 205.146 243.313 205.71 241.405 205.71H201.179C200.019 204.769 199.084 203.452 198.335 201.797C197.587 200.141 197.213 198.26 197.213 196.152C197.213 194.459 197.662 192.691 198.523 190.922C199.421 189.154 200.468 187.498 201.703 185.993L225.202 157.846Z" fill="black"/>
<path d="M306.439 180.763C306.439 185.015 305.803 188.778 304.493 192.127C303.183 195.438 301.387 198.223 299.03 200.518C296.672 202.776 293.866 204.507 290.611 205.673C287.355 206.84 283.688 207.404 279.684 207.404C275.68 207.404 272.013 206.802 268.758 205.56C265.502 204.318 262.696 202.55 260.339 200.254C257.981 197.959 256.148 195.175 254.875 191.863C253.566 188.59 252.93 184.864 252.93 180.763C252.93 176.737 253.566 173.049 254.875 169.775C256.185 166.502 257.981 163.679 260.339 161.384C262.696 159.089 265.502 157.32 268.758 156.079C272.013 154.837 275.68 154.235 279.684 154.235C283.688 154.235 287.355 154.874 290.611 156.154C293.866 157.433 296.672 159.202 299.03 161.497C301.387 163.792 303.221 166.577 304.493 169.888C305.803 173.162 306.439 176.812 306.439 180.763ZM270.704 180.763C270.704 184.94 271.489 188.138 273.098 190.358C274.707 192.578 276.915 193.707 279.796 193.707C282.64 193.707 284.848 192.578 286.382 190.321C287.916 188.063 288.665 184.864 288.665 180.763C288.665 176.661 287.879 173.501 286.307 171.243C284.736 169.023 282.528 167.894 279.647 167.894C276.803 167.894 274.558 169.023 272.986 171.243C271.452 173.501 270.704 176.661 270.704 180.763Z" fill="black"/>
<path d="M346.403 174.103C346.403 171.995 345.804 170.415 344.606 169.437C343.409 168.458 341.8 167.932 339.742 167.932C338.395 167.932 337.048 168.12 335.701 168.458C334.391 168.797 333.231 169.324 332.296 170.001V205.673C331.622 205.861 330.537 206.087 329.078 206.275C327.618 206.463 326.084 206.576 324.512 206.576C323.016 206.576 321.669 206.463 320.471 206.275C319.274 206.087 318.264 205.673 317.44 205.033C316.617 204.431 315.981 203.566 315.532 202.512C315.083 201.459 314.858 200.066 314.858 198.335V167.518C314.858 165.674 315.233 164.169 316.018 163.002C316.804 161.836 317.889 160.782 319.236 159.804C321.556 158.148 324.475 156.831 327.992 155.777C331.51 154.762 335.401 154.235 339.705 154.235C347.413 154.235 353.325 155.928 357.479 159.315C361.632 162.701 363.728 167.405 363.728 173.463V205.635C363.054 205.824 361.969 206.049 360.51 206.237C359.05 206.426 357.516 206.539 355.944 206.539C354.448 206.539 353.101 206.426 351.903 206.237C350.706 206.049 349.695 205.635 348.872 204.996C348.049 204.394 347.413 203.528 346.964 202.475C346.515 201.421 346.29 200.029 346.29 198.298V174.103H346.403Z" fill="black"/>
<path d="M400.772 207.404C396.768 207.404 393.026 206.84 389.584 205.711C386.141 204.582 383.148 202.888 380.603 200.631C378.059 198.373 376.038 195.513 374.579 192.089C373.119 188.665 372.371 184.639 372.371 180.048C372.371 175.532 373.119 171.657 374.579 168.383C376.038 165.147 377.984 162.475 380.341 160.368C382.736 158.261 385.468 156.718 388.499 155.74C391.567 154.762 394.71 154.235 397.891 154.235C401.52 154.235 404.776 154.799 407.769 155.89C410.726 156.982 413.27 158.487 415.44 160.406C417.573 162.325 419.257 164.62 420.454 167.292C421.652 169.963 422.251 172.861 422.251 176.022C422.251 178.355 421.614 180.123 420.305 181.365C418.995 182.607 417.199 183.397 414.879 183.736L389.621 187.536C390.37 189.794 391.904 191.487 394.224 192.616C396.544 193.745 399.2 194.309 402.194 194.309C405 194.309 407.62 193.933 410.127 193.218C412.596 192.503 414.655 191.675 416.226 190.697C417.311 191.374 418.247 192.352 418.995 193.557C419.744 194.798 420.118 196.078 420.118 197.47C420.118 200.556 418.696 202.851 415.815 204.356C413.644 205.523 411.175 206.313 408.443 206.727C405.711 207.178 403.167 207.404 400.772 207.404ZM397.928 166.991C396.282 166.991 394.86 167.254 393.7 167.819C392.502 168.383 391.53 169.06 390.781 169.926C390.033 170.791 389.472 171.732 389.097 172.786C388.723 173.839 388.499 174.93 388.424 176.022L405.898 173.162C405.711 171.807 404.926 170.415 403.653 169.06C402.344 167.706 400.435 166.991 397.928 166.991Z" fill="black"/>
</svg>
