<svg id="Capa_2" data-name="Capa 2" xmlns="http://www.w3.org/2000/svg" xmlns:xlink="http://www.w3.org/1999/xlink" viewBox="0 0 346.89 346.89"><defs><style>.cls-1{fill:#fff;}.cls-2{fill:url(#Degradado_sin_nombre_3);}.cls-3{fill:none;}.cls-3,.cls-4{stroke:#000;stroke-linecap:round;stroke-linejoin:round;stroke-width:5px;}.cls-5{fill:url(#Degradado_sin_nombre_3-2);}.cls-6{fill:#8e68a4;}</style><linearGradient id="Degradado_sin_nombre_3" x1="322.78" y1="245.45" x2="65.33" y2="99.21" gradientUnits="userSpaceOnUse"><stop offset="0" stop-color="#fff"/><stop offset="1" stop-color="#8e68a4"/></linearGradient><linearGradient id="Degradado_sin_nombre_3-2" x1="176.23" y1="305.63" x2="176.23" y2="211.49" gradientTransform="translate(0 -81.28)" xlink:href="#Degradado_sin_nombre_3"/></defs><rect class="cls-1" x="11" y="68.68" width="324.88" height="191.11" rx="6.28"/><path class="cls-2" d="M27.1,85h0A14.41,14.41,0,0,0,41.52,99.44H303.14a8.73,8.73,0,0,1,8.73,8.73v95.32a43,43,0,0,1-43,43H33.73a6.63,6.63,0,0,0-6.63,6.63h0a6.62,6.62,0,0,0,6.65,6.63l295.53-1.08a6.63,6.63,0,0,0,6.61-6.63V77.23a6.63,6.63,0,0,0-6.64-6.63H41.52A14.41,14.41,0,0,0,27.1,85Z"/><path class="cls-3" d="M11,187.57V75a6.28,6.28,0,0,1,6.28-6.28H329.61A6.28,6.28,0,0,1,335.89,75V253.54a6.28,6.28,0,0,1-6.28,6.28H17.28A6.28,6.28,0,0,1,11,253.54V242"/><circle class="cls-4" cx="281.14" cy="83.63" r="3.81"/><circle class="cls-4" cx="299.13" cy="83.63" r="3.81"/><circle class="cls-4" cx="317.11" cy="83.63" r="3.81"/><line class="cls-3" x1="29.73" y1="99.47" x2="317.15" y2="99.47"/><path class="cls-5" d="M232.09,191.07c-4.14-4.14-32.81-32.81-32.84-32.86v13.4a.71.71,0,0,0,1.33.35,3.36,3.36,0,0,1,2.94-1.7,3.24,3.24,0,0,1,2.32,1l18.36,17.72a1.87,1.87,0,0,1,0,2.67l-26.85,27.54,0,0a3.47,3.47,0,0,0,0,4.9l1.71,1.72,33-33.72A.72.72,0,0,0,232.09,191.07ZM120.37,163.48c4.15,4.14,32.81,32.81,32.84,32.86V182.93a.7.7,0,0,0-1.32-.34,3.4,3.4,0,0,1-2.94,1.69,3.2,3.2,0,0,1-2.33-1l-18.36-17.71a1.87,1.87,0,0,1,0-2.67l26.88-27.52,0,0a3.49,3.49,0,0,0,0-4.91l-1.71-1.71-33,33.69A.73.73,0,0,0,120.37,163.48Zm55.21,40.89h.07l-7.1,21.74h-8.23c-3.83,0-7.77-.79-6.57-4.44l4.68-13.55a5.45,5.45,0,0,1,5.17-3.75h0a5.11,5.11,0,0,0,4.88-3.55l19.84-61.41A11.28,11.28,0,0,1,199,131.62h.05Z"/><path d="M232.72,195,201.9,225.81a1.89,1.89,0,0,1-1.4.57,2,2,0,0,1-1.39-.57,2,2,0,0,1,0-2.76l30.82-30.83a.83.83,0,0,0,.27-.64.8.8,0,0,0-.27-.63l-30.38-30.39v11.15a2,2,0,1,1-3.92,0V155.83a2,2,0,0,1,3.33-1.4l33.72,33.72A4.8,4.8,0,0,1,232.72,195ZM209,191.58a1.17,1.17,0,0,1-.37.86l-9.39,9.39a2,2,0,0,0,0,2.76,1.93,1.93,0,0,0,1.4.57,2.09,2.09,0,0,0,1.4-.57l9.38-9.38a5.11,5.11,0,0,0,0-7.25l-10.51-10.52a2,2,0,0,0-2.77,2.77l10.51,10.52A1.21,1.21,0,0,1,209,191.58Zm-54.11,9.12a2,2,0,0,0,.76-.15,1.94,1.94,0,0,0,1.2-1.81V182.86a2,2,0,1,0-3.92,0V194l-30.38-30.39a.92.92,0,0,1,0-1.29l30.82-30.83a2,2,0,0,0-2.77-2.77l-30.82,30.83a4.79,4.79,0,0,0-1.42,3.4,4.7,4.7,0,0,0,1.42,3.41l33.71,33.72A2,2,0,0,0,154.85,200.7Zm-11-38.6,9.39-9.38a2,2,0,1,0-2.77-2.77l-9.39,9.39a5.13,5.13,0,0,0,0,7.25l10.52,10.51a1.92,1.92,0,0,0,1.39.56,2,2,0,0,0,1.4-.56,2,2,0,0,0,0-2.77l-10.54-10.49A1.27,1.27,0,0,1,143.87,162.1Zm55.85-32.32a2,2,0,0,0-2.48,1.28l-30.11,93.09H154.92l29.29-90.54H191a2,2,0,0,0,0-3.92h-8.25a2,2,0,0,0-1.87,1.34l-30.55,94.49a1.94,1.94,0,0,0,.27,1.76,1.91,1.91,0,0,0,1.59.81h16.32a2,2,0,0,0,1.86-1.34L201,132.26A2,2,0,0,0,199.72,129.78Z"/><path class="cls-6" d="M216.77,232.09l14.93-14.93v14.93Z"/><line class="cls-3" x1="159.91" y1="278.21" x2="308.67" y2="278.21"/></svg>