<svg id="Capa_2" data-name="Capa 2" xmlns="http://www.w3.org/2000/svg" xmlns:xlink="http://www.w3.org/1999/xlink" viewBox="0 0 227.37 245.99"><defs><style>.cls-1{fill:#8e68a4;}.cls-2{fill:url(#Degradado_sin_nombre_8);}.cls-3{fill:url(#Degradado_sin_nombre_8-2);}.cls-4{fill:url(#Degradado_sin_nombre_8-3);}.cls-5{fill:none;stroke:#171717;stroke-linecap:round;stroke-linejoin:round;stroke-width:7.54px;}</style><linearGradient id="Degradado_sin_nombre_8" x1="77.99" y1="140.95" x2="154.34" y2="140.95" gradientUnits="userSpaceOnUse"><stop offset="0" stop-color="#fff"/><stop offset="1" stop-color="#8e68a4"/></linearGradient><linearGradient id="Degradado_sin_nombre_8-2" x1="148.31" y1="154.02" x2="184.66" y2="154.02" xlink:href="#Degradado_sin_nombre_8"/><linearGradient id="Degradado_sin_nombre_8-3" x1="41.44" y1="176.42" x2="74.79" y2="176.42" xlink:href="#Degradado_sin_nombre_8"/></defs><rect class="cls-1" x="201.86" y="181.14" width="22.6" height="22.6"/><rect class="cls-1" x="201.86" y="165.89" width="22.6" height="8.83"/><rect class="cls-1" x="201.86" y="150.65" width="22.6" height="8.83"/><path class="cls-2" d="M85.47,197.47a8.53,8.53,0,0,1-7.48-8.6V84.39H145.7a8.52,8.52,0,0,1,8.6,7.47,8.29,8.29,0,0,1-8.25,9.1h-43a8.49,8.49,0,0,0-8.49,8.49v79.77A8.28,8.28,0,0,1,85.47,197.47Z"/><path class="cls-3" d="M155.78,223.61a8.53,8.53,0,0,1-7.47-8.6V84.39H176a8.52,8.52,0,0,1,8.6,7.47,8.29,8.29,0,0,1-8.25,9.1h-3a8.49,8.49,0,0,0-8.49,8.49V215.37A8.29,8.29,0,0,1,155.78,223.61Z"/><path class="cls-4" d="M48.91,197.47a8.53,8.53,0,0,1-7.47-8.6V155.34H66.15a8.53,8.53,0,0,1,8.6,7.47,8.28,8.28,0,0,1-8.25,9.09h0A8.49,8.49,0,0,0,58,180.39v8.83A8.28,8.28,0,0,1,48.91,197.47Z"/><line class="cls-5" x1="19.84" y1="76.95" x2="19.84" y2="46.3"/><line class="cls-5" x1="4.68" y1="52.99" x2="4.68" y2="22.34"/><line class="cls-5" x1="38.49" y1="53.88" x2="38.49" y2="217.73"/><line class="cls-5" x1="74.34" y1="82.26" x2="74.34" y2="217.73"/><line class="cls-5" x1="146.05" y1="82.26" x2="146.05" y2="217.73"/><line class="cls-5" x1="181.91" y1="53.88" x2="181.91" y2="217.73"/><line class="cls-5" x1="181.37" y1="82.26" x2="38.49" y2="82.26"/><line class="cls-5" x1="201.86" y1="117.91" x2="74.34" y2="117.91"/><line class="cls-5" x1="110.2" y1="153.57" x2="38.49" y2="153.57"/><line class="cls-5" x1="181.37" y1="153.57" x2="148.31" y2="153.57"/><line class="cls-5" x1="145.78" y1="189.22" x2="2.91" y2="189.22"/></svg>