<svg id="Capa_1" data-name="Capa 1" xmlns="http://www.w3.org/2000/svg" viewBox="0 0 1240.51 622.25"><defs><style>.cls-1,.cls-3{fill:none;}.cls-1,.cls-2,.cls-3{stroke:#fff;stroke-width:4px;}.cls-1,.cls-2{stroke-miterlimit:10;}.cls-2{fill:#fff;}.cls-3{stroke-linecap:round;stroke-linejoin:round;}</style></defs><path class="cls-1" d="M505.05,620.25a115.2,115.2,0,0,1,230.4,0"/><path class="cls-1" d="M2,620.25C2,278.8,278.8,2,620.25,2s618.26,276.8,618.26,618.25"/><path class="cls-2" d="M1234.87,552.8a626.07,626.07,0,0,1,3.64,67.45H735.45a118.71,118.71,0,0,0-.67-12.57Z"/><path class="cls-1" d="M472.33,19.81C202.31,86.11,2,329.79,2,620.25H505.05a115.25,115.25,0,0,1,87.64-111.88Z"/><path class="cls-1" d="M592.69,508.37,472.33,19.81"/><path class="cls-1" d="M555.25,527.43,432.3,31.1"/><path class="cls-1" d="M520.88,559.71,393.82,44.78"/><path class="cls-1" d="M493.49,620.25,355.58,61.36"/><path class="cls-1" d="M451.16,620.25,318,80.78"/><path class="cls-1" d="M408.83,620.25,281.23,103.16"/><path class="cls-1" d="M366.49,620.25,245.2,128.72"/><path class="cls-1" d="M324.16,620.25,210.54,159.82"/><path class="cls-1" d="M281.83,620.25,176.19,192.16"/><path class="cls-1" d="M239.49,620.25,142.62,227.67"/><path class="cls-1" d="M197.16,620.25,110.73,270"/><path class="cls-1" d="M154.83,620.25,80.75,320"/><path class="cls-1" d="M112.5,620.25,52.19,375.86"/><path class="cls-1" d="M69.34,620.25,26.18,444.37"/><path class="cls-1" d="M26.18,620.25,6.93,541.82"/><path class="cls-1" d="M1234.87,552.8a616.2,616.2,0,0,0-168.55-360.64L701.71,538.79a114.86,114.86,0,0,1,33.07,68.89Z"/><circle class="cls-1" cx="1057.97" cy="229.3" r="18.17"/><circle class="cls-1" cx="982.04" cy="305.23" r="18.17"/><circle class="cls-1" cx="1057.97" cy="305.23" r="18.17"/><path class="cls-1" d="M1152.08,305.23a18.16,18.16,0,1,1-9.57-16"/><circle class="cls-1" cx="906.11" cy="381.16" r="18.17"/><circle class="cls-1" cx="982.04" cy="381.16" r="18.17"/><circle class="cls-1" cx="1057.97" cy="381.16" r="18.17"/><circle class="cls-1" cx="1133.91" cy="381.16" r="18.17"/><circle class="cls-1" cx="830.18" cy="457.1" r="18.17"/><circle class="cls-1" cx="906.11" cy="457.1" r="18.17"/><circle class="cls-1" cx="982.04" cy="457.1" r="18.17"/><circle class="cls-1" cx="1057.97" cy="457.1" r="18.17"/><circle class="cls-1" cx="1133.91" cy="457.1" r="18.17"/><path class="cls-1" d="M1220.56,471.77a18.18,18.18,0,1,1-10.72-32.85c.55,0,1.1,0,1.64.08"/><circle class="cls-1" cx="754.25" cy="533.03" r="18.17"/><circle class="cls-1" cx="830.18" cy="533.03" r="18.17"/><circle class="cls-1" cx="906.11" cy="533.03" r="18.17"/><circle class="cls-1" cx="982.04" cy="533.03" r="18.17"/><circle class="cls-1" cx="1057.97" cy="533.03" r="18.17"/><circle class="cls-1" cx="1133.91" cy="533.03" r="18.17"/><circle class="cls-1" cx="1209.84" cy="533.03" r="18.17"/><path class="cls-1" d="M736.12,607.68a18.18,18.18,0,0,1,35.51-4"/><path class="cls-1" d="M815.06,598.87a18.19,18.19,0,0,1,27.69-3"/><path class="cls-1" d="M472.33,19.81A619.51,619.51,0,0,1,620.25,2c175.3,0,333.56,73,446.07,190.16L701.71,538.79a115.4,115.4,0,0,0-109-30.42Z"/><line class="cls-3" x1="520.76" y1="43.6" x2="546.12" y2="58.61"/><line class="cls-3" x1="606.66" y1="81.89" x2="630.98" y2="63.26"/><line class="cls-3" x1="678.07" y1="77.75" x2="671.34" y2="105.18"/><line class="cls-3" x1="737.06" y1="47.22" x2="723.6" y2="77.75"/><line class="cls-3" x1="861.24" y1="80.34" x2="844.68" y2="105.69"/><line class="cls-3" x1="884.01" y1="128.98" x2="910.4" y2="143.98"/><line class="cls-3" x1="930.06" y1="200.9" x2="903.16" y2="220.57"/><line class="cls-3" x1="973.53" y1="217.46" x2="966.8" y2="245.92"/><line class="cls-3" x1="852.96" y1="311.64" x2="884.53" y2="314.22"/><line class="cls-3" x1="728.26" y1="451.35" x2="760.34" y2="444.62"/><line class="cls-3" x1="606.66" y1="362.35" x2="630.98" y2="340.1"/><line class="cls-3" x1="669.79" y1="238.16" x2="695.14" y2="217.98"/><line class="cls-3" x1="730.33" y1="256.79" x2="762.41" y2="266.1"/><line class="cls-3" x1="815.19" y1="261.44" x2="847.1" y2="268.69"/><line class="cls-3" x1="817.78" y1="181.24" x2="843.65" y2="198.83"/><line class="cls-3" x1="725.67" y1="173.48" x2="762.93" y2="165.72"/><line class="cls-3" x1="557.5" y1="173.48" x2="585.96" y2="175.55"/><line class="cls-3" x1="519.21" y1="121.22" x2="551.29" y2="130.01"/><line class="cls-3" x1="566.3" y1="221.08" x2="548.19" y2="245.92"/><line class="cls-3" x1="587" y1="268.69" x2="612.35" y2="283.18"/><line class="cls-3" x1="734.47" y1="326.12" x2="725.67" y2="355.62"/><line class="cls-3" x1="784.14" y1="358.21" x2="821.92" y2="351.22"/><line class="cls-3" x1="678.07" y1="357.69" x2="674.7" y2="385.63"/></svg>