<?xml version="1.0" encoding="utf-8"?>
<!-- Generator: Adobe Illustrator 24.3.0, SVG Export Plug-In . SVG Version: 6.00 Build 0)  -->
<svg version="1.1" id="Capa_2_1_" xmlns="http://www.w3.org/2000/svg" xmlns:xlink="http://www.w3.org/1999/xlink" x="0px" y="0px"
	 viewBox="0 0 103.4 102.2" style="enable-background:new 0 0 103.4 102.2;" xml:space="preserve">
<style type="text/css">
	.st0{fill:url(#SVGID_1_);}
	.st1{fill:#8E68A4;}
	.st2{fill:#FFFFFF;}
</style>
<linearGradient id="SVGID_1_" gradientUnits="userSpaceOnUse" x1="10.764" y1="-285.0618" x2="81.4522" y2="-285.0618" gradientTransform="matrix(1 0 0 -1 0 -225.7402)">
	<stop  offset="0" style="stop-color:#FFFFFF"/>
	<stop  offset="1" style="stop-color:#8E68A4"/>
</linearGradient>
<path class="st0" d="M21.2,90.7c17.3,12.1,41.2,7.9,53.3-9.4C86.7,64,82.4,40.1,65.1,28C58.7,23.5,51,21,43.1,21l8.2,2.4
	c0,0,29.4,25.9,11.5,48.7S24,85.5,18,80.5C10,73.9,5.6,77,21.2,90.7z"/>
<path d="M43.1,99.4c-22.1,0-40-17.9-40-40c0-8.2,2.5-16.3,7.3-23c0.6-0.8,1.7-0.9,2.4-0.3c0.7,0.5,0.9,1.5,0.4,2.3
	c-4.3,6.1-6.7,13.5-6.6,21c0,20.2,16.4,36.5,36.5,36.5s36.5-16.4,36.5-36.5c0-1,0.8-1.8,1.8-1.8s1.8,0.8,1.8,1.8
	C83.1,81.4,65.2,99.3,43.1,99.4z M50,88.9L50,88.9c-0.3,0-0.5-0.1-0.8-0.2l0,0l0,0l0,0c-0.3-0.2-0.6-0.5-0.8-0.9l0,0
	c0,0,0-0.1,0-0.1c-4.7-13-8.5-19.9-13.8-25.7c-2.9-3.1-6-6-9.3-8.6l0,0c-6.1-5.1-10.9-9.1-10.9-20.4v-0.7c0-0.5,0.2-0.9,0.5-1.2
	C30.5,15.4,55.8,15.4,71.5,31c5.2,5.2,8.9,11.6,10.6,18.7c0.2,0.9-0.4,1.9-1.4,2.1c-0.9,0.2-1.7-0.3-2-1.2
	c-3.1-12.7-12.8-22.7-25.4-26.3c0.7,10.4-6,16.9-8.6,19.5l-0.5,0.5c-0.6,0.6-1.5,0.7-2.2,0.2c-2.3-1.5-4.9-2.3-7.7-2.3
	c-2.3,0-7.3,3.1-8.5,7.4c0.5,0.4,1,0.9,1.5,1.3l0,0c3.4,2.8,6.6,5.7,9.6,8.9c5.1,5.5,8.8,11.9,13,22.7c0.2-0.4,0.3-0.8,0.5-1.2
	c1.6-3.8,2.6-6.4,3.2-7.4c1.8-3.1,3.3-5.5,3.3-7.7c0-2.7-4.4-7.2-9.5-7.2c-2.2,0.1-4.2,0.8-5.9,2.1c-0.7,0.6-1.8,0.6-2.5-0.1
	c-0.6-0.7-0.6-1.8,0.1-2.5c0.1-0.1,0.2-0.2,0.4-0.2c2.3-1.7,5.1-2.7,8-2.8c3.3,0.1,6.4,1.3,8.9,3.4c2.6,2.1,4.1,4.9,4.1,7.3
	c0,3.2-1.8,6.1-3.8,9.5c-0.5,0.8-1.9,4.2-3,7c-1,2.4-1.8,4.4-2.3,5.3c0,0,0,0.1,0,0.1l0,0c-0.1,0.2-0.2,0.3-0.3,0.5l0,0
	c-0.2,0.2-0.4,0.3-0.6,0.4C50.5,88.8,50.3,88.9,50,88.9z M17.8,33c0,7,2,10.6,5.3,13.9c2.2-5,7.7-8.4,11.3-8.4
	c2.9,0,5.8,0.8,8.4,2.2c2.8-2.8,8.1-8.4,7-17.3c-2.2-0.4-4.4-0.6-6.6-0.6C33.7,22.8,24.6,26.5,17.8,33z"/>
<path d="M78,51.4c0-1,0.8-1.7,1.7-1.7h14.8c1,0,1.8,0.8,1.8,1.8c0,1-0.8,1.8-1.8,1.8H79.7C78.8,53.1,78,52.4,78,51.4
	C78,51.4,78,51.4,78,51.4z M93.6,58.7c0-1-0.8-1.8-1.8-1.8l0,0H68.3c-1,0-1.8,0.8-1.8,1.8s0.8,1.8,1.8,1.8h23.6
	C92.8,60.5,93.6,59.7,93.6,58.7z M7.8,98.7H1.9c-1-0.1-1.8,0.6-1.9,1.6c-0.1,1,0.6,1.8,1.6,1.9c0.1,0,0.2,0,0.3,0h5.9
	c1,0.1,1.8-0.6,1.9-1.6c0.1-1-0.6-1.8-1.6-1.9C8,98.7,7.9,98.7,7.8,98.7z M89.2,37.6c1.2,0,2.2,1,2.1,2.2s-1,2.2-2.2,2.1
	C88,42,87,41,87,39.8C87,38.6,87.9,37.6,89.2,37.6C89.1,37.6,89.1,37.6,89.2,37.6L89.2,37.6z M103.4,39.8c0,1.2-1,2.2-2.2,2.2
	c-1.2,0-2.2-1-2.2-2.2c0-1.2,1-2.2,2.2-2.2c0,0,0,0,0,0C102.4,37.6,103.4,38.6,103.4,39.8L103.4,39.8z M82.9,99.1
	c0,1.2-1,2.2-2.2,2.2s-2.2-1-2.2-2.2c0-1.2,1-2.2,2.2-2.2c0,0,0,0,0,0C81.9,96.9,82.9,97.8,82.9,99.1L82.9,99.1z"/>
<path class="st1" d="M54.9,0v7.7H50V0H54.9z M70,0v16.9h4.9V0H70z"/>
<path class="st2" d="M44.8,0v7.7h-4.7V0H44.8z M60.1,0v16.9h4.7V0H60.1z"/>
</svg>
