<svg id="Capa_2" data-name="Capa 2" xmlns="http://www.w3.org/2000/svg" xmlns:xlink="http://www.w3.org/1999/xlink" viewBox="0 0 227.37 245.99"><defs><style>.cls-1{fill:#171717;stroke-width:2.5px;}.cls-1,.cls-3,.cls-4,.cls-5{stroke:#171717;}.cls-1,.cls-4{stroke-miterlimit:10;}.cls-2{fill:#8e68a4;}.cls-3,.cls-4{fill:none;}.cls-3,.cls-4,.cls-5{stroke-linecap:round;stroke-width:7.54px;}.cls-3,.cls-5{stroke-linejoin:round;}.cls-5{fill:url(#Degradado_sin_nombre_8);}</style><linearGradient id="Degradado_sin_nombre_8" x1="120.67" y1="192.22" x2="194.05" y2="192.22" gradientUnits="userSpaceOnUse"><stop offset="0" stop-color="#fff"/><stop offset="1" stop-color="#8e68a4"/></linearGradient></defs><circle class="cls-1" cx="9.43" cy="229.11" r="4.51"/><circle class="cls-1" cx="9.43" cy="204.93" r="4.51"/><circle class="cls-1" cx="9.43" cy="180.75" r="4.51"/><rect class="cls-2" x="178.96" y="22.09" width="33.07" height="13.64" transform="translate(224.4 -166.59) rotate(90)"/><rect class="cls-2" x="199.09" y="22.09" width="33.07" height="13.64" transform="translate(244.53 -186.72) rotate(90)"/><circle class="cls-3" cx="68.99" cy="98.03" r="35.16"/><path class="cls-4" d="M86.53,106.53a20.61,20.61,0,0,1-35.08,0"/><polygon class="cls-5" points="157.36 157.32 168.7 180.3 194.05 183.98 175.7 201.86 180.03 227.11 157.36 215.19 134.68 227.11 139.01 201.86 120.67 183.98 146.02 180.3 157.36 157.32"/><rect class="cls-3" x="33.83" y="157.06" width="70.32" height="70.32"/><line class="cls-3" x1="53.01" y1="192.22" x2="84.97" y2="192.22"/><line class="cls-3" x1="68.99" y1="176.24" x2="68.99" y2="208.2"/><polyline class="cls-3" points="198.72 85.13 167.49 85.13 157.36 67.58 139.78 98.03 122.2 128.48 157.36 128.48 192.52 128.48 176.36 100.5"/><line class="cls-4" x1="218.31" y1="98.6" x2="188.13" y2="98.6"/></svg>