<svg id="Capa_2" data-name="Capa 2" xmlns="http://www.w3.org/2000/svg" xmlns:xlink="http://www.w3.org/1999/xlink" viewBox="0 0 150 150"><defs><style>.cls-1{fill:url(#Degradado_sin_nombre_4);}.cls-2{fill:#171717;}</style><linearGradient id="Degradado_sin_nombre_4" x1="75.55" y1="469.68" x2="75.55" y2="398" gradientTransform="translate(0 -327.89)" gradientUnits="userSpaceOnUse"><stop offset="0" stop-color="#fff"/><stop offset="1" stop-color="#8e68a4"/></linearGradient></defs><path class="cls-1" d="M131,63.79a14,14,0,0,1-14-14h0a14,14,0,0,1-14,14A13.83,13.83,0,0,1,96.26,62a18.73,18.73,0,0,0-1.75,7.87v36.64a17.87,17.87,0,0,1-.16,2.1v0A19.49,19.49,0,0,0,79.91,92.37,3.88,3.88,0,0,0,75,96.11v14.56a9,9,0,0,1-9,9h0a10.56,10.56,0,0,0-10.55,10.55v-7.87H37.23c-10,0-18.19,6.62-18.19,14.76v5.38H55.53v-.28H94.47v.28h37.58V63.78ZM94.51,110.51v0ZM94.39,109c0,.15,0,.31,0,.46C94.43,109.27,94.39,109.11,94.39,109Zm.08.81c0,.16,0,.32,0,.43A1.68,1.68,0,0,1,94.47,109.77Z"/><path class="cls-2" d="M33.06,59.62a17.06,17.06,0,0,0,28,0,17.06,17.06,0,0,0,28,0,17.06,17.06,0,0,0,28,0A17.08,17.08,0,0,0,148,49.81a16.82,16.82,0,0,0-1.24-6.35s0,0,0-.08L133.8,6.78a3.1,3.1,0,0,0-2.92-2.07H19.08a3.07,3.07,0,0,0-2.92,2.07L3.23,43.38c0,.08,0,.12-.08.19A17.16,17.16,0,0,0,16,66.63v75.54a3.12,3.12,0,0,0,3.11,3.12H131a3.12,3.12,0,0,0,3.11-3.12V77.8a3.12,3.12,0,0,0-6.23,0v61.26H97.62V111.29a22.59,22.59,0,0,0-45.17,0v27.77H22.2V66.63A17,17,0,0,0,33.06,59.62Zm25.62,51.63a16.36,16.36,0,0,1,32.71,0V139H58.68ZM47.08,60.67a10.89,10.89,0,0,1-10.87-10.4L49.3,10.94H70.64l-3.47,9.85L59.31,43.15c0,.07,0,.19-.08.27a16.42,16.42,0,0,0-1.29,6.35v0A10.86,10.86,0,0,1,47.08,60.67Zm28,0a10.89,10.89,0,0,1-10.87-10.4L75,17.68,85.9,50.27A10.87,10.87,0,0,1,75,60.67Zm28,0A10.87,10.87,0,0,1,92.17,49.81v0a16.85,16.85,0,0,0-1.24-6.31s0,0,0-.08l-8-22.59-3.47-9.85h21.34l13.08,39.33A10.82,10.82,0,0,1,103,60.67Zm37.85-15.46a1.38,1.38,0,0,0,.15.39,10.85,10.85,0,1,1-20.87,4.17v0A17.22,17.22,0,0,0,119,43.46s0-.08,0-.12L107.48,10.9h21.38ZM8.22,49.81a10.27,10.27,0,0,1,.85-4.17,1.91,1.91,0,0,0,.16-.51L21.3,10.94H42.68L31.23,43.38s0,.08,0,.12A16.54,16.54,0,0,0,30,49.77v0a10.88,10.88,0,0,1-21.76,0Z"/></svg>