<svg id="Capa_2" data-name="Capa 2" xmlns="http://www.w3.org/2000/svg" xmlns:xlink="http://www.w3.org/1999/xlink" viewBox="0 0 150 150"><defs><style>.cls-1{fill:url(#Degradado_sin_nombre_3);}.cls-2{fill:url(#Degradado_sin_nombre_3-2);}.cls-3,.cls-4{fill:none;}.cls-3,.cls-4,.cls-5{stroke:#151515;}.cls-3,.cls-5{stroke-linecap:round;stroke-linejoin:round;stroke-width:3px;}.cls-4{stroke-miterlimit:10;stroke-width:3.18px;}.cls-5{fill:#fff;}.cls-6{fill:#8e68a4;}</style><linearGradient id="Degradado_sin_nombre_3" x1="24.53" y1="30.84" x2="128.78" y2="30.84" gradientUnits="userSpaceOnUse"><stop offset="0" stop-color="#fff"/><stop offset="1" stop-color="#8e68a4"/></linearGradient><linearGradient id="Degradado_sin_nombre_3-2" x1="24.53" y1="108.86" x2="128.78" y2="108.86" xlink:href="#Degradado_sin_nombre_3"/></defs><path class="cls-1" d="M28.24,28.67h99.92a.62.62,0,0,1,.62.62v0A3.71,3.71,0,0,1,125.07,33H25.15a.62.62,0,0,1-.62-.62v0a3.71,3.71,0,0,1,3.71-3.71Z"/><path class="cls-2" d="M28.24,106.7h99.92a.62.62,0,0,1,.62.62v0a3.71,3.71,0,0,1-3.71,3.71H25.15a.62.62,0,0,1-.62-.62v0A3.71,3.71,0,0,1,28.24,106.7Z"/><line class="cls-3" x1="125.45" y1="34.49" x2="125.45" y2="102.55"/><path class="cls-3" d="M24.82,24.91H132a0,0,0,0,1,0,0v2.81a6.77,6.77,0,0,1-6.77,6.77H18a0,0,0,0,1,0,0V31.68A6.77,6.77,0,0,1,24.82,24.91Z"/><path class="cls-3" d="M18,102.55H132a0,0,0,0,1,0,0v2.81a6.77,6.77,0,0,1-6.77,6.77H24.82A6.77,6.77,0,0,1,18,105.36v-2.81a0,0,0,0,1,0,0Z"/><line class="cls-4" x1="23.19" y1="34.49" x2="23.19" y2="102.55"/><line class="cls-3" x1="75" y1="112.13" x2="75" y2="118.32"/><circle class="cls-3" cx="75" cy="121.7" r="3.39"/><circle class="cls-5" cx="72.18" cy="49.7" r="5.62"/><path class="cls-5" d="M97.94,54.91,78.81,56a2.2,2.2,0,0,0-.37.06h0l-6.26.28L65.93,56h0a2.32,2.32,0,0,0-.38-.06L46.43,54.91c-2.5,1.88-1.2,4.58.82,4.7l18,1h0a158.16,158.16,0,0,1-1.9,28.92L62.86,93A2.35,2.35,0,0,0,64.5,95.6a2.32,2.32,0,0,0,2.93-1.86l2.84-17.86s.06-.11.15-.21a2.46,2.46,0,0,1,3.52,0,.79.79,0,0,1,.16.21l2.82,17.8a2.38,2.38,0,0,0,2.7,2A2.34,2.34,0,0,0,81.52,93L81,89.53a158.16,158.16,0,0,1-1.9-28.92h0l18-1C99.14,59.49,100.43,56.79,97.94,54.91Z"/><rect class="cls-6" x="131.95" y="49.7" width="11.94" height="48.31" transform="translate(275.84 147.71) rotate(-180)"/><rect class="cls-6" x="6.11" y="86.07" width="11.94" height="11.94"/><rect class="cls-6" x="6.11" y="67.89" width="11.94" height="11.94"/></svg>