<svg xmlns="http://www.w3.org/2000/svg" viewBox="0 0 1236.88 706.4"><defs><style>.a{fill:#9b8cc4;}.b{fill:#fff;}</style></defs><path class="a" d="M2324.37,7710.15A599.64,599.64,0,0,1,2661.19,7813a604.35,604.35,0,0,1,218.29,265.07,598,598,0,0,1,47.13,218.49h-472.1c-7.91-64.78-63.26-115.12-130.14-115.12s-122.23,50.34-130.15,115.12H1722.13a599.28,599.28,0,0,1,102.68-320.82,604.19,604.19,0,0,1,265.07-218.28,598.63,598.63,0,0,1,234.49-47.34m0-16c-341.56,0-618.44,276.88-618.44,618.44h503.32a115.12,115.12,0,1,1,230.24,0h503.32c0-341.56-276.88-618.44-618.44-618.44Z" transform="translate(-1705.93 -7606.19)"/><path class="b" d="M2638.88,7606.19q24.47,10.91,48,23.44l-308.5,581.18c-2.34-1.24-4.72-2.41-7.15-3.49Z" transform="translate(-1705.93 -7606.19)"/></svg>