<svg id="Capa_2" data-name="Capa 2" xmlns="http://www.w3.org/2000/svg" viewBox="0 0 150 150"><defs><style>.cls-1,.cls-4{fill:#fff;}.cls-1,.cls-2,.cls-4,.cls-6,.cls-8{stroke:#151515;}.cls-1,.cls-2,.cls-4,.cls-6,.cls-7,.cls-8{stroke-width:3px;}.cls-2,.cls-6,.cls-7,.cls-8{fill:none;}.cls-3{fill:#8e68a4;}.cls-4,.cls-6,.cls-7{stroke-linecap:round;stroke-linejoin:round;}.cls-5{fill:#151515;}.cls-7{stroke:#8e68a4;}.cls-8{stroke-miterlimit:10;}</style></defs><rect class="cls-1" x="48.48" y="22.97" width="39.43" height="62.62"/><line class="cls-2" x1="55.26" y1="28.23" x2="81.14" y2="48.15"/><line class="cls-2" x1="81.14" y1="28.23" x2="55.26" y2="48.15"/><rect class="cls-2" x="55.26" y="28.23" width="25.88" height="19.92"/><path class="cls-3" d="M29,92.8a11.32,11.32,0,0,1-3.83-2.67,9.58,9.58,0,0,1-2.57-5.08,6.13,6.13,0,0,1,.7-4.93,11,11,0,0,1,4.32-3.29L35,73.4a9.65,9.65,0,0,0,3.36-2.69,4.58,4.58,0,0,0,.5-3.65,4.81,4.81,0,0,0-2.54-3.14q-2.16-1.26-6.6-.36a29,29,0,0,0-7.41,2.53A19.86,19.86,0,0,0,17,69.72a12.51,12.51,0,0,1-3.5-2.53A8.09,8.09,0,0,1,11.47,63a7.3,7.3,0,0,1,.57-4.8,11.22,11.22,0,0,1,3.46-4,24.15,24.15,0,0,1,5.86-3.08A49.43,49.43,0,0,1,29.19,49a34,34,0,0,1,10.52-.63,21.48,21.48,0,0,1,8.17,2.51,17.19,17.19,0,0,1,5.73,5.22,19.64,19.64,0,0,1,3.09,7.4q1.74,8.6-2.88,14.72T38.59,88.81Zm-.6,13.81a9.34,9.34,0,0,1,1.16-7.23,9.46,9.46,0,0,1,6.44-4,9.52,9.52,0,0,1,7.49,1.16A10.43,10.43,0,0,1,46.22,110a9.54,9.54,0,0,1-6.45,4,9.53,9.53,0,0,1-7.49-1.17A9.34,9.34,0,0,1,28.41,106.61Z"/><rect class="cls-4" x="51.74" y="56.19" width="76.41" height="58.79"/><path class="cls-3" d="M120.17,105.3A9.14,9.14,0,0,1,131,96.73a9.71,9.71,0,0,1,6.93,3.44,10.65,10.65,0,0,1-1.49,13.91A11.18,11.18,0,0,1,122,112.53,9.58,9.58,0,0,1,120.17,105.3ZM144.27,58c-.16,1.57-.43,3.71-.79,6.43s-.81,5.66-1.35,8.81-1.16,6.31-1.85,9.47-1.4,6-2.15,8.46a4.91,4.91,0,0,1-1.29.49,13.88,13.88,0,0,1-1.79.32,17.07,17.07,0,0,1-1.88.11,15.88,15.88,0,0,1-1.64-.07,12,12,0,0,1-4.87-1.45,4.61,4.61,0,0,1-2.12-3.85,55.9,55.9,0,0,1-.14-6.9q.12-4.48.37-9.68t.65-10.43q.4-5.23.82-9.12a19.66,19.66,0,0,1,4.85-1.3,21.38,21.38,0,0,1,5.23-.11,9.85,9.85,0,0,1,6.29,2.64C144,53.29,144.56,55.35,144.27,58Z"/><rect class="cls-4" x="43.69" y="64.64" width="76.41" height="58.79"/><rect class="cls-5" x="50.58" y="70.06" width="32.51" height="25.02"/><line class="cls-6" x1="61.62" y1="101.05" x2="76.76" y2="101.05"/><line class="cls-6" x1="50.58" y1="109.33" x2="76.76" y2="109.33"/><circle class="cls-3" cx="54.11" cy="101.05" r="3.53"/><line class="cls-6" x1="120.1" y1="94.04" x2="88.39" y2="94.04"/><line class="cls-6" x1="94.52" y1="99.77" x2="101.57" y2="99.77"/><line class="cls-6" x1="106" y1="99.77" x2="113.05" y2="99.77"/><line class="cls-6" x1="94.52" y1="105.83" x2="101.57" y2="105.83"/><line class="cls-6" x1="94.52" y1="111.89" x2="101.57" y2="111.89"/><line class="cls-6" x1="106" y1="105.83" x2="113.05" y2="105.83"/><line class="cls-7" x1="89.94" y1="77.31" x2="114.95" y2="77.31"/><line class="cls-7" x1="89.94" y1="85.59" x2="114.95" y2="85.59"/><rect class="cls-3" x="19.25" y="131.67" width="11.36" height="11.36" transform="translate(162.28 112.42) rotate(90)"/><rect class="cls-3" x="5.65" y="118.07" width="11.36" height="11.36"/><rect class="cls-3" x="5.65" y="131.67" width="11.36" height="11.36"/><circle class="cls-8" cx="106.59" cy="20.48" r="13.51"/><circle class="cls-8" cx="106.59" cy="17.63" r="5.52"/><path class="cls-8" d="M102.7,21.54s-4.21,2.76-4.21,9.74"/><path class="cls-8" d="M110.48,21.54s4.22,2.76,4.22,9.74"/><path class="cls-5" d="M38.16,42.47l-5-.9.9-5a2.22,2.22,0,1,0-4.37-.79l-.9,5-5-.9a2.23,2.23,0,0,0-.79,4.38l5,.89-.9,5a2.22,2.22,0,1,0,4.37.79l.9-5,5,.9a2.22,2.22,0,1,0,.79-4.37Z"/></svg>