<svg xmlns="http://www.w3.org/2000/svg" viewBox="0 0 421.97 223.48"><defs><style>.a{fill:#fff;}</style></defs><path class="a" d="M36.42,126.47a51.57,51.57,0,0,1-7,1.2,73.72,73.72,0,0,1-9.43.6,40.78,40.78,0,0,1-8.2-.71,14.71,14.71,0,0,1-6-2.56,10.9,10.9,0,0,1-3.63-5.08A24.47,24.47,0,0,1,1,111.38V15.5A9.09,9.09,0,0,1,3.31,8.88,16.46,16.46,0,0,1,9.67,5.11,77.87,77.87,0,0,1,25.39,1.58,137.81,137.81,0,0,1,43.09.45q27.94,0,42.73,12T100.6,45a49.3,49.3,0,0,1-3.14,18,37.55,37.55,0,0,1-9.32,13.85,41.69,41.69,0,0,1-15.61,9A68.35,68.35,0,0,1,50.76,89H36.42ZM47,61.1c5.68,0,10-1.31,13.06-4S64.6,50.42,64.6,45c0-5.16-1.57-9.14-4.75-11.93S52.07,28.89,46,28.89c-2.17,0-3.93,0-5.35.12a28.22,28.22,0,0,0-4.34.52V61.1Z" transform="translate(-0.28 -0.45)"/><path class="a" d="M214.39,81.69a51.86,51.86,0,0,1-3.74,20,41.87,41.87,0,0,1-10.86,15.47,48.41,48.41,0,0,1-17.21,9.86,70.83,70.83,0,0,1-22.86,3.46,70.89,70.89,0,0,1-22.87-3.46,49.19,49.19,0,0,1-17.21-9.86,43.11,43.11,0,0,1-10.85-15.47,51.67,51.67,0,0,1-3.74-20V3.91c1.5-.26,3.85-.64,7.07-1.13a62.56,62.56,0,0,1,9.32-.71,40.68,40.68,0,0,1,8.19.71,14.76,14.76,0,0,1,6,2.56,10.87,10.87,0,0,1,3.63,5.08,24.67,24.67,0,0,1,1.2,8.54V81.05q0,9.77,5.35,15.27a18.6,18.6,0,0,0,13.88,5.5c5.8,0,10.48-1.85,14-5.5s5.27-8.76,5.27-15.27V3.91q2.25-.39,7.08-1.13a62.43,62.43,0,0,1,9.31-.71,40.78,40.78,0,0,1,8.2.71,14.82,14.82,0,0,1,6,2.56,10.94,10.94,0,0,1,3.63,5.08A24.69,24.69,0,0,1,214.31,19V81.69Z" transform="translate(-0.28 -0.45)"/><path class="a" d="M218.65,19a27,27,0,0,1,2.85-5.68,23.55,23.55,0,0,1,4.56-5.19,24.48,24.48,0,0,1,6.36-3.88,20.71,20.71,0,0,1,8.09-1.51,18.24,18.24,0,0,1,10.32,2.94c3,2,6,5.34,9.09,10.08L275.72,40,299,5.34a22.83,22.83,0,0,1,4.57-1.54,25.5,25.5,0,0,1,5.8-.72c6.21,0,11.07,1.51,14.59,4.48a13.87,13.87,0,0,1,5.28,11,18.37,18.37,0,0,1-2.92,10.19c-1.95,3-4.64,6.59-8,10.8L297.46,65.21l33,47.45a20.25,20.25,0,0,1-7,11.89c-3.59,2.93-8.42,4.36-14.48,4.36A17.45,17.45,0,0,1,298.84,126c-2.84-2-5.72-5.35-8.72-10.09L273.73,89.81,248.21,128.5c-1.08.15-2.09.22-3,.3s-1.91.11-2.84.11c-7.71,0-13.36-1.58-17-4.66a14.74,14.74,0,0,1-5.46-11.59,19.75,19.75,0,0,1,2.54-10.28,86.44,86.44,0,0,1,7.19-10.27l21.25-27.47Z" transform="translate(-0.28 -0.45)"/><path class="a" d="M354.71,127.9q-8.7,0-13.77-5.08c-3.37-3.39-5.05-8-5.05-13.85V3.72c1.5-.26,3.85-.64,7.07-1.13a62.27,62.27,0,0,1,9.32-.71,40.68,40.68,0,0,1,8.19.71,14.76,14.76,0,0,1,6,2.56,10.92,10.92,0,0,1,3.63,5.08,24.71,24.71,0,0,1,1.2,8.54V99.18h46.36a26.77,26.77,0,0,1,2.62,6,25,25,0,0,1,1.2,7.82c0,5.42-1.16,9.26-3.45,11.52a12.36,12.36,0,0,1-9.09,3.35Z" transform="translate(-0.28 -0.45)"/><path class="a" d="M17.75,145.32a21.1,21.1,0,0,1,5.28-2,28.68,28.68,0,0,1,7.11-.94,25.11,25.11,0,0,1,9,1.5,7.85,7.85,0,0,1,5.05,4.67c1.24,3.58,2.55,7.71,4,12.42s2.84,9.59,4.3,14.64,2.85,10,4.19,14.9l3.59,13a8.12,8.12,0,0,1-3.66,2.29,17.87,17.87,0,0,1-5.84.87,18.56,18.56,0,0,1-4.15-.41A7,7,0,0,1,43.91,205a6,6,0,0,1-1.72-2.14A17.52,17.52,0,0,1,41,199.8l-1.84-7.07H20.63c-.56,2.07-1.08,4.18-1.64,6.36s-1.09,4.33-1.65,6.36a22.75,22.75,0,0,1-3,.86,17.89,17.89,0,0,1-3.82.38c-3.48,0-6.06-.6-7.71-1.81A5.45,5.45,0,0,1,.28,200a10.86,10.86,0,0,1,.41-2.86c.26-.94.56-2.11.93-3.39.49-1.84,1.13-4.13,2-6.88s1.79-5.72,2.8-8.88,2.1-6.47,3.26-9.82,2.24-6.51,3.25-9.52,1.95-5.65,2.81-8S17.27,146.56,17.75,145.32ZM30,158.56c-1,2.86-2,6.1-3.22,9.6s-2.29,7.11-3.22,10.72H36.27c-1-3.69-1.9-7.3-2.91-10.84s-1.91-6.69-2.7-9.52H30Z" transform="translate(-0.28 -0.45)"/><path class="a" d="M73.77,159.92l-10.22,3.2a15.43,15.43,0,0,1-3.07-2.86A7.94,7.94,0,0,1,59,155.1c0-4.1,2.47-7,7.45-8.62l11.45-3.91h3.78a9.55,9.55,0,0,1,7,2.56,9.42,9.42,0,0,1,2.54,7v53.54c-.75.15-1.87.34-3.33.57a30,30,0,0,1-4.45.37,25.71,25.71,0,0,1-4-.3,6.47,6.47,0,0,1-3-1.24,5.9,5.9,0,0,1-1.91-2.52,10.79,10.79,0,0,1-.68-4.18V159.92Z" transform="translate(-0.28 -0.45)"/><path class="a" d="M113.92,159.92l-10.22,3.2a15.4,15.4,0,0,1-3.06-2.86,7.94,7.94,0,0,1-1.54-5.16c0-4.1,2.47-7,7.45-8.62L118,142.57h3.78a8.81,8.81,0,0,1,9.5,9.56v53.54c-.75.15-1.87.34-3.33.57a29.91,29.91,0,0,1-4.45.37,25.71,25.71,0,0,1-4-.3,6.47,6.47,0,0,1-3-1.24,5.9,5.9,0,0,1-1.91-2.52,10.81,10.81,0,0,1-.67-4.18V159.92Z" transform="translate(-0.28 -0.45)"/><path class="a" d="M151.34,193c-.75-1.69-1.54-3.65-2.4-5.76s-1.72-4.55-2.65-7.3-1.87-5.87-2.85-9.4-2-7.6-3.1-12.19a13.1,13.1,0,0,1,9.09-3.62,10.5,10.5,0,0,1,5.91,1.51c1.57,1,2.73,2.86,3.48,5.61l8.08,28.25h.42c.82-2.33,1.61-4.85,2.39-7.6s1.53-5.57,2.28-8.46,1.46-5.84,2.1-8.73,1.2-5.76,1.68-8.58a16.77,16.77,0,0,1,8.08-2,10.62,10.62,0,0,1,5.92,1.54c1.57,1,2.36,2.83,2.36,5.35a33.1,33.1,0,0,1-.72,6.43c-.48,2.45-1.12,5-1.9,7.75s-1.73,5.57-2.77,8.47-2.17,5.76-3.33,8.58-2.36,5.46-3.6,8-2.43,4.74-3.59,6.73a69.75,69.75,0,0,1-5.31,8.2,28.6,28.6,0,0,1-4.72,5,13.39,13.39,0,0,1-4.49,2.49,16.25,16.25,0,0,1-4.71.67,9.72,9.72,0,0,1-7-2.56,10.92,10.92,0,0,1-3.18-6.69c2.17-1.73,4.34-3.62,6.55-5.72a67.7,67.7,0,0,0,5.91-6.44,9.54,9.54,0,0,1-3.74-2.41C154.33,198.9,152.87,196.49,151.34,193Z" transform="translate(-0.28 -0.45)"/><path class="a" d="M225.2,157.85H200.06a12.65,12.65,0,0,1-1.35-3.09,13.65,13.65,0,0,1-.6-4.1q0-4,1.8-5.76a6.35,6.35,0,0,1,4.64-1.73h38.13a12.18,12.18,0,0,1,4.49,9.86,11.81,11.81,0,0,1-1.16,5.08,22.9,22.9,0,0,1-3,4.78L219.78,191h26.15a11.13,11.13,0,0,1,1.31,3.08,13.65,13.65,0,0,1,.6,4.1q0,4-1.8,5.76a6.31,6.31,0,0,1-4.64,1.73H201.18a10.4,10.4,0,0,1-2.84-3.91,13.57,13.57,0,0,1-1.13-5.65,12,12,0,0,1,1.31-5.23A27.51,27.51,0,0,1,201.7,186Z" transform="translate(-0.28 -0.45)"/><path class="a" d="M306.44,180.76a30.91,30.91,0,0,1-1.95,11.37,23.6,23.6,0,0,1-5.46,8.39,23.32,23.32,0,0,1-8.42,5.15,32.22,32.22,0,0,1-10.93,1.73,30.55,30.55,0,0,1-10.92-1.84,24.25,24.25,0,0,1-8.42-5.31,22.91,22.91,0,0,1-5.46-8.39,29.75,29.75,0,0,1-1.95-11.1,29.41,29.41,0,0,1,1.95-11,23.77,23.77,0,0,1,5.46-8.4,24.37,24.37,0,0,1,8.42-5.3,30.55,30.55,0,0,1,10.92-1.84,29.71,29.71,0,0,1,10.93,1.91A24.94,24.94,0,0,1,299,161.5a23,23,0,0,1,5.46,8.39A29.08,29.08,0,0,1,306.44,180.76Zm-35.74,0c0,4.18.79,7.38,2.4,9.6a7.8,7.8,0,0,0,6.7,3.35,7.49,7.49,0,0,0,6.58-3.39c1.54-2.26,2.29-5.46,2.29-9.56s-.79-7.26-2.36-9.52a8.3,8.3,0,0,0-13.32,0C271.45,173.5,270.7,176.66,270.7,180.76Z" transform="translate(-0.28 -0.45)"/><path class="a" d="M346.4,174.1a5.73,5.73,0,0,0-1.79-4.66,7.46,7.46,0,0,0-4.87-1.51,16.48,16.48,0,0,0-4,.53,10,10,0,0,0-3.4,1.54v35.67a23.93,23.93,0,0,1-3.22.61,37.45,37.45,0,0,1-4.57.3,27.19,27.19,0,0,1-4-.3,6.48,6.48,0,0,1-3-1.25,5.92,5.92,0,0,1-1.91-2.52,10.75,10.75,0,0,1-.67-4.17V167.52A7.9,7.9,0,0,1,316,163a13,13,0,0,1,3.22-3.2,29.73,29.73,0,0,1,8.75-4,41.92,41.92,0,0,1,11.71-1.54q11.57,0,17.78,5.08c4.15,3.38,6.25,8.09,6.25,14.14v32.18a26.07,26.07,0,0,1-3.22.6,35.44,35.44,0,0,1-4.57.3,25.9,25.9,0,0,1-4-.3,6.56,6.56,0,0,1-3-1.24,6,6,0,0,1-1.91-2.52,11,11,0,0,1-.67-4.18V174.1Z" transform="translate(-0.28 -0.45)"/><path class="a" d="M400.77,207.4a35.79,35.79,0,0,1-11.19-1.69,25.22,25.22,0,0,1-9-5.08,23.74,23.74,0,0,1-6-8.54,30.54,30.54,0,0,1-2.21-12,28.45,28.45,0,0,1,2.21-11.67,23.67,23.67,0,0,1,5.76-8,22.92,22.92,0,0,1,8.16-4.63,30.78,30.78,0,0,1,9.39-1.5,28.52,28.52,0,0,1,9.88,1.65,23.87,23.87,0,0,1,7.67,4.52,20.32,20.32,0,0,1,5,6.88,21,21,0,0,1,1.8,8.73,7,7,0,0,1-1.95,5.35,9.67,9.67,0,0,1-5.42,2.37l-25.26,3.8a8.53,8.53,0,0,0,4.6,5.08,18,18,0,0,0,8,1.69,28.9,28.9,0,0,0,7.94-1.09,25,25,0,0,0,6.1-2.52,8.61,8.61,0,0,1,2.76,2.86,7.56,7.56,0,0,1-3.17,10.8,23.09,23.09,0,0,1-7.38,2.37A47.11,47.11,0,0,1,400.77,207.4ZM397.93,167a9.56,9.56,0,0,0-4.23.83,8.49,8.49,0,0,0-2.92,2.11,8.63,8.63,0,0,0-1.68,2.86,12.09,12.09,0,0,0-.68,3.23l17.48-2.86a7.79,7.79,0,0,0-2.25-4.1A7.64,7.64,0,0,0,397.93,167Z" transform="translate(-0.28 -0.45)"/></svg>