<svg id="Capa_1" data-name="Capa 1" xmlns="http://www.w3.org/2000/svg" xmlns:xlink="http://www.w3.org/1999/xlink" viewBox="0 0 454.1 456.9"><defs><style>.cls-1{fill:url(#Degradado_sin_nombre);}.cls-2{fill:#8e68a4;}</style><linearGradient id="Degradado_sin_nombre" x1="349.44" y1="728.51" x2="338.07" y2="442.02" gradientTransform="translate(0 -327.89)" gradientUnits="userSpaceOnUse"><stop offset="0" stop-color="#fff"/><stop offset="1" stop-color="#8e68a4"/></linearGradient></defs><path class="cls-1" d="M438.1,314.8c0,59.7-41,103.1-97.4,103.1-30.3,0-55.2-11.4-80.6-36.8l-3.8-3.8V81.7c1.1-1.2,2.2-2.4,3.3-3.7l9.7-10.8L279,78c21,23.4,40,43.7,56.9,61.5C401.8,209.7,438.1,248.3,438.1,314.8Z" transform="translate(-34.8 -21.8)"/><path d="M197.8,425.9c-29.5,0-56.4-11.2-75.7-31.7-19.2-20.3-29.7-48.5-29.7-79.5a166.56,166.56,0,0,1,1.2-20.3A152.81,152.81,0,0,1,98.5,270a8.08,8.08,0,0,1,9.9-5.5,7.94,7.94,0,0,1,5.4,9.9,129.52,129.52,0,0,0-4.4,21.8,157.25,157.25,0,0,0-1.1,18.5c0,55.1,37.6,95.1,89.4,95.1a96.58,96.58,0,0,0,30-4.7,8,8,0,0,1,5,15.2A106.37,106.37,0,0,1,197.8,425.9Zm144.4,44v-26a8,8,0,0,0-8-8h-44v-22a108.38,108.38,0,0,0,50.5,12c29.5,0,56.4-11.2,75.7-31.7,19.2-20.3,29.7-48.5,29.7-79.5,0-33.1-8.5-61-27.7-90.6-17.7-27.3-43.8-55.1-76.8-90.2-15.8-16.8-35.5-37.7-56.7-61.4l-9.7-10.8a8,8,0,0,0-6-2.7h0a8.2,8.2,0,0,0-6,2.7l-9.7,10.8c-20.9,23.3-39.9,43.5-56.6,61.3l-.1.1c-38.1,40.5-65.7,69.8-83.3,100.8a8,8,0,1,0,13.9,7.9c16.7-29.3,43.7-58,81-97.8l.1-.1c16.8-17.9,35.9-38.1,56.9-61.6l3.7-4.1,3.7,4.1c21.3,23.8,41.1,44.8,57,61.7C394.4,213.5,430,251.3,430,314.6c0,55.1-37.6,95.1-89.4,95.1a93.41,93.41,0,0,1-54-16.7,8,8,0,0,0-12.5,6.6v44a8,8,0,0,0,8,8h44v10H212.3v-10h44a8,8,0,0,0,8-8v-52a8,8,0,0,0-16,0v44h-44a8,8,0,0,0-8,8v26a8,8,0,0,0,8,8H334.2A7.59,7.59,0,0,0,342.2,469.9Z" transform="translate(-34.8 -21.8)"/><path class="cls-2" d="M467.1,98.7h21.8v56.9H467.1ZM356.9,21.9V43.7h56.9V21.9Zm75.1,0V43.7h35.1V80.6h21.8V21.8H432ZM34.8,396.9v81.8h81.8Z" transform="translate(-34.8 -21.8)"/><path d="M163.6,242.6a8,8,0,0,0-8-8h-78a8,8,0,0,0,0,16h78A8,8,0,0,0,163.6,242.6Zm-34.1,29.7a8,8,0,0,0-8-8h-78a8,8,0,0,0,0,16h78A8,8,0,0,0,129.5,272.3Z" transform="translate(-34.8 -21.8)"/></svg>