<svg id="Capa_1" data-name="Capa 1" xmlns="http://www.w3.org/2000/svg" xmlns:xlink="http://www.w3.org/1999/xlink" viewBox="0 0 484.9 479.4"><defs><style>.cls-1{fill:url(#Degradado_sin_nombre);}.cls-2{fill:#8e68a4;}</style><linearGradient id="Degradado_sin_nombre" x1="323.88" y1="768.35" x2="326" y2="418.81" gradientTransform="translate(0 -327.89)" gradientUnits="userSpaceOnUse"><stop offset="0" stop-color="#fff"/><stop offset="1" stop-color="#8e68a4"/></linearGradient></defs><path class="cls-1" d="M267.3,445.8l127.2-178a6.6,6.6,0,0,0,0-7.8L267.3,82a6.67,6.67,0,0,0-12.1,3.9v356A6.67,6.67,0,0,0,267.3,445.8Z" transform="translate(-13.5 -14.3)"/><path class="cls-2" d="M431.6,493.7l60.9-60.9v60.9ZM13.5,453.6v35.2H34V453.6Z" transform="translate(-13.5 -14.3)"/><path class="cls-2" d="M67.1,453.6v35.2H45.8V453.6Zm354-416.8h77.3V14.3H421.1V36.8Z" transform="translate(-13.5 -14.3)"/><path d="M255.2,470.7h0a7.92,7.92,0,0,1-6.5-3.3l-142-198.8a8,8,0,1,1,13.1-9.3L255.2,449,387.4,263.9,255.2,78.9,142.1,237.2a8,8,0,0,1-13.1-9.3L248.6,60.4a8,8,0,0,1,6.5-3.4,7.92,7.92,0,0,1,6.5,3.3l142,198.8a8,8,0,0,1,0,9.3l-142,198.8A7.44,7.44,0,0,1,255.2,470.7Z" transform="translate(-13.5 -14.3)"/></svg>