<svg id="Capa_1" data-name="Capa 1" xmlns="http://www.w3.org/2000/svg" xmlns:xlink="http://www.w3.org/1999/xlink" viewBox="0 0 410.3 412.3"><defs><style>.cls-1{fill:url(#Degradado_sin_nombre);}.cls-2{fill:#8e68a4;}</style><linearGradient id="Degradado_sin_nombre" x1="345.51" y1="711.23" x2="347.79" y2="395.21" gradientTransform="translate(0 -315.89)" gradientUnits="userSpaceOnUse"><stop offset="0" stop-color="#fff"/><stop offset="1" stop-color="#8e68a4"/></linearGradient></defs><path class="cls-1" d="M425.8,377.6a90,90,0,0,1-124.4,27c-17.8-11.5-30.8-25.1-39.6-41.7l-7.3-13.7a6.65,6.65,0,0,1-.9-3.4V80.1a7.19,7.19,0,0,1,6.6-7.2c2.2-.2,4.5-.3,6.8-.3a93.29,93.29,0,0,1,93.2,93.2,123.58,123.58,0,0,1-14.3,58.6h0a7.22,7.22,0,0,0,5.1,10.5c17.9,3.2,34,9.2,47.9,18.2a90.11,90.11,0,0,1,26.9,124.5Z" transform="translate(-37.3 -64.7)"/><path d="M185.5,424.2a97.3,97.3,0,0,1-52.7-179.1,137,137,0,0,1,49.3-19,131,131,0,0,1-14.7-60.9,100.5,100.5,0,0,1,201,0,8,8,0,0,1-16,0,84.5,84.5,0,0,0-169,0,114.9,114.9,0,0,0,13.3,54.4l4.8,9a8,8,0,0,1-6.2,11.7c-20.6,2.3-38.7,8.5-53.9,18.2A81.23,81.23,0,0,0,224.5,398a8,8,0,1,1,7.7,14.1A98.48,98.48,0,0,1,185.5,424.2ZM341.9,469V442.6a8,8,0,0,0-8-8H289.1V402.7c2.7,2.1,5.6,4.1,8.6,6A97.25,97.25,0,0,0,402.9,245.1a137,137,0,0,0-49.3-19,122.53,122.53,0,0,0,8.6-20.9,8,8,0,0,0-15.2-4.8,118.57,118.57,0,0,1-8,19.1l-4.8,9a8,8,0,0,0,6.2,11.7c20.6,2.3,38.7,8.5,53.9,18.2a81.37,81.37,0,0,1-88,136.9,116.35,116.35,0,0,1-19.6-15.7,7.83,7.83,0,0,0-8.7-1.7,8,8,0,0,0-4.9,7.4v57.4a8,8,0,0,0,8,8h44.8V461H209.8V450.6h44.8a8,8,0,0,0,8-8v-57a8,8,0,0,0-16,0v49H201.8a8,8,0,0,0-8,8V469a8,8,0,0,0,8,8H333.9A8,8,0,0,0,341.9,469Z" transform="translate(-37.3 -64.7)"/><path d="M375.3,210.8H301.5a8,8,0,0,1,0-16h73.8a8,8,0,0,1,0,16Zm39.5-44.7a8,8,0,0,0-8-8H343.7a8,8,0,0,0,0,16h63.1A8,8,0,0,0,414.8,166.1Z" transform="translate(-37.3 -64.7)"/><path class="cls-2" d="M37.3,119.6l57.8,57.8L37.3,235.2Z" transform="translate(-37.3 -64.7)"/></svg>