<svg id="Capa_2" data-name="Capa 2" xmlns="http://www.w3.org/2000/svg" xmlns:xlink="http://www.w3.org/1999/xlink" viewBox="0 0 150 150"><defs><style>.cls-1{fill:url(#Degradado_sin_nombre_3);}.cls-2{fill:url(#Degradado_sin_nombre_3-2);}.cls-3{fill:url(#Degradado_sin_nombre_3-3);}.cls-4{fill:none;stroke-width:3px;}.cls-4,.cls-5{stroke:#1d1d1b;stroke-linecap:round;stroke-linejoin:round;}.cls-5,.cls-6{fill:#1d1d1b;}.cls-5{stroke-width:2px;}</style><linearGradient id="Degradado_sin_nombre_3" x1="46.48" y1="64.25" x2="125.11" y2="64.25" gradientUnits="userSpaceOnUse"><stop offset="0" stop-color="#fff"/><stop offset="1" stop-color="#8e68a4"/></linearGradient><linearGradient id="Degradado_sin_nombre_3-2" x1="46.48" y1="86.54" x2="125.11" y2="86.54" xlink:href="#Degradado_sin_nombre_3"/><linearGradient id="Degradado_sin_nombre_3-3" x1="59.58" y1="75.39" x2="112" y2="75.39" xlink:href="#Degradado_sin_nombre_3"/></defs><polygon class="cls-1" points="98.9 58.72 72.69 58.72 46.48 58.72 46.48 69.78 72.69 69.78 98.9 69.78 125.11 69.78 125.11 58.72 98.9 58.72"/><polygon class="cls-2" points="72.69 81.01 46.48 81.01 46.48 92.06 72.69 92.06 98.9 92.06 125.11 92.06 125.11 81.01 98.9 81.01 72.69 81.01"/><polygon class="cls-3" points="112 80.92 112 69.86 85.79 69.86 59.58 69.86 59.58 80.92 85.79 80.92 112 80.92"/><path class="cls-4" d="M31.24,79.74V41.92a2.11,2.11,0,0,1,2.1-2.11h104.9a2.12,2.12,0,0,1,2.11,2.11v60a2.12,2.12,0,0,1-2.11,2.11H33.34a2.11,2.11,0,0,1-2.1-2.11V98"/><circle class="cls-5" cx="122.68" cy="44.73" r="1.28"/><circle class="cls-5" cx="128.72" cy="44.73" r="1.28"/><circle class="cls-5" cx="134.76" cy="44.73" r="1.28"/><line class="cls-4" x1="9.65" y1="95.72" x2="36.95" y2="95.72"/><line class="cls-4" x1="81.24" y1="110.19" x2="131.21" y2="110.19"/><line class="cls-4" x1="37.53" y1="50.16" x2="134.06" y2="50.16"/><rect class="cls-4" x="46.48" y="58.72" width="26.21" height="11.06"/><rect class="cls-4" x="72.69" y="58.72" width="26.21" height="11.06"/><rect class="cls-4" x="98.9" y="58.72" width="26.21" height="11.06"/><rect class="cls-4" x="46.48" y="81.01" width="26.21" height="11.06"/><rect class="cls-4" x="72.69" y="81.01" width="26.21" height="11.06"/><rect class="cls-4" x="98.9" y="81.01" width="26.21" height="11.06"/><rect class="cls-4" x="59.58" y="69.86" width="26.21" height="11.06"/><rect class="cls-4" x="85.79" y="69.86" width="26.21" height="11.06"/><path class="cls-6" d="M116.86,80.76l-10.08-7.57a.79.79,0,0,0-1.26.54L104,86.24a.8.8,0,0,0,1.1.83l3.82-1.63,4.31,10.11,4-1.68-4.31-10.12,3.82-1.63A.79.79,0,0,0,116.86,80.76Z"/></svg>