<svg id="Capa_2" data-name="Capa 2" xmlns="http://www.w3.org/2000/svg" xmlns:xlink="http://www.w3.org/1999/xlink" viewBox="0 0 150 150"><defs><style>.cls-1{fill:url(#Degradado_sin_nombre_4);}.cls-2{fill:url(#Degradado_sin_nombre_4-2);}.cls-3{fill:url(#Degradado_sin_nombre_4-3);}.cls-4{fill:url(#Degradado_sin_nombre_4-4);}.cls-5{fill:#171717;}.cls-6{fill:#8e68a4;}</style><linearGradient id="Degradado_sin_nombre_4" x1="54.98" y1="403.4" x2="54.98" y2="382.81" gradientTransform="translate(0 -327.89)" gradientUnits="userSpaceOnUse"><stop offset="0" stop-color="#fff"/><stop offset="1" stop-color="#8e68a4"/></linearGradient><linearGradient id="Degradado_sin_nombre_4-2" x1="57.19" y1="368.73" x2="43.69" y2="368.73" xlink:href="#Degradado_sin_nombre_4"/><linearGradient id="Degradado_sin_nombre_4-3" x1="117.26" y1="465.93" x2="117.26" y2="445.34" xlink:href="#Degradado_sin_nombre_4"/><linearGradient id="Degradado_sin_nombre_4-4" x1="119.45" y1="431.25" x2="105.95" y2="431.25" xlink:href="#Degradado_sin_nombre_4"/></defs><path class="cls-1" d="M66.08,67.57a32.5,32.5,0,0,1-14.89,7.91,7.76,7.76,0,0,1-7.32-7.75V62.32a6.7,6.7,0,0,1,4.71-6.38,16.31,16.31,0,0,0,1.83-.67s-.88,3.29,6.17,6.38C60.75,63.43,64,64.91,66.08,67.57Z"/><path class="cls-2" d="M43.85,25.64c.45-.27,12.51,1.4,12.51,1.4a70.09,70.09,0,0,1,0,17.92,13.53,13.53,0,0,1-8.1,10.8A3.09,3.09,0,0,1,43.85,53V26.88S43.39,25.88,43.85,25.64Z"/><path class="cls-3" d="M128.36,130.09A32.52,32.52,0,0,1,113.47,138a7.77,7.77,0,0,1-7.32-7.76v-5.4a6.68,6.68,0,0,1,4.71-6.38,18.68,18.68,0,0,0,1.83-.68s-.88,3.29,6.17,6.38C123,126,126.23,127.43,128.36,130.09Z"/><path class="cls-4" d="M106.1,88.16c.46-.27,12.51,1.4,12.51,1.4a70.19,70.19,0,0,1,0,17.93c-.72,6.05-4.79,9.2-8.1,10.79a3.09,3.09,0,0,1-4.41-2.8V89.4S105.64,88.4,106.1,88.16Z"/><path class="cls-5" d="M113.88,72.39l10.6-21.75a6.3,6.3,0,0,0,1.64.19,7.12,7.12,0,1,0-5.33-2.42L109.44,71.69a32.51,32.51,0,0,0-3.29-.16,34.45,34.45,0,0,0-22.25,8.1,2.1,2.1,0,0,0-.57-1L70.55,66a34.54,34.54,0,0,0,8.1-22.26A35,35,0,0,0,77,33.12L90.46,20.36h18.87a7.1,7.1,0,1,0,0-4.3H89.6a2.17,2.17,0,0,0-1.48.59L75.23,28.82A34.72,34.72,0,1,0,41.72,78.39V92.31a2.22,2.22,0,0,0,.46,1.34L46,98.52a6.94,6.94,0,0,0-.51,2.61,7.11,7.11,0,1,0,7.1-7.1,7,7,0,0,0-3.79,1.1L46,91.55V78.39a34.59,34.59,0,0,0,21.53-9.28L80.26,81.7a2,2,0,0,0,.84.51,34.67,34.67,0,0,0-6.95,37.55H27.64a7.15,7.15,0,1,0,0,4.33H76.33a34.73,34.73,0,1,0,37.55-51.7Zm12.24-31.46a2.8,2.8,0,1,1-2.8,2.8A2.81,2.81,0,0,1,126.12,40.93Zm-10-25.52a2.8,2.8,0,1,1-2.79,2.8A2.81,2.81,0,0,1,116.08,15.41ZM55.45,101.13a2.8,2.8,0,1,1-2.8-2.8A2.81,2.81,0,0,1,55.45,101.13Zm-11.58-27a30.35,30.35,0,0,1-19.46-7.06,16.48,16.48,0,0,1,6.3-3.44h0s.05,0,.08,0a.69.69,0,0,0,.13,0,0,0,0,0,0,0,0c4-1.94,6-3.77,7-5.19a15.66,15.66,0,0,0,4.65.7,15,15,0,0,0,4.74-.73c1.13,1.78,3.93,4.06,10.12,6.57A13.72,13.72,0,0,1,62.18,68,30.18,30.18,0,0,1,43.87,74.17ZM13.46,43.73a30.42,30.42,0,1,1,52,21.39,18,18,0,0,0-6.38-4.25c-5.41-2.18-7.27-3.88-7.89-4.6A18.59,18.59,0,0,0,57,48a11.37,11.37,0,0,0,.7-4.06V25.75A2.16,2.16,0,0,0,56.79,24a2.2,2.2,0,0,0-2-.24c-2,.75-4,.27-6.24-.32-3.15-.79-7.08-1.78-11.2,1.15a2.16,2.16,0,0,0,2.5,3.53c2.37-1.7,4.47-1.27,7.67-.49a18.82,18.82,0,0,0,5.93.81V44A7.76,7.76,0,0,1,53,46.58c-1.11,3.07-3.93,8.18-10.36,8.18-6,0-8.94-4.12-10.34-7.56a7.66,7.66,0,0,1-.54-2.83v-17A5.91,5.91,0,0,1,34.05,23a12.47,12.47,0,0,1,9.82-2.56,29.4,29.4,0,0,1,3.64.86c3,.86,6.19,1.75,10.33,0a2.16,2.16,0,1,0-1.67-4c-2.77,1.15-4.76.59-7.51-.19a29.55,29.55,0,0,0-4.17-1,16.9,16.9,0,0,0-13.27,3.55,10.18,10.18,0,0,0-3.76,7.67v17a12.22,12.22,0,0,0,.83,4.42,16.69,16.69,0,0,0,5.76,7.59,14,14,0,0,1-4.76,3.2,20.53,20.53,0,0,0-8,4.52A30.15,30.15,0,0,1,13.46,43.73Zm7.4,81a2.8,2.8,0,1,1,2.8-2.8A2.82,2.82,0,0,1,20.86,124.74Zm65.83,4.9a16.37,16.37,0,0,1,6.3-3.45h0s0,0,.11,0a.69.69,0,0,0,.13,0,0,0,0,0,0,0,0c4-1.93,6-3.76,6.94-5.19a15.45,15.45,0,0,0,4.66.7,15.07,15.07,0,0,0,4.74-.73c1.13,1.78,3.92,4.07,10.11,6.57a13.54,13.54,0,0,1,4.74,3.09,30.35,30.35,0,0,1-37.79-.88Zm41.05-2a18,18,0,0,0-6.38-4.25c-5.41-2.18-7.27-3.88-7.89-4.6a18.59,18.59,0,0,0,5.84-8.24,11.37,11.37,0,0,0,.7-4.06V88.3a2.16,2.16,0,0,0-2.93-2c-2,.75-4,.27-6.24-.33-3.15-.78-7.08-1.77-11.2,1.16a2.16,2.16,0,0,0,2.5,3.53c2.37-1.7,4.47-1.29,7.67-.49a19.1,19.1,0,0,0,5.92.81v15.58a7.75,7.75,0,0,1-.45,2.59c-1.11,3.07-3.93,8.18-10.36,8.18-6,0-8.94-4.12-10.34-7.56a7.66,7.66,0,0,1-.54-2.83v-17a5.89,5.89,0,0,1,2.29-4.41,12.47,12.47,0,0,1,9.82-2.56,29.4,29.4,0,0,1,3.64.86c3,.86,6.19,1.75,10.33,0a2.16,2.16,0,1,0-1.67-4c-2.77,1.16-4.76.6-7.51-.18a29.55,29.55,0,0,0-4.17-1A16.89,16.89,0,0,0,93.5,82.24a10.18,10.18,0,0,0-3.76,7.67v17a11.63,11.63,0,0,0,.86,4.41,16.79,16.79,0,0,0,5.73,7.59,14.13,14.13,0,0,1-4.76,3.21,20.53,20.53,0,0,0-8,4.52,30.42,30.42,0,1,1,44.14,1Z"/><path class="cls-6" d="M11.77,81.94H30.2V87.7H11.77Z"/></svg>