<svg id="Capa_2" data-name="Capa 2" xmlns="http://www.w3.org/2000/svg" xmlns:xlink="http://www.w3.org/1999/xlink" viewBox="0 0 392.92 413.81"><defs><style>.cls-1{fill:#fff;}.cls-2,.cls-3,.cls-4,.cls-5{fill:none;}.cls-2,.cls-3,.cls-5{stroke-linecap:round;stroke-linejoin:round;}.cls-2{stroke-width:20.1px;stroke:url(#Degradado_sin_nombre_32);}.cls-3{stroke-width:15.08px;stroke:url(#Degradado_sin_nombre_22);}.cls-4,.cls-5{stroke:#171717;stroke-width:7.54px;}.cls-4{stroke-miterlimit:10;}</style><linearGradient id="Degradado_sin_nombre_32" x1="75.32" y1="193.92" x2="156.06" y2="193.92" gradientUnits="userSpaceOnUse"><stop offset="0" stop-color="#fff"/><stop offset="1" stop-color="#8e68a4"/></linearGradient><linearGradient id="Degradado_sin_nombre_22" x1="167.92" y1="121.24" x2="280.09" y2="121.24" xlink:href="#Degradado_sin_nombre_32"/></defs><rect class="cls-1" x="136.44" y="106.01" width="10.95" height="27.14"/><rect class="cls-1" x="104.74" y="130.54" width="10.95" height="10.95"/><rect class="cls-1" x="72.05" y="112.21" width="10.95" height="10.95"/><rect class="cls-1" x="56.98" y="160.55" width="10.95" height="10.95"/><circle class="cls-2" cx="115.69" cy="193.92" r="30.32"/><path class="cls-3" d="M226.94,72.49C215,90.69,185.61,137.35,175.46,170h97.09l-12.07-22.64"/><path class="cls-4" d="M260.48,255.94a68.11,68.11,0,0,1-92.19-17.89"/><path class="cls-5" d="M174.44,326.43a18.84,18.84,0,0,0,16.32,28.26h66a18.84,18.84,0,0,0,16.32-28.26L257,298.57"/><path class="cls-5" d="M260.48,255.94l25.21,44.32a11.58,11.58,0,0,1-10,17.37H268"/><line class="cls-5" x1="146.01" y1="180.04" x2="325.9" y2="180.04"/><path class="cls-5" d="M247.28,101.22l34.89-33.33-27.61,8.77L223.78,59.12S169.59,138,162.67,180H289.3L239.18,86"/><path class="cls-5" d="M162.67,180c-16.66,58-7,96.26-7,96.26"/><line class="cls-5" x1="171.27" y1="241.92" x2="171.27" y2="297.32"/><line class="cls-5" x1="186.84" y1="256.3" x2="186.84" y2="302.92"/><line class="cls-5" x1="291.86" y1="180.04" x2="291.86" y2="276.3"/><line class="cls-5" x1="276.29" y1="180.04" x2="276.29" y2="283.72"/><line class="cls-5" x1="261.22" y1="180.04" x2="261.22" y2="234.5"/><line class="cls-5" x1="245.66" y1="180.04" x2="245.66" y2="204.22"/><circle class="cls-5" cx="115.69" cy="193.92" r="8.77"/><circle class="cls-5" cx="115.69" cy="193.92" r="21.78"/><line class="cls-5" x1="89.47" y1="234.5" x2="141.92" y2="234.5"/><line class="cls-5" x1="115.69" y1="226.32" x2="115.69" y2="350.12"/><line class="cls-5" x1="223.78" y1="212.14" x2="223.78" y2="228.17"/><path class="cls-5" d="M250.75,263.86a27,27,0,1,1-53.95,0"/><path class="cls-5" d="M215,180a59.35,59.35,0,0,1-59.34,59.35"/><path class="cls-5" d="M198.06,180a42.36,42.36,0,0,1-42.36,42.37"/></svg>