<svg id="Capa_2" data-name="Capa 2" xmlns="http://www.w3.org/2000/svg" xmlns:xlink="http://www.w3.org/1999/xlink" viewBox="0 0 150 150"><defs><style>.cls-1{fill:url(#Degradado_sin_nombre_3);}.cls-2,.cls-5{fill:none;stroke:#151515;stroke-width:3px;}.cls-2{stroke-linecap:round;stroke-linejoin:round;}.cls-3{fill:#8e68a4;}.cls-4{fill:#fff;}.cls-5{stroke-miterlimit:10;}</style><linearGradient id="Degradado_sin_nombre_3" x1="0.84" y1="136.37" x2="169.78" y2="39.32" gradientUnits="userSpaceOnUse"><stop offset="0" stop-color="#fff"/><stop offset="1" stop-color="#8e68a4"/></linearGradient></defs><path class="cls-1" d="M133.72,22.68a11.78,11.78,0,0,0-15.6,5.63C101.84,61.91,69,102.22,21,109.76c-32.27,5.06,12.18,11,50.87,14.8A65.73,65.73,0,0,0,140.21,81.3C148.72,57.42,152.38,31.62,133.72,22.68Z"/><circle class="cls-2" cx="76.33" cy="77.54" r="37.18"/><path class="cls-2" d="M76.33,114.72c-10.82,0-19.59-16.64-19.59-37.18s8.77-37.17,19.59-37.17"/><path class="cls-2" d="M76.33,114.72c10.82,0,19.58-16.64,19.58-37.18S87.15,40.37,76.33,40.37"/><path class="cls-2" d="M102.08,51.56c0,6.25-11.53,11.32-25.75,11.32S50.58,57.81,50.58,51.56"/><path class="cls-2" d="M102.08,103.53c0-6.25-11.53-11.32-25.75-11.32s-25.75,5.07-25.75,11.32"/><line class="cls-2" x1="39.42" y1="77.54" x2="113.51" y2="77.54"/><line class="cls-2" x1="76.33" y1="40.37" x2="76.33" y2="114.72"/><circle class="cls-3" cx="107.52" cy="46.44" r="14.5"/><path class="cls-4" d="M110,54.59h-2.51V42.81l-2.29,3.82L103,45.34l4.63-7.71a1.26,1.26,0,0,1,2.33.65Z"/><path class="cls-5" d="M38.57,113.21c0-.2,0-.4,0-.6a1.11,1.11,0,0,1,.18-.64l2.63-3.92a1.09,1.09,0,0,0,.05-1.14l-.76-1.35-.76-1.36a1.08,1.08,0,0,0-1-.55l-4.72.2a1.08,1.08,0,0,1-.65-.19,10.32,10.32,0,0,0-1-.6,1.19,1.19,0,0,1-.48-.49L30,98.33a1.09,1.09,0,0,0-1-.61l-1.55,0-1.55,0a1.09,1.09,0,0,0-1,.59l-2.18,4.18a1.08,1.08,0,0,1-.5.47c-.35.17-.69.37-1,.57a1.08,1.08,0,0,1-.66.18l-4.71-.32a1.07,1.07,0,0,0-1,.53l-.79,1.33-.79,1.33a1.09,1.09,0,0,0,0,1.14l2.53,4a1.12,1.12,0,0,1,.17.64c0,.2,0,.4,0,.6s0,.41,0,.61a1.06,1.06,0,0,1-.18.64l-2.63,3.92a1.07,1.07,0,0,0-.05,1.13l.76,1.36.76,1.35a1.09,1.09,0,0,0,1,.56l4.72-.2a1.13,1.13,0,0,1,.66.19,9.12,9.12,0,0,0,1,.6,1.06,1.06,0,0,1,.48.48l2.08,4.24a1.07,1.07,0,0,0,1,.61l1.55,0,1.55,0a1.08,1.08,0,0,0,1-.58l2.19-4.18a1.08,1.08,0,0,1,.49-.48,10.2,10.2,0,0,0,1-.57,1.07,1.07,0,0,1,.66-.17l4.71.32a1.09,1.09,0,0,0,1-.53l.79-1.33.79-1.34a1.07,1.07,0,0,0,0-1.13l-2.53-4a1.13,1.13,0,0,1-.17-.65Q38.57,113.51,38.57,113.21Z"/><circle class="cls-2" cx="27.26" cy="113.06" r="6.29"/><path class="cls-5" d="M28.42,84c0-.2,0-.4,0-.6a1,1,0,0,1,.19-.64l2.63-3.92a1.09,1.09,0,0,0,.05-1.14l-.76-1.35L29.76,75a1.07,1.07,0,0,0-1-.56l-4.72.2a1.11,1.11,0,0,1-.66-.19,10.18,10.18,0,0,0-1-.6,1.08,1.08,0,0,1-.48-.49l-2.08-4.24a1.08,1.08,0,0,0-1-.6l-1.55,0-1.55,0a1.07,1.07,0,0,0-1,.58L12.6,73.2a1.06,1.06,0,0,1-.49.47c-.35.18-.69.37-1,.58a1.19,1.19,0,0,1-.66.17L5.72,74.1a1.09,1.09,0,0,0-1,.53L3.92,76l-.8,1.33a1.09,1.09,0,0,0,0,1.14l2.53,4a1,1,0,0,1,.16.64c0,.2,0,.4,0,.61s0,.4,0,.6a1,1,0,0,1-.19.64L3,88.83A1.07,1.07,0,0,0,3,90l.75,1.36.76,1.35a1.1,1.1,0,0,0,1,.56l4.72-.2a1.09,1.09,0,0,1,.66.19,10.18,10.18,0,0,0,1,.6,1.08,1.08,0,0,1,.48.49l2.08,4.23a1.07,1.07,0,0,0,1,.61l1.55,0,1.56,0a1.08,1.08,0,0,0,1-.58l2.19-4.18a1.14,1.14,0,0,1,.49-.48,10.2,10.2,0,0,0,1-.57,1.11,1.11,0,0,1,.66-.17l4.72.32a1.08,1.08,0,0,0,1-.53l.8-1.33.79-1.34a1.07,1.07,0,0,0,0-1.13l-2.53-4a1.05,1.05,0,0,1-.16-.65C28.41,84.36,28.42,84.16,28.42,84Z"/><circle class="cls-2" cx="17.12" cy="83.81" r="6.29"/></svg>