<svg id="Capa_2" data-name="Capa 2" xmlns="http://www.w3.org/2000/svg" viewBox="0 0 150 150"><defs><style>.cls-1{fill:#1a1a1a;}.cls-2,.cls-4{fill:#8e68a4;}.cls-3{fill:none;stroke:#151515;stroke-miterlimit:10;stroke-width:3px;}.cls-3,.cls-4{stroke-linecap:round;}.cls-4{stroke:#8e68a4;stroke-linejoin:round;stroke-width:1.9px;}</style></defs><path class="cls-1" d="M28.92,84.51a5.41,5.41,0,0,0-2.56-.46,7.38,7.38,0,0,0-2,.26,4.52,4.52,0,0,0-1.66.81,3.9,3.9,0,0,0-1.12,1.41,4.79,4.79,0,0,0-.41,2.06v9.73a2.52,2.52,0,0,0,.15,1,1.3,1.3,0,0,0,.44.58,1.65,1.65,0,0,0,.69.28,5.18,5.18,0,0,0,.93.07,7.22,7.22,0,0,0,1-.07,5.82,5.82,0,0,0,.74-.14V92.54h2.7a1.31,1.31,0,0,0,1-.37A1.64,1.64,0,0,0,29.18,91a2.53,2.53,0,0,0-.13-.85,4.75,4.75,0,0,0-.27-.65H24.92v-.75a1.27,1.27,0,0,1,.57-1.19,3,3,0,0,1,1.57-.34,7.26,7.26,0,0,1,1.12.08c.32.06.63.12.93.2a1.62,1.62,0,0,0,.43-.56,1.72,1.72,0,0,0,.2-.85A1.62,1.62,0,0,0,28.92,84.51Z"/><path class="cls-1" d="M38.37,88.69a3.19,3.19,0,0,0-1.78-.43,9,9,0,0,0-1.37.1,10.73,10.73,0,0,0-2.5.73,4.48,4.48,0,0,0-.93.55,2.38,2.38,0,0,0-.58.7,2.06,2.06,0,0,0-.2.93v7a2.5,2.5,0,0,0,.16,1,1.29,1.29,0,0,0,.43.58,1.64,1.64,0,0,0,.7.28,5.14,5.14,0,0,0,.92.07,7.22,7.22,0,0,0,1.05-.07A5.48,5.48,0,0,0,35,100h0V92a4.6,4.6,0,0,1,.74-.24c.29-.07.6-.14.93-.2s.67-.11,1-.15.68,0,1,0a2.52,2.52,0,0,0,.24-.58,2.37,2.37,0,0,0,.09-.65A1.58,1.58,0,0,0,38.37,88.69Z"/><path class="cls-1" d="M49.41,89.28a5.18,5.18,0,0,0-1.78-.79,9.8,9.8,0,0,0-2.32-.26,13.67,13.67,0,0,0-1.75.12,7.2,7.2,0,0,0-1.61.38,2.31,2.31,0,0,0-.91.62,1.55,1.55,0,0,0-.29,1,2,2,0,0,0,.21.9,1.58,1.58,0,0,0,.52.65A8.36,8.36,0,0,1,43,91.41a7.67,7.67,0,0,1,1.74-.19,4.1,4.1,0,0,1,1.72.29,1,1,0,0,1,.6,1v.16L44,93a5.16,5.16,0,0,0-3,1.08,3.18,3.18,0,0,0-1,2.5,3.54,3.54,0,0,0,.39,1.69,3.19,3.19,0,0,0,1.11,1.2,5.2,5.2,0,0,0,1.71.7,9.71,9.71,0,0,0,2.25.24,8.4,8.4,0,0,0,4.3-.92,3.53,3.53,0,0,0,.81-.67,1.44,1.44,0,0,0,.34-1V92.54a4.25,4.25,0,0,0-.4-1.92A3.43,3.43,0,0,0,49.41,89.28ZM47.1,97.17a2.2,2.2,0,0,1-.72.22,4.79,4.79,0,0,1-.88.08,2,2,0,0,1-1.24-.29.94.94,0,0,1-.36-.76.76.76,0,0,1,.42-.71,2.51,2.51,0,0,1,1.08-.28l1.7-.14Z"/><path class="cls-1" d="M69.66,89.21a4.53,4.53,0,0,0-1.53-.74,6.48,6.48,0,0,0-1.75-.24,6.65,6.65,0,0,0-2.13.31,6.54,6.54,0,0,0-1.59.78,4.46,4.46,0,0,0-1.61-.82,6.75,6.75,0,0,0-1.89-.27,8.5,8.5,0,0,0-2.48.36,6.8,6.8,0,0,0-2,.91,3.15,3.15,0,0,0-.74.71,1.7,1.7,0,0,0-.27,1v7.1a2.52,2.52,0,0,0,.15,1,1.38,1.38,0,0,0,.44.58,1.65,1.65,0,0,0,.69.28,5.33,5.33,0,0,0,.93.07,7.22,7.22,0,0,0,1-.07,5.82,5.82,0,0,0,.74-.14V91.74a5.17,5.17,0,0,1,.52-.25,1.95,1.95,0,0,1,1.77.19,1.18,1.18,0,0,1,.44,1v5.62a2.52,2.52,0,0,0,.15,1,1.29,1.29,0,0,0,.43.58,1.64,1.64,0,0,0,.7.28,5.18,5.18,0,0,0,.93.07,7,7,0,0,0,1-.07,6.71,6.71,0,0,0,.76-.14V92a1.1,1.1,0,0,0,0-.18,2.13,2.13,0,0,1,.56-.32,1.93,1.93,0,0,1,.71-.15,1.71,1.71,0,0,1,1.08.32,1.21,1.21,0,0,1,.4,1v5.62a2.52,2.52,0,0,0,.15,1,1.3,1.3,0,0,0,.44.58,1.65,1.65,0,0,0,.69.28,5.18,5.18,0,0,0,.93.07,7.22,7.22,0,0,0,1-.07,5.82,5.82,0,0,0,.74-.14V92.58a4.77,4.77,0,0,0-.4-2A3.68,3.68,0,0,0,69.66,89.21Z"/><path class="cls-1" d="M83.27,89.64a5.56,5.56,0,0,0-1.76-1,6.59,6.59,0,0,0-2.27-.38,7.29,7.29,0,0,0-2.17.34,5.38,5.38,0,0,0-1.88,1.06,5.29,5.29,0,0,0-1.33,1.84,6.52,6.52,0,0,0-.5,2.67,7.07,7.07,0,0,0,.5,2.75,5.46,5.46,0,0,0,1.39,2A6,6,0,0,0,77.32,100a8.21,8.21,0,0,0,2.58.39,12.58,12.58,0,0,0,1.76-.14,5.5,5.5,0,0,0,1.69-.54,1.68,1.68,0,0,0,1-1.58,1.7,1.7,0,0,0-.26-.89,2,2,0,0,0-.63-.66,6,6,0,0,1-1.4.58,6.78,6.78,0,0,1-1.82.24A4.29,4.29,0,0,1,78.39,97a2,2,0,0,1-1.06-1.17L83.14,95a2.29,2.29,0,0,0,1.25-.54,1.63,1.63,0,0,0,.44-1.22,4.74,4.74,0,0,0-.41-2A4.63,4.63,0,0,0,83.27,89.64Zm-6.22,3.58a3.14,3.14,0,0,1,.15-.74,2.09,2.09,0,0,1,.39-.66,1.86,1.86,0,0,1,.67-.48,2.29,2.29,0,0,1,1-.19,1.72,1.72,0,0,1,1.31.47,1.79,1.79,0,0,1,.52.94Z"/><path class="cls-1" d="M103.29,88.7a2.47,2.47,0,0,0-1.36-.35,3.73,3.73,0,0,0-.94.12,3.35,3.35,0,0,0-.9.37c-.14,1.35-.29,2.68-.46,4s-.33,2.55-.5,3.76H99c-.05-.25-.12-.59-.23-1l-.38-1.48c-.14-.56-.3-1.16-.47-1.81s-.35-1.32-.54-2a1.24,1.24,0,0,0-.75-.8,3.41,3.41,0,0,0-1.41-.26,3.69,3.69,0,0,0-1.14.14,4.66,4.66,0,0,0-.93.4c-.18.7-.35,1.41-.52,2.13s-.34,1.37-.49,2-.3,1.16-.42,1.64-.2.84-.24,1.09h-.1c0-.16-.06-.36-.1-.62s-.1-.64-.17-1.13l-.27-1.91c-.11-.77-.24-1.76-.4-3a1.7,1.7,0,0,0-.64-1.25,2.32,2.32,0,0,0-1.36-.37,3.1,3.1,0,0,0-2.09.82c.11.77.26,1.66.46,2.66s.4,2,.62,3,.45,1.87.67,2.68a13.91,13.91,0,0,0,.6,1.79,1.66,1.66,0,0,0,.94.77,4.91,4.91,0,0,0,1.67.27,4.39,4.39,0,0,0,1.34-.18,2.53,2.53,0,0,0,.9-.46c.07-.28.18-.65.33-1.12s.29-1,.45-1.52.33-1.13.49-1.72.29-1.16.4-1.71c.09.52.21,1.06.35,1.62s.29,1.09.45,1.61.3,1,.44,1.42.26.79.36,1.07c.23.66,1,1,2.32,1a5.67,5.67,0,0,0,1.46-.18,2.51,2.51,0,0,0,1-.46q.16-.42.39-1.2c.15-.52.31-1.1.47-1.74s.33-1.31.49-2,.31-1.34.44-2,.23-1.19.3-1.7a7.77,7.77,0,0,0,.12-1.12A1.37,1.37,0,0,0,103.29,88.7Z"/><path class="cls-1" d="M116.05,89.89a5.77,5.77,0,0,0-1.94-1.22,7.52,7.52,0,0,0-5,0,5.54,5.54,0,0,0-1.94,1.21,5.24,5.24,0,0,0-1.25,1.91,7.34,7.34,0,0,0,0,5.06,5.37,5.37,0,0,0,1.25,1.92,5.84,5.84,0,0,0,1.94,1.21,7.24,7.24,0,0,0,2.52.42,7.44,7.44,0,0,0,2.52-.4,5.38,5.38,0,0,0,1.94-1.18,5.08,5.08,0,0,0,1.25-1.91,7.05,7.05,0,0,0,.45-2.6,6.65,6.65,0,0,0-.45-2.49A5.37,5.37,0,0,0,116.05,89.89Zm-2.92,6.6a1.74,1.74,0,0,1-1.52.77,1.8,1.8,0,0,1-1.54-.76,4.67,4.67,0,0,1,0-4.38,1.92,1.92,0,0,1,3.06,0,3.75,3.75,0,0,1,.54,2.18A3.89,3.89,0,0,1,113.13,96.49Z"/><path class="cls-1" d="M127.34,88.69a3.19,3.19,0,0,0-1.78-.43,9,9,0,0,0-1.37.1,10.73,10.73,0,0,0-2.5.73,4.48,4.48,0,0,0-.93.55,2.38,2.38,0,0,0-.58.7,2.06,2.06,0,0,0-.2.93v7a2.32,2.32,0,0,0,.16,1,1.29,1.29,0,0,0,.43.58,1.64,1.64,0,0,0,.7.28,5.14,5.14,0,0,0,.92.07,7.22,7.22,0,0,0,1-.07A5.48,5.48,0,0,0,124,100h0V92a4.3,4.3,0,0,1,.74-.24c.29-.07.6-.14.93-.2s.67-.11,1-.15.68,0,1,0a2.52,2.52,0,0,0,.24-.58,2.37,2.37,0,0,0,.09-.65A1.58,1.58,0,0,0,127.34,88.69Z"/><path class="cls-1" d="M137.34,94.18,138.7,93c.34-.3.65-.56.9-.79a5.52,5.52,0,0,0,.64-.65,2.12,2.12,0,0,0,.36-.6,1.67,1.67,0,0,0-.62-2,3.25,3.25,0,0,0-2-.54L134,92.56V86.35a2.52,2.52,0,0,0-.15-.95,1.5,1.5,0,0,0-.43-.58,1.64,1.64,0,0,0-.7-.28,6.3,6.3,0,0,0-.93-.07,7,7,0,0,0-1,.08,7.76,7.76,0,0,0-.76.16V98.32a2.52,2.52,0,0,0,.15,1,1.36,1.36,0,0,0,.43.58,1.64,1.64,0,0,0,.7.28,5.18,5.18,0,0,0,.93.07,7,7,0,0,0,1-.08L134,100V95.71l2.33,2.92a5.29,5.29,0,0,0,1.27,1.23,2.52,2.52,0,0,0,1.34.37,2,2,0,0,0,1.54-.59,3,3,0,0,0,.65-1.7Z"/><path class="cls-1" d="M22.53,79.51a4.31,4.31,0,0,0,1.7.72,12.37,12.37,0,0,0,2.34.2,22.17,22.17,0,0,0,2.68-.17,16.12,16.12,0,0,0,2-.35V69.28h4.1a19.84,19.84,0,0,0,6.21-.89A12,12,0,0,0,46,65.85a10.62,10.62,0,0,0,2.66-3.93,13.84,13.84,0,0,0,.9-5.11,11.25,11.25,0,0,0-4.22-9.24q-4.22-3.42-12.19-3.41a40.52,40.52,0,0,0-5,.32,21.62,21.62,0,0,0-4.48,1,4.72,4.72,0,0,0-1.82,1.07,2.52,2.52,0,0,0-.66,1.87V75.64a6.77,6.77,0,0,0,.35,2.42A3.07,3.07,0,0,0,22.53,79.51Zm8.66-27.09a9.11,9.11,0,0,1,1.24-.15q.6,0,1.53,0a5.87,5.87,0,0,1,4,1.19,4.25,4.25,0,0,1,1.35,3.38A4.31,4.31,0,0,1,38,60.24a5.54,5.54,0,0,1-3.73,1.13H31.19Z"/><path class="cls-1" d="M81,72.43A14.71,14.71,0,0,0,82,66.74V49a7,7,0,0,0-.34-2.42,3.14,3.14,0,0,0-1-1.45,4.29,4.29,0,0,0-1.71-.72,12.37,12.37,0,0,0-2.34-.2,19.06,19.06,0,0,0-2.65.2c-.93.14-1.6.24-2,.32V66.57A6,6,0,0,1,70.4,70.9a5.83,5.83,0,0,1-7.94,0,5.91,5.91,0,0,1-1.53-4.33V49a7,7,0,0,0-.34-2.42,3.14,3.14,0,0,0-1-1.45,4.36,4.36,0,0,0-1.71-.72,12.37,12.37,0,0,0-2.34-.2,19.06,19.06,0,0,0-2.65.2c-.93.14-1.6.24-2,.32V66.74a14.71,14.71,0,0,0,1.06,5.69A12.24,12.24,0,0,0,55,76.82a14,14,0,0,0,4.91,2.8,22.25,22.25,0,0,0,13.06,0,14,14,0,0,0,4.91-2.8A12.24,12.24,0,0,0,81,72.43Z"/><path class="cls-1" d="M90.79,79.94l.87-.09,7.28-11,4.67,7.39a9.76,9.76,0,0,0,2.49,2.86A5,5,0,0,0,109,80a6.38,6.38,0,0,0,4.12-1.24,5.81,5.81,0,0,0,2-3.38l-9.42-13.46,6-7.28q1.44-1.78,2.28-3.06a5.13,5.13,0,0,0,.84-2.89,4,4,0,0,0-1.5-3.12,6.28,6.28,0,0,0-4.16-1.27,6.65,6.65,0,0,0-1.64.21,6.12,6.12,0,0,0-1.3.43l-6.65,9.82L95,47.86A9.75,9.75,0,0,0,92.41,45a5.23,5.23,0,0,0-3-.84,6,6,0,0,0-2.31.43,7,7,0,0,0-1.82,1.1A6.67,6.67,0,0,0,84,47.16a8.11,8.11,0,0,0-.8,1.62l9.18,12.94-6.07,7.79a27.58,27.58,0,0,0-2,2.92,5.72,5.72,0,0,0-.72,2.92,4.16,4.16,0,0,0,1.56,3.29A7.41,7.41,0,0,0,90,80Q90.39,80,90.79,79.94Z"/><path class="cls-1" d="M122,79.85h15.48a3.62,3.62,0,0,0,2.6-.95,4.46,4.46,0,0,0,1-3.26,7.22,7.22,0,0,0-.35-2.23,7.44,7.44,0,0,0-.75-1.7H126.77V48.89a7.07,7.07,0,0,0-.34-2.42,3.06,3.06,0,0,0-1-1.44,4.17,4.17,0,0,0-1.71-.73,12.37,12.37,0,0,0-2.34-.2,19.06,19.06,0,0,0-2.65.2c-.93.14-1.6.24-2,.32V74.48A5,5,0,0,0,122,79.85Z"/><path class="cls-2" d="M63.43,115a1.59,1.59,0,0,0-.56-.36,2.46,2.46,0,0,0-2.35.43,2.38,2.38,0,0,0-.74,1.58l4.14-.68a1.67,1.67,0,0,0-.15-.5A1.71,1.71,0,0,0,63.43,115Z"/><path class="cls-2" d="M38.27,114.76a3.24,3.24,0,0,0-.85.11,3.52,3.52,0,0,0-.66.25v5.36a3.25,3.25,0,0,0,.64.24,2.43,2.43,0,0,0,.73.1A2.28,2.28,0,0,0,40,120a3.55,3.55,0,0,0,.64-2.31,3.51,3.51,0,0,0-.59-2.27A2.19,2.19,0,0,0,38.27,114.76Z"/><path class="cls-2" d="M21.12,103.78V130.9h120V103.78Zm23.29,16.69a5.49,5.49,0,0,1-1.29,2,5.37,5.37,0,0,1-1.94,1.22,6.76,6.76,0,0,1-2.42.42,5.85,5.85,0,0,1-1.07-.09,5.37,5.37,0,0,1-.9-.23v4.28a7,7,0,0,1-.77.15,7.26,7.26,0,0,1-1.08.07,3,3,0,0,1-1.76-.4,1.85,1.85,0,0,1-.53-1.54V114.47a2,2,0,0,1,.28-1.1,2.47,2.47,0,0,1,.76-.75,6.75,6.75,0,0,1,1.94-.8,10.76,10.76,0,0,1,2.64-.3,9.39,9.39,0,0,1,2.68.36,5.75,5.75,0,0,1,2.1,1.13,5,5,0,0,1,1.35,1.92,7.56,7.56,0,0,1,.47,2.8A7.46,7.46,0,0,1,44.41,120.47Zm10.74-6.24a2.81,2.81,0,0,1-.29.65,7.38,7.38,0,0,0-1.34-.1,6,6,0,0,0-1.31.15,4.13,4.13,0,0,0-1.18.44v8.33c-.18,0-.43.09-.76.14a7.49,7.49,0,0,1-1.09.07,3,3,0,0,1-1.75-.4,1.81,1.81,0,0,1-.54-1.54v-7.24a2.06,2.06,0,0,1,.37-1.23,3.29,3.29,0,0,1,1-.91,6.94,6.94,0,0,1,2-.78,10.27,10.27,0,0,1,2.38-.27c1.77,0,2.65.63,2.65,1.88A2.64,2.64,0,0,1,55.15,114.23ZM67.35,118a2.33,2.33,0,0,1-1.29.56l-6.07.92a2.09,2.09,0,0,0,1.15,1.23,4.35,4.35,0,0,0,1.8.36,7.34,7.34,0,0,0,2-.26,5.66,5.66,0,0,0,1.48-.6,2.08,2.08,0,0,1,.66.69,1.72,1.72,0,0,1,.27.92,1.63,1.63,0,0,1-.34,1,2.71,2.71,0,0,1-1,.73,5.75,5.75,0,0,1-1.48.43,13.28,13.28,0,0,1-1.87.13,8.49,8.49,0,0,1-2.67-.4,5.89,5.89,0,0,1-2.13-1.21,5.48,5.48,0,0,1-1.41-2,7.33,7.33,0,0,1-.51-2.85,6.63,6.63,0,0,1,.52-2.76,5.33,5.33,0,0,1,1.39-1.9,5.67,5.67,0,0,1,2-1.1,7.43,7.43,0,0,1,2.24-.35,6.78,6.78,0,0,1,2.35.39A5.81,5.81,0,0,1,66.22,113a4.77,4.77,0,0,1,1.18,1.63,5.27,5.27,0,0,1,.41,2.07A1.66,1.66,0,0,1,67.35,118Zm20.53,5.75c-.18,0-.44.09-.77.14a7.26,7.26,0,0,1-1.08.07,3,3,0,0,1-1.76-.4,1.84,1.84,0,0,1-.53-1.54v-5.82a1.31,1.31,0,0,0-.39-1.06,1.53,1.53,0,0,0-1-.33,2.4,2.4,0,0,0-.8.14,3,3,0,0,0-.64.35,1.09,1.09,0,0,0,0,.18.92.92,0,0,1,0,.16v8.11c-.18,0-.43.09-.76.14a7.49,7.49,0,0,1-1.09.07,3,3,0,0,1-1.75-.4,1.81,1.81,0,0,1-.54-1.54v-5.82a1.26,1.26,0,0,0-.42-1.06,1.66,1.66,0,0,0-1-.33,2.17,2.17,0,0,0-.8.13,4.37,4.37,0,0,0-.56.26v8.55c-.18,0-.44.09-.77.14a7.26,7.26,0,0,1-1.08.07,3,3,0,0,1-1.76-.4,1.84,1.84,0,0,1-.53-1.54v-7.33a1.83,1.83,0,0,1,.28-1.07,2.79,2.79,0,0,1,.77-.76,6.89,6.89,0,0,1,2-.94,9.4,9.4,0,0,1,2.58-.35,6.63,6.63,0,0,1,1.91.27,5.81,5.81,0,0,1,1.72.83,8,8,0,0,1,1.64-.78,7.39,7.39,0,0,1,4-.08,4.8,4.8,0,0,1,1.59.77,3.64,3.64,0,0,1,1.1,1.39,4.76,4.76,0,0,1,.42,2.1Zm6.79,0c-.18,0-.43.09-.77.14a7.26,7.26,0,0,1-1.08.07,2.93,2.93,0,0,1-1.75-.4,1.81,1.81,0,0,1-.54-1.54v-9.91a7,7,0,0,1,.77-.15,7.26,7.26,0,0,1,1.08-.07,3,3,0,0,1,1.76.4,1.85,1.85,0,0,1,.53,1.54Zm-.42-13.54a2.23,2.23,0,0,1-1.65.63,2.19,2.19,0,0,1-1.64-.63,2.14,2.14,0,0,1-.62-1.56A2.11,2.11,0,0,1,91,107a2.19,2.19,0,0,1,1.64-.63,2.23,2.23,0,0,1,1.65.63,2.15,2.15,0,0,1,.62,1.56A2.18,2.18,0,0,1,94.25,110.16Zm14.69,11a2,2,0,0,1-1,1.82,6.79,6.79,0,0,1-2,.82,11,11,0,0,1-2.57.28,9.75,9.75,0,0,1-2.43-.29,5.63,5.63,0,0,1-1.91-.9,4.09,4.09,0,0,1-1.24-1.57A5.66,5.66,0,0,1,97.3,119v-7.09a7.46,7.46,0,0,1,.77-.14,7.2,7.2,0,0,1,1.08-.08,3,3,0,0,1,1.76.41,1.84,1.84,0,0,1,.53,1.54V119a1.77,1.77,0,0,0,.49,1.42,2,2,0,0,0,1.41.43,3.27,3.27,0,0,0,.91-.1,3.09,3.09,0,0,0,.55-.19v-8.65a7.46,7.46,0,0,1,.77-.14,7.2,7.2,0,0,1,1.08-.08,3,3,0,0,1,1.76.41,1.84,1.84,0,0,1,.53,1.54Zm20.6,2.51c-.18,0-.43.09-.76.14a7.49,7.49,0,0,1-1.09.07,3,3,0,0,1-1.75-.4,1.81,1.81,0,0,1-.54-1.54v-5.82a1.31,1.31,0,0,0-.39-1.06,1.53,1.53,0,0,0-1-.33,2.3,2.3,0,0,0-.79.14,3.05,3.05,0,0,0-.65.35,1.1,1.1,0,0,0,0,.18c0,.06,0,.11,0,.16v8.11c-.18,0-.44.09-.77.14a7.26,7.26,0,0,1-1.08.07,3,3,0,0,1-1.76-.4,1.84,1.84,0,0,1-.53-1.54v-5.82a1.24,1.24,0,0,0-.43-1.06,1.63,1.63,0,0,0-1-.33,2.22,2.22,0,0,0-.81.13c-.22.09-.41.18-.56.26v8.55c-.18,0-.43.09-.76.14a7.49,7.49,0,0,1-1.09.07,3,3,0,0,1-1.75-.4,1.81,1.81,0,0,1-.54-1.54v-7.33a1.91,1.91,0,0,1,.28-1.07,3.09,3.09,0,0,1,.77-.76,6.83,6.83,0,0,1,2-.94,9.4,9.4,0,0,1,2.58-.35,6.73,6.73,0,0,1,1.91.27,5.81,5.81,0,0,1,1.72.83,7.54,7.54,0,0,1,1.64-.78,6.77,6.77,0,0,1,2.2-.32,6.94,6.94,0,0,1,1.82.24,4.75,4.75,0,0,1,1.58.77,3.76,3.76,0,0,1,1.11,1.39,4.77,4.77,0,0,1,.41,2.1Z"/><line class="cls-3" x1="143.07" y1="108.88" x2="145.74" y2="106.32"/><line class="cls-3" x1="136.41" y1="115.25" x2="139.07" y2="112.7"/><line class="cls-3" x1="142.99" y1="112.79" x2="145.54" y2="115.46"/><line class="cls-3" x1="136.61" y1="106.12" x2="139.16" y2="108.79"/><line class="cls-3" x1="10.67" y1="22.79" x2="10.61" y2="19.1"/><line class="cls-3" x1="10.82" y1="32.01" x2="10.76" y2="28.32"/><line class="cls-3" x1="13.48" y1="25.51" x2="17.17" y2="25.46"/><line class="cls-3" x1="4.26" y1="25.66" x2="7.95" y2="25.6"/><circle class="cls-4" cx="7.58" cy="98.9" r="1.32"/><circle class="cls-4" cx="12.04" cy="105.14" r="1.32"/><circle class="cls-4" cx="7" cy="110.14" r="1.32"/></svg>