<?xml version="1.0" encoding="utf-8"?>
<!-- Generator: Adobe Illustrator 24.3.0, SVG Export Plug-In . SVG Version: 6.00 Build 0)  -->
<svg version="1.1" id="Capa_2_1_" xmlns="http://www.w3.org/2000/svg" xmlns:xlink="http://www.w3.org/1999/xlink" x="0px" y="0px"
	 viewBox="0 0 227.4 246" style="enable-background:new 0 0 227.4 246;" xml:space="preserve">
<style type="text/css">
	.st0{fill:#8E68A4;}
	.st1{fill:#F7F7F7;}
	.st2{fill:#171717;}
</style>
<g id="layer1">
	<g id="g4207">
		<path id="path4165" class="st0" d="M74.2,130.7c-9-26.8-16.4-49.2-16.4-49.8s2.3-1.3,5.5-1.6c6.4-0.5,9.4-2.7,7.3-5.2
			c-1.2-1.4-3.2-1.5-17.3-0.9c-8.8,0.4-16,0.4-16,0c0-1.7,6.3-9.5,12.9-15.9c17-16.6,39.8-25.9,63.5-25.8c10.9,0,19,1.4,30.2,5.1
			c9.1,3,23.4,11,28.8,16.2l2.7,2.6l-4.3,1.2c-5.5,1.6-9.8,6-11.3,11.5c-1.4,5.6,0.3,11.2,6.8,22.1c11.5,19.3,11.5,27,0.6,63.1
			c-4.1,13.4-7.6,24.6-7.9,24.9s-0.7-0.1-1-0.9c-1.5-4.1-32.9-97.2-32.9-97.5s1.9-0.4,4.2-0.5c6.8-0.2,9.1-1.1,9.1-3.9v-2.4H112
			c-20.9,0-26.8,0.2-27.2,1.2c-1,2.6,0.7,4.1,5.2,4.7l6,0.8c0.8,0.1,4.2,7.8,8.6,19.7l7.2,19.5l-10,30.2
			c-5.5,16.6-10.3,30.2-10.6,30.2S83.3,157.6,74.2,130.7L74.2,130.7z M158.7,201.7c0-0.1,6.7-19.4,14.9-42.9
			c18.4-52.6,19.6-57.1,19.6-70.5c0-8.9,0.2-10,1.4-8.4c2.3,3.2,7,16.3,8.6,24.2c1.8,8.6,2.1,26.1,0.5,34.6
			c-3.4,19.1-13.6,38-27.5,50.9C168.8,196.7,158.7,203.5,158.7,201.7L158.7,201.7z M64.7,200.2c-21.6-13.8-36.5-36.1-41.1-61.4
			c-1.6-9.1-1.2-25.4,0.8-35.4c1.8-8.6,5.5-18.8,6.5-17.8c0.4,0.4,43.6,118.3,43.6,119.1C74.5,205.9,71,204.3,64.7,200.2L64.7,200.2
			z M101.5,213.6c-10.1-1.3-14.5-2.7-13.9-4.3c0.3-0.8,6.3-18.3,13.4-38.9s13.2-38.2,13.7-39c0.6-1.1,1-0.8,1.9,1.5
			c4.3,11.5,27.3,75.2,27.3,75.9c0,2-22.4,6.2-31.8,5.9C110.1,214.6,105.2,214.1,101.5,213.6L101.5,213.6z M130.9,222
			c51.1-8.9,88.6-58.1,82.9-108.7c-2.9-25.4-12-44.1-30.4-62.2c-19.3-18.9-42.8-28.5-69.7-28.5C95.3,22.5,77.3,27.5,61.5,37
			c-10.1,6-25.3,20.8-31.6,30.6c-23.7,36.9-22.2,81.2,4,116.1C56.5,213.5,93.9,228.3,130.9,222L130.9,222z M94.8,227.9
			c-58-10.7-96.3-66.4-85.7-124.4c3.7-20.3,13.3-39.1,27.5-54.1c15.1-16,34.8-26.8,56.4-31c10.5-2,30.7-2,41.2,0
			C173,25.7,205,55.1,216,93.4c14.5,50.7-9.7,103.8-57.8,126.3c-13.3,6.2-24.9,8.8-41.6,9.2C106.8,229.3,100.1,228.9,94.8,227.9
			L94.8,227.9z"/>
	</g>
</g>
<circle class="st1" cx="113.7" cy="81.9" r="13.3"/>
<path class="st2" d="M113.7,72.3c5.3,0,9.6,4.3,9.6,9.6s-4.3,9.6-9.6,9.6s-9.6-4.3-9.6-9.6c0,0,0,0,0,0
	C104.1,76.6,108.4,72.3,113.7,72.3C113.7,72.3,113.7,72.3,113.7,72.3 M113.7,64.8c-9.4,0-17.1,7.7-17.1,17.1S104.2,99,113.7,99
	s17.1-7.7,17.1-17.1C130.8,72.5,123.1,64.8,113.7,64.8z"/>
<path class="st1" d="M101.7,177.4c-0.7,0-1.4-0.1-2.1-0.3c-3.8-1.1-6.1-4.9-5.5-8.7l0.9-5.8c2.4-14.9,3.4-29.9,3.2-45L71.1,116
	c-3.2-0.2-6-2.4-7-5.5c-1-3.3,0.3-6.9,3.5-9.3c0.7-0.5,1.5-0.8,2.3-0.8H70l32.5,1.8c0.3,0,0.6,0.1,0.8,0.1l10.2,0.4l10.2-0.4
	c0.3,0,0.6-0.1,0.8-0.1l32.5-1.8h0.2c0.8,0,1.6,0.3,2.3,0.8c3.2,2.4,4.5,6,3.5,9.3c-1,3.1-3.8,5.3-7,5.5l-27.2,1.5
	c-0.2,15.1,0.9,30.1,3.2,45l0.9,5.9c0.6,4.2-2.2,8.1-6.3,8.8c-0.4,0.1-0.9,0.1-1.3,0.1c-3.8,0-7.1-2.8-7.7-6.6l-4.3-27.3l-4.3,27.4
	C108.7,174.6,105.5,177.4,101.7,177.4z"/>
<path class="st2" d="M157.5,104.3c4.2,3.2,2,7.8-1.4,8l-30.7,1.7l0,0c-0.4,16.5,0.7,32.9,3.2,49.2l0.9,5.9c0.3,2.1-1.1,4.1-3.2,4.5
	c-0.2,0-0.4,0-0.6,0c-2,0-3.6-1.5-3.9-3.4l-4.8-30.2c-0.1-0.1-0.1-0.3-0.3-0.4c-1.6-1.7-4.2-1.7-5.9-0.1c0,0-0.1,0.1-0.1,0.1
	c-0.1,0.1-0.2,0.2-0.3,0.4l-4.8,30.4c-0.3,1.9-2,3.3-3.9,3.3c-0.4,0-0.7-0.1-1.1-0.2c-1.9-0.6-3.1-2.5-2.8-4.5l0.9-5.8
	c2.6-16.3,3.7-32.7,3.3-49.2l0,0l-30.7-1.7c-3.4-0.2-5.6-4.8-1.4-8l32.5,1.8c0.2,0,0.4,0,0.6,0.1l0,0l10.6,0.5l10.6-0.5l0,0
	c0.2,0,0.4-0.1,0.6-0.1L157.5,104.3 M157.5,96.8h-0.4l-32.5,1.8c-0.3,0-0.7,0-1,0.1l-9.8,0.4l-9.8-0.4c-0.3,0-0.7-0.1-1-0.1
	l-32.6-1.8h-0.4c-1.6,0-3.2,0.5-4.5,1.5c-4.5,3.4-6.3,8.5-4.8,13.4c1.4,4.6,5.5,7.9,10.4,8.1l23.7,1.3c0,13.7-1.1,27.4-3.2,40.9
	l-0.9,5.8c-1.2,6.2,2.9,12.3,9.1,13.5s12.3-2.9,13.5-9.1c0-0.2,0.1-0.4,0.1-0.7l0.6-4l0.6,3.9c0.9,5.6,5.7,9.7,11.4,9.8
	c0.6,0,1.3-0.1,1.9-0.2c6.2-1.1,10.3-6.9,9.4-13.1l-0.9-5.9c-2.2-13.5-3.2-27.2-3.2-40.9l23.7-1.3c4.8-0.3,8.9-3.5,10.4-8.1
	c1.5-4.9-0.4-10-4.8-13.4C160.7,97.3,159.1,96.7,157.5,96.8L157.5,96.8z"/>
</svg>
