<svg id="Capa_2" data-name="Capa 2" xmlns="http://www.w3.org/2000/svg" xmlns:xlink="http://www.w3.org/1999/xlink" viewBox="0 0 392.92 413.81"><defs><style>.cls-1{fill:url(#Degradado_sin_nombre_22);}.cls-2{fill:url(#Degradado_sin_nombre_11);}.cls-3{fill:#fff;}.cls-4,.cls-5{fill:none;stroke-linecap:round;stroke-linejoin:round;stroke-width:7.54px;}.cls-4{stroke:#171717;}.cls-5{stroke:#1d1d1b;}.cls-6{fill:url(#Degradado_sin_nombre_18);}</style><linearGradient id="Degradado_sin_nombre_22" x1="297.59" y1="226.13" x2="358.28" y2="226.13" gradientUnits="userSpaceOnUse"><stop offset="0" stop-color="#fff"/><stop offset="1" stop-color="#8e68a4"/></linearGradient><linearGradient id="Degradado_sin_nombre_11" x1="14.97" y1="243.16" x2="111.46" y2="239.35" xlink:href="#Degradado_sin_nombre_22"/><linearGradient id="Degradado_sin_nombre_18" x1="136.23" y1="153.29" x2="199.67" y2="153.29" gradientUnits="userSpaceOnUse"><stop offset="0" stop-color="#fff"/><stop offset="0.92" stop-color="#8e68a4"/></linearGradient></defs><path class="cls-1" d="M303.82,325a6.28,6.28,0,0,1-4.78-2.2,6.57,6.57,0,0,1-.93-6.73c1.36-3.38,2.9-6.59,4.53-10,4.6-9.61,9.82-20.51,12.63-39.3a6.47,6.47,0,0,1,6.54-5.63,6.28,6.28,0,0,1,5.93,7.2l-.06.36c-.88,5.87,7.24,8.17,9.62,2.73a104.37,104.37,0,0,0,8.41-42.1c0-35.41-19.28-70.49-37.37-91.59a6.45,6.45,0,0,1,.05-8.58,6.29,6.29,0,0,1,9.33.22c9.51,11.06,40.56,51,40.56,100,0,40.64-18.17,74.28-51.15,94.73A6.3,6.3,0,0,1,303.82,325Z"/><path class="cls-2" d="M89.43,320.21c-5.93,0-13.36-14.73-14.49-20.77-.69-3.67-16.7-90.52-4.12-130.17a12.56,12.56,0,0,1,24.39,1.88c4.68,30.32,28.33,62.27,28.57,62.59,4.14,5.56,1.25,15.28-2.54,17.58a10.11,10.11,0,0,1-2.42,1.08c-14,4-23.33,17.15-21,31.54.3,1.85.59,3.6.86,5.23a23.44,23.44,0,0,1-.37,9.51c-1.44,5.93-.62,11.92-6.21,13C91.27,311.79,90.2,320.21,89.43,320.21Z"/><rect class="cls-3" x="262.35" y="115.39" width="10.95" height="10.95"/><rect class="cls-3" x="257.73" y="142.63" width="10.95" height="10.95"/><rect class="cls-3" x="249.13" y="88.82" width="10.95" height="10.95"/><path class="cls-4" d="M137.2,260.37c-15.61-1.16-40.56,20-46.13,66.59-31,0-70.92-35.67-70.92-97.58s42.53-114.09,70.92-126.6c-3.22,26.13,17.37,73.41,33.53,105.14"/><path class="cls-4" d="M346.42,167.76c-14.89-32.68-38.87-57-57.05-65,4.63,37.64-40.13,119.14-49.9,134.89"/><path class="cls-4" d="M289.37,327c31,0,70.92-35.67,70.92-97.58a141,141,0,0,0-4-32.89h16.43"/><path class="cls-4" d="M91.07,327S42.31,280.87,79,136.58"/><path class="cls-5" d="M294.33,280.87s8.43-76-3.33-113.1"/><line class="cls-4" x1="201.97" y1="171.34" x2="201.01" y2="179.43"/><path class="cls-4" d="M225.94,202.42l21.41,69.05M122.76,326.06c0-19.48,11.41-10,11.41-26.34,0,0,.41-18.46,3-39.35"/><path class="cls-4" d="M251.45,258.46h0a29.37,29.37,0,0,1,29.37,29.38v9.87a29.37,29.37,0,0,1-29.37,29.38h-88.9l36.61-24.72"/><line class="cls-4" x1="212.04" y1="304.75" x2="218.36" y2="289.52"/><line class="cls-4" x1="224.12" y1="304.75" x2="230.44" y2="289.52"/><line class="cls-4" x1="236.21" y1="304.75" x2="242.53" y2="289.52"/><line class="cls-4" x1="248.29" y1="304.75" x2="254.61" y2="289.52"/><path class="cls-6" d="M189.77,211.83a54,54,0,0,1-53.54-54v-34.5a12.52,12.52,0,0,1,12.36-12.51,0,0,0,0,0,0,0l1.54-8.35a9.42,9.42,0,0,1,18.55.15l1.38,8.19a.07.07,0,0,0,0,0h11.37a9.7,9.7,0,0,1,9.85,9.17,9.41,9.41,0,0,1-9.41,9.67h-5.7a21.21,21.21,0,0,0-21.2,21.21h0c5.89,36.51,35.42,42,36.68,42.23a9.39,9.39,0,0,1,7.87,10.29A9.7,9.7,0,0,1,189.77,211.83Z"/><line class="cls-4" x1="165.14" y1="264.96" x2="159.31" y2="304.75"/><line class="cls-4" x1="212.35" y1="244.82" x2="215.47" y2="266.15"/><line class="cls-4" x1="210.88" y1="156.34" x2="231.36" y2="156.34"/><path class="cls-4" d="M226,202.42a57,57,0,0,0,21.4-44.57v-34.5A15.7,15.7,0,0,0,231.7,107.7h0l-10.58-21-10.58,21H169.89l-10.58-21-10.57,21h0a15.69,15.69,0,0,0-15.65,15.65v34.5A57.13,57.13,0,0,0,190.22,215h0"/></svg>