<svg id="Capa_2" data-name="Capa 2" xmlns="http://www.w3.org/2000/svg" xmlns:xlink="http://www.w3.org/1999/xlink" viewBox="0 0 150 150"><defs><style>.cls-1{fill:url(#Degradado_sin_nombre_4);}.cls-2{fill:#171717;}</style><linearGradient id="Degradado_sin_nombre_4" x1="87.92" y1="457.25" x2="87.92" y2="344.87" gradientTransform="translate(0 -327.89)" gradientUnits="userSpaceOnUse"><stop offset="0" stop-color="#fff"/><stop offset="1" stop-color="#8e68a4"/></linearGradient></defs><path class="cls-1" d="M75,14.62l69,38.81L118.1,68v43.4S118.66,128,96.78,133s-38.8,2.58-46.6-.86-18.31-7.21-18.31-20.66,14.24,1.29,36.95,2.68S105,110.21,105,100.29s-.67-24.79-.67-24.79L76.55,89.72S63,78.31,81.15,64.33,75,39.44,75,39.44C62,32.77,65.71,24,75,14.62Z"/><path class="cls-2" d="M75,138c-18.48,0-31.73-3.77-39.4-11.21-6.18-6-6.38-12.29-6.38-13V69.65L4.7,55.94a2.68,2.68,0,0,1-1.36-2.32A2.59,2.59,0,0,1,4.7,51.31l69-39a2.64,2.64,0,0,1,2.61,0l69,38.8a2.68,2.68,0,0,1,1.36,2.32,2.65,2.65,0,0,1-1.36,2.31L138,59.87v58.24a2.65,2.65,0,0,1-5.29,0V58.32A2.72,2.72,0,0,1,134.1,56l4.53-2.57L75,17.66,11.41,53.59l21.78,12.2a2.64,2.64,0,0,1,1.35,2.31v45.71c0,.2.07,4.66,4.8,9.26,4.56,4.43,14.47,9.68,35.66,9.68s31.1-5.25,35.66-9.68c4.73-4.56,4.8-9.06,4.8-9.26V68a2.68,2.68,0,0,1,1.35-2.31l8.63-4.86a2.64,2.64,0,0,1,2.61,4.59l-7.27,4.1v44.29c0,.7-.17,7-6.38,13C106.73,134.24,93.48,138,75,138Zm0-43.14a2.61,2.61,0,0,1-1.29-.33L39.2,75.24a2.65,2.65,0,0,1,2.58-4.63L75,89.19l33.18-18.68a2.65,2.65,0,0,1,2.58,4.63L76.22,94.54A2.19,2.19,0,0,1,75,94.87Z"/><path class="cls-2" d="M47.63,99.83H33.42a2.65,2.65,0,0,1,0-5.29H47.63a2.65,2.65,0,1,1,0,5.29Zm-4.46,7.27a2.65,2.65,0,0,0-2.64-2.64H16.13a2.65,2.65,0,0,0,0,5.29h24.4A2.65,2.65,0,0,0,43.17,107.1Z"/></svg>