<?xml version="1.0" encoding="utf-8"?>
<!-- Generator: Adobe Illustrator 24.3.0, SVG Export Plug-In . SVG Version: 6.00 Build 0)  -->
<svg version="1.1" id="Capa_2_1_" xmlns="http://www.w3.org/2000/svg" xmlns:xlink="http://www.w3.org/1999/xlink" x="0px" y="0px"
	 viewBox="0 0 106.4 92.6" style="enable-background:new 0 0 106.4 92.6;" xml:space="preserve">
<style type="text/css">
	.st0{fill:url(#SVGID_1_);}
	.st1{fill:#8E68A4;}
</style>
<linearGradient id="SVGID_1_" gradientUnits="userSpaceOnUse" x1="51.002" y1="-304.4002" x2="51.002" y2="-266.5802" gradientTransform="matrix(1 0 0 -1 0 -235.3002)">
	<stop  offset="0" style="stop-color:#FFFFFF"/>
	<stop  offset="1" style="stop-color:#8E68A4"/>
</linearGradient>
<path class="st0" d="M20.5,63.6c-1.1,0.2-2.1,0.4-3.2,0.3l0,0c-3.3,0-6.3-1.6-8.2-4.2c-2-2.9-3-6.4-3-10C6,44,8.9,38.6,13.6,35.5
	c1.1-0.7,2.4-1.2,3.7-1.2l0,0c1.6,0,3.2,0.3,4.8,0.8c-8,1.7-13,9.6-11.3,17.5C11.9,57.8,15.6,61.9,20.5,63.6L20.5,63.6z M37.1,38.3
	c0.2,0.2,0.2,0.5,0.1,0.7c0,0,0,0-0.1,0.1l-1.2,1c-0.4,0.3-0.4,0.8-0.1,1.2c0,0,0.1,0.1,0.1,0.1l3,2.7l5.8-5l-5-4.4
	c-4.6-4.5-11-6.8-17.4-6.1c3.9,0.9,7.4,2.8,10.3,5.6L37.1,38.3z M76,35.1c-5-1.7-10.5-0.4-14.3,3.3l-11,9.8l0,0l-6.2,5.5l0,0
	L32.9,63.9c-3.5,3.4-8,5.6-12.9,6.1c7.3,1.6,15-0.5,20.4-5.7L52,54.1l0,0l6.2-5.5l0,0l11-9.8C71.1,37,73.4,35.7,76,35.1L76,35.1z
	 M72.8,28.4c-0.7,0-1.4,0-2.1,0.1c11.7,1,20.9,10,20.9,21s-9.2,20-20.9,21c0.7,0.1,1.4,0.1,2.2,0.1c12.7,0,23.1-9.4,23.1-21.1
	S85.5,28.5,72.8,28.4L72.8,28.4z"/>
<path class="st1" d="M12.9,0v4.8H0.5V0H12.9z M16.1,0v4.8h12.5V0H16.1z"/>
<path d="M22.9,72.3C10.3,72.4,0,62.2,0,49.5c0-12.6,10.3-22.8,22.9-22.8l0,0c6.1,0,11.9,2.4,16.2,6.6l4.9,4.3
	c0.4,0.3,0.6,0.8,0.6,1.3c0,0.5-0.2,1-0.6,1.3l-5.9,5.2c-0.7,0.7-1.8,0.7-2.5,0c-0.7-0.7-0.7-1.8,0-2.5c0.1-0.1,0.1-0.1,0.2-0.1
	l4.4-3.9L36.7,36l-0.1-0.1c-7.5-7.6-19.8-7.6-27.3-0.1c-7.6,7.5-7.6,19.8-0.1,27.3c7.5,7.5,19.6,7.6,27.2,0.2l0.1-0.1l11.1-9.8
	l0.3-0.2l5.5-4.8c0.1-0.1,0.1-0.2,0.2-0.2l10.5-9.3c5.9-5.8,15.5-5.8,21.3,0.1c2.8,2.8,4.3,6.6,4.3,10.5c0,8.3-6.8,15-15.2,15
	c-4,0-7.8-1.6-10.6-4.5l-4.5-3.9c-0.7-0.6-0.8-1.7-0.2-2.5s1.7-0.8,2.5-0.2l4.4,3.9l0.1,0.1c2.2,2.2,5.2,3.5,8.3,3.5
	c6.4,0,11.5-5.2,11.5-11.5C86.2,43.2,81,38,74.7,38c-3.1,0-6,1.2-8.1,3.4l-0.1,0.1l-10.3,9.2c-0.1,0.1-0.1,0.2-0.2,0.2L50,56.1
	l-0.3,0.2l-10.8,9.6C34.6,70,28.9,72.4,22.9,72.3z M91.4,65.1c4-4.2,6.2-9.8,6.2-15.6c-0.1-12.7-10.4-22.9-23-22.8
	c-5.9,0-11.6,2.4-15.9,6.5l-10.8,9.6c-0.1,0-0.2,0.1-0.2,0.2l-5.9,5.2c-0.1,0.1-0.2,0.2-0.3,0.3l-10.2,9.1l-0.1,0.1
	c-4.5,4.5-11.8,4.5-16.3,0s-4.5-11.8,0-16.3c4.5-4.5,11.8-4.5,16.3,0c0.1,0.1,0.1,0.1,0.2,0.2c0.7,0.6,1.8,0.6,2.5-0.2
	c0.6-0.7,0.6-1.7,0-2.3C28,33.2,18.5,33,12.5,38.8C6.6,44.6,6.4,54.1,12.2,60c2.8,2.9,6.7,4.6,10.7,4.6c4,0,7.8-1.5,10.6-4.3
	L44,50.9c0.1-0.1,0.2-0.2,0.3-0.3l5.4-4.7c0.1-0.1,0.2-0.1,0.3-0.2L61,35.8c0,0,0.1,0,0.1-0.1c7.6-7.5,19.9-7.4,27.4,0.2
	c7.3,7.4,7.5,19.2,0.4,26.8c-0.7,0.7-0.6,1.8,0.1,2.5c0,0,0,0,0,0c0.3,0.3,0.8,0.5,1.2,0.5C90.7,65.7,91.1,65.4,91.4,65.1L91.4,65.1
	z M76.1,72.3c1-0.1,1.7-0.9,1.6-1.9s-0.9-1.7-1.9-1.6c-0.4,0-0.8,0-1.2,0c-5.1,0-10.1-2-13.7-5.6l-0.1-0.1l-3.5-3.1l1-0.8
	c0.7-0.7,0.8-1.8,0.1-2.5c-0.6-0.7-1.7-0.8-2.4-0.1l-2.4,2.2c-0.7,0.6-0.8,1.7-0.1,2.5c0,0.1,0.1,0.1,0.1,0.1l4.9,4.3
	c4.3,4.3,10.1,6.6,16.1,6.6C75.2,72.3,75.6,72.3,76.1,72.3z"/>
<path d="M74.5,59.2c-2.6,0-5.1-1-6.9-2.9L64.9,54c-0.7-0.6-0.8-1.7-0.2-2.5s1.7-0.8,2.5-0.2l2.7,2.4l0.1,0.1
	c1.2,1.2,2.8,1.9,4.5,1.9c3.4,0,6.2-2.8,6.2-6.2s-2.8-6.2-6.2-6.2c-1.6,0-3.2,0.7-4.4,1.8c-0.7,0.7-1.8,0.7-2.5,0
	c-0.7-0.7-0.7-1.8,0-2.5c3.8-3.8,9.9-3.9,13.7-0.1s3.9,9.9,0.1,13.7C79.6,58.2,77.1,59.3,74.5,59.2L74.5,59.2z M41.8,68.6
	c-5,4.9-11.7,7.6-18.7,7.6c-1,0-1.8,0.8-1.8,1.8s0.8,1.8,1.8,1.8c7.9,0,15.5-3.1,21.2-8.6c0.7-0.7,0.7-1.8,0-2.5
	C43.6,67.9,42.5,67.9,41.8,68.6z M23.1,22.9c7.1,0,13.9,2.8,18.9,7.8l0.1,0.1l6.7,5.9c0.3,0.3,0.7,0.4,1.2,0.4c1,0,1.7-0.8,1.7-1.8
	c0-0.5-0.2-1-0.6-1.3l-6.6-5.9c-5.7-5.6-13.4-8.8-21.4-8.8c-1,0-1.8,0.8-1.8,1.8S22.2,22.9,23.1,22.9z M27.4,89.1H2.8
	c-1,0-1.8,0.8-1.8,1.8s0.8,1.8,1.8,1.8h24.6c1,0,1.8-0.8,1.8-1.8S28.4,89.1,27.4,89.1z M100.2,68.9H75.6c-1-0.1-1.8,0.6-1.9,1.6
	c-0.1,1,0.6,1.8,1.6,1.9c0.1,0,0.2,0,0.3,0h24.7c1,0,1.8-0.8,1.8-1.8C102,69.7,101.2,68.9,100.2,68.9
	C100.2,68.9,100.2,68.9,100.2,68.9L100.2,68.9z M97.9,65.7c1-0.1,1.7-0.9,1.6-1.9c-0.1-0.9-0.8-1.5-1.6-1.6H86.1
	c-1,0.1-1.7,0.9-1.6,1.9c0.1,0.9,0.8,1.5,1.6,1.6H97.9z M76.9,19.1c-1.2,0-2.2,1-2.2,2.3c0,1.2,1,2.2,2.2,2.2
	c13.8,0,24.9,11.1,25,24.9c0,1.2,1,2.2,2.2,2.2s2.2-1,2.2-2.2l0,0C106.4,32.3,93.2,19.1,76.9,19.1z M29.2,55.9l5.7-5
	c0.4-0.3,0.6-0.8,0.6-1.3c0-0.5-0.2-1-0.5-1.3l0,0c-0.7-0.7-1.8-0.7-2.5,0l-0.2,0.2l-5.5,4.9l-0.1,0.1c-1,1-2.4,1.6-3.9,1.5
	c-3,0.1-5.5-2.2-5.7-5.2c-0.1-3,2.2-5.5,5.2-5.7c0.2,0,0.3,0,0.5,0c1.5,0,2.9,0.6,4,1.7c0.7,0.7,1.8,0.7,2.5,0
	c0.7-0.7,0.7-1.8,0-2.5c-3.4-3.5-9.1-3.6-12.7-0.2s-3.6,9.1-0.2,12.7C20,59.3,25.7,59.4,29.2,55.9C29.2,55.9,29.2,55.9,29.2,55.9
	L29.2,55.9z"/>
</svg>
