<?xml version="1.0" encoding="utf-8"?>
<!-- Generator: Adobe Illustrator 24.3.0, SVG Export Plug-In . SVG Version: 6.00 Build 0)  -->
<svg version="1.1" id="Capa_2_1_" xmlns="http://www.w3.org/2000/svg" xmlns:xlink="http://www.w3.org/1999/xlink" x="0px" y="0px"
	 viewBox="0 0 105.7 94.7" style="enable-background:new 0 0 105.7 94.7;" xml:space="preserve">
<style type="text/css">
	.st0{fill:url(#SVGID_1_);}
</style>
<linearGradient id="SVGID_1_" gradientUnits="userSpaceOnUse" x1="68.3286" y1="-323.6528" x2="68.3286" y2="-251.6928" gradientTransform="matrix(1 0 0 -1 0 -233.2054)">
	<stop  offset="0" style="stop-color:#FFFFFF"/>
	<stop  offset="1" style="stop-color:#8E68A4"/>
</linearGradient>
<path class="st0" d="M71.8,28v35.1H34.2v-0.7c0-3,3-5.3,6.6-5.3c0.2,0,10.8,0,11,0c3.6-0.2,6.4-2.7,6.4-5.7V34.2
	c0-4.5,4.5-8.1,10-8.1h2.8C71.5,26.1,71.8,26.4,71.8,28z M89.5,54.7c-0.3,0-0.6,0.1-0.9,0.2c1.5,0.7,2.1,2.5,1.4,4
	c-0.3,0.6-0.8,1.1-1.4,1.4c0.3,0.1,0.6,0.2,0.9,0.2c1.6-0.1,2.8-1.5,2.6-3.1C92,55.9,90.9,54.8,89.5,54.7z M99.8,39.4
	c-0.3,0-0.6,0.1-0.9,0.2c1.5,0.7,2.1,2.5,1.4,4c-0.3,0.6-0.8,1.1-1.4,1.4c0.3,0.1,0.6,0.2,0.9,0.2c1.6-0.1,2.8-1.5,2.6-3.1
	C102.3,40.6,101.2,39.5,99.8,39.4z M93.6,10.9c-0.3,0-0.6,0.1-0.9,0.2c1.5,0.7,2.1,2.5,1.3,4c-0.3,0.6-0.8,1.1-1.3,1.3
	c0.3,0.1,0.6,0.2,0.9,0.2c1.6-0.2,2.7-1.6,2.6-3.2C96,12.1,95,11.1,93.6,10.9z M68,81.6c-0.3,0-0.6,0.1-0.9,0.2
	c1.5,0.7,2.1,2.5,1.4,4c-0.3,0.6-0.8,1.1-1.4,1.4c0.3,0.1,0.6,0.2,0.9,0.2c1.6-0.1,2.8-1.5,2.6-3.1C70.5,82.8,69.4,81.7,68,81.6z
	 M50.3,85.9c-0.3,0-0.6,0.1-0.9,0.2c1.5,0.7,2.1,2.5,1.4,4c-0.3,0.6-0.8,1.1-1.4,1.4c0.3,0.1,0.6,0.2,0.9,0.2
	c1.5-0.1,2.7-1.3,2.6-2.9C53,87.3,51.8,86,50.3,85.9z"/>
<path d="M99.9,36.4c-2.5,0-4.8,1.7-5.6,4.1H72.8v-5h11.2c1,0.1,1.8-0.6,1.9-1.6c0.1-1-0.6-1.8-1.6-1.9c-0.1,0-0.2,0-0.3,0H72.8v-5.8
	c0-1-0.8-1.7-1.8-1.8h-1.3l5.2-8.9H88c1,3.1,4.2,4.8,7.3,3.8c3.1-1,4.8-4.2,3.8-7.3c-1-3.1-4.2-4.8-7.3-3.8c-1.8,0.6-3.3,2-3.8,3.8
	H73.9c-0.6,0-1.2,0.3-1.5,0.9l-6.7,11.6h-3.7V11.4c3.1-1,4.8-4.2,3.8-7.3s-4.2-4.8-7.3-3.8s-4.8,4.2-3.8,7.3c0.6,1.8,2,3.3,3.8,3.8
	v13h-8.4v-7.6c0-1-0.8-1.8-1.8-1.8s-1.8,0.8-1.8,1.8v7.7h-7V11.4c3.1-1,4.8-4.2,3.8-7.3s-4.2-4.8-7.3-3.8c-3.1,1-4.8,4.2-3.8,7.3
	c0.6,1.8,2,3.2,3.8,3.8v13h-1.9c-1,0-1.7,0.8-1.8,1.8v5.2H21.9c-0.7-3.2-3.8-5.2-7-4.5s-5.2,3.8-4.5,7c0.7,3.2,3.8,5.2,7,4.5
	c1.9-0.4,3.4-1.7,4.2-3.5h10.8v11.4h-21c-1-3.1-4.2-4.8-7.3-3.8c-3.1,1-4.8,4.2-3.8,7.3c1,3.1,4.2,4.8,7.3,3.8
	c1.8-0.6,3.2-2,3.8-3.8h21v7.5h-11c-1-0.1-1.8,0.6-1.9,1.6c-0.1,1,0.6,1.8,1.6,1.9c0.1,0,0.2,0,0.3,0h11v2.3c0,1,0.8,1.7,1.8,1.8
	h3.4v7.1H25.1c-0.5,0-0.9,0.2-1.2,0.5l-3.2,3.2c-2.6-1.9-6.3-1.3-8.1,1.4c-1.9,2.6-1.3,6.3,1.4,8.1c2.6,1.9,6.3,1.3,8.1-1.4
	c0.7-1,1.1-2.2,1.1-3.4c0-0.7-0.1-1.3-0.3-1.9l3-3h13.5c1,0,1.8-0.8,1.8-1.8l0,0v-8.8h7.2v18.5c-3.1,1-4.8,4.2-3.8,7.3
	c1,3.1,4.2,4.8,7.3,3.8c3.1-1,4.8-4.2,3.8-7.3c-0.6-1.8-2-3.3-3.8-3.8V64.8h5.5v9.6c0,1,0.8,1.8,1.8,1.8s1.8-0.8,1.8-1.8v-9.6h5.4
	v14.1c-3.1,1-4.8,4.2-3.8,7.3s4.2,4.8,7.3,3.8c3.1-1,4.8-4.2,3.8-7.3c-0.6-1.8-2-3.2-3.8-3.8V64.8h1.4c1,0,1.8-0.8,1.8-1.8v-4.2h11
	c0.7,3.2,3.9,5.1,7,4.4c3.2-0.7,5.1-3.9,4.4-7c-0.7-3.2-3.9-5.1-7-4.4c-1.9,0.4-3.4,1.7-4.1,3.5H72.8V44h21.5c1,3.1,4.2,4.8,7.3,3.8
	c3.1-1,4.8-4.2,3.8-7.3C104.7,38.1,102.4,36.4,99.9,36.4z M93.6,11.4c1.3,0,2.3,1,2.3,2.3c0,1.3-1,2.3-2.3,2.3c-1.3,0-2.3-1-2.3-2.3
	c0,0,0,0,0,0C91.3,12.4,92.3,11.4,93.6,11.4L93.6,11.4z M60.2,3.5c1.3,0,2.4,1,2.4,2.3s-1,2.4-2.3,2.4c-1.3,0-2.4-1-2.4-2.3
	c0,0,0,0,0-0.1C57.9,4.6,58.9,3.6,60.2,3.5L60.2,3.5z M37.9,3.5c1.3,0,2.3,1,2.3,2.3c0,1.3-1,2.3-2.3,2.3c-1.3,0-2.3-1-2.3-2.3
	c0,0,0,0,0,0C35.6,4.6,36.6,3.6,37.9,3.5L37.9,3.5z M16.3,35.1c-1.3,0-2.3-1-2.3-2.3c0-1.3,1-2.3,2.3-2.3s2.3,1,2.3,2.3l0,0
	C18.6,34,17.6,35.1,16.3,35.1z M5.9,50.4c-1.3,0-2.3-1.1-2.3-2.3c0-1.3,1.1-2.3,2.3-2.3c1.3,0,2.3,1.1,2.3,2.3
	C8.2,49.4,7.2,50.4,5.9,50.4C5.9,50.4,5.9,50.4,5.9,50.4z M17.3,82.7c-1.3,0-2.3-1-2.4-2.3c0-1.3,1-2.3,2.3-2.4c1.3,0,2.3,1,2.4,2.3
	c0,0,0,0,0,0.1C19.6,81.7,18.6,82.7,17.3,82.7L17.3,82.7z M49.9,91.2c-1.3,0-2.3-1-2.3-2.3s1-2.3,2.3-2.3s2.3,1,2.3,2.3l0,0
	C52.3,90.1,51.2,91.1,49.9,91.2C49.9,91.1,49.9,91.1,49.9,91.2L49.9,91.2z M67.9,86.8c-1.3,0-2.4-1-2.4-2.3s1-2.4,2.3-2.4
	c1.3,0,2.3,1,2.4,2.3C70.3,85.7,69.2,86.8,67.9,86.8C67.9,86.8,67.9,86.8,67.9,86.8L67.9,86.8z M89.5,55.2c1.3,0,2.3,1,2.3,2.3
	s-1,2.3-2.3,2.3s-2.3-1-2.3-2.3v0C87.2,56.3,88.2,55.3,89.5,55.2L89.5,55.2z M36,28h33.3v33.3H36V28z M99.9,44.6
	c-1.3,0-2.3-1-2.3-2.3s1-2.3,2.3-2.3c1.3,0,2.3,1,2.3,2.3v0C102.2,43.5,101.2,44.6,99.9,44.6z M42.6,53.1c0.2,3.1,2.8,5.5,5.9,5.5
	c1.6,0,3-0.6,4.1-1.7c2.3,2.3,6,2.3,8.3,0c1-1,1.6-2.4,1.7-3.8c2.2-0.9,3.7-3,3.7-5.4c0-1.1-0.3-2.2-0.9-3.1c2-2.5,1.6-6.2-0.9-8.2
	c-0.6-0.5-1.3-0.8-2-1.1c-0.5-3.2-3.4-5.4-6.7-5c-1.2,0.2-2.4,0.7-3.3,1.6c-2.3-2.3-6-2.2-8.3,0.1c-0.9,0.9-1.4,2-1.6,3.3
	c-3.1,0.9-4.9,4.2-4,7.3c0.2,0.7,0.6,1.4,1.1,2c-1.7,2.8-0.8,6.4,1.9,8.1C42,52.8,42.3,53,42.6,53.1z M56.7,33.8
	c1,0,1.9,0.6,2.2,1.6c-0.6,0.2-1.1,0.5-1.6,0.8c-0.8,0.6-0.9,1.7-0.4,2.5c0.6,0.8,1.7,0.9,2.5,0.4l0,0c1.1-0.8,2.6-0.5,3.3,0.5
	c0.6,0.8,0.6,1.9,0,2.8c-0.7-0.3-1.5-0.5-2.4-0.5c-1,0-1.8,0.8-1.8,1.8s0.8,1.8,1.8,1.8c1.3,0,2.4,1.1,2.4,2.4
	c0,1.3-1.1,2.4-2.4,2.4c-1,0-1.7,0.8-1.7,1.8c0,0.4,0.2,0.8,0.4,1.2c-0.1,1.3-1.2,2.3-2.5,2.3c-1.3-0.1-2.3-1.2-2.3-2.5
	c0-0.1,0-0.2,0-0.3v-7.8c0-1,2.3-1.1,2.4-1.1c1,0,1.7-0.8,1.7-1.7c0,0,0,0,0,0c0-1-0.8-1.7-1.8-1.8l0,0c-0.8,0-1.6,0.1-2.4,0.3v-4
	c0-0.1,0-0.2,0-0.3v-0.3C54.5,34.6,55.6,33.7,56.7,33.8L56.7,33.8z M42.5,39.5c0.8-1,2.3-1.3,3.3-0.5c0.8,0.6,1.9,0.4,2.5-0.4
	c0.6-0.8,0.4-1.9-0.4-2.5l0,0c-0.5-0.4-1-0.6-1.6-0.8c0.5-1.2,1.8-1.9,3.1-1.4c0.8,0.3,1.4,1,1.5,1.9v8.5c-0.3-0.3-0.7-0.4-1.2-0.4
	l0,0c-1,0-1.7,0.8-1.7,1.7c0,0,0,0,0,0c0,2.2,0.9,4.6,2.9,5.5v1.6l0,0c0.1,1.3-1,2.4-2.3,2.5c-1.3,0.1-2.4-1-2.5-2.3
	c0.3-0.3,0.5-0.7,0.5-1.2c0-1-0.8-1.7-1.8-1.8c-1.3,0-2.4-1.1-2.4-2.4c0-1.3,1.1-2.4,2.4-2.4c1,0,1.8-0.8,1.8-1.8s-0.8-1.8-1.8-1.8
	c-0.8,0-1.6,0.2-2.4,0.5C41.9,41.4,41.9,40.3,42.5,39.5z"/>
</svg>
