<?xml version="1.0" encoding="utf-8"?>
<!-- Generator: Adobe Illustrator 24.3.0, SVG Export Plug-In . SVG Version: 6.00 Build 0)  -->
<svg version="1.1" id="Capa_2_1_" xmlns="http://www.w3.org/2000/svg" xmlns:xlink="http://www.w3.org/1999/xlink" x="0px" y="0px"
	 viewBox="0 0 98.5 97.8" style="enable-background:new 0 0 98.5 97.8;" xml:space="preserve">
<style type="text/css">
	.st0{fill:url(#SVGID_1_);}
</style>
<path d="M24.3,50.2c0,1-0.8,1.8-1.8,1.8h-9.4c-1,0-1.8-0.8-1.8-1.8s0.8-1.8,1.8-1.8l0,0h9.4C23.5,48.4,24.3,49.2,24.3,50.2z
	 M17.9,55H1.8c-1,0-1.8,0.8-1.8,1.8s0.8,1.8,1.8,1.8h16.1c1,0,1.8-0.8,1.8-1.8S18.8,55,17.9,55z"/>
<linearGradient id="SVGID_1_" gradientUnits="userSpaceOnUse" x1="49.64" y1="-330.6002" x2="49.64" y2="-253.3302" gradientTransform="matrix(1 0 0 -1 0 -230.1402)">
	<stop  offset="0" style="stop-color:#FFFFFF"/>
	<stop  offset="1" style="stop-color:#8E68A4"/>
</linearGradient>
<path class="st0" d="M71.4,90.7l-5-15.6H48c-5.7,0-9.4-4.7-10.5-8.2c-1.8-5.6-7.8-24.9-7.8-24.9c-0.6-1.9-2.3-3.3-4.3-3.5h-7.8v-5.2
	h11.8c3.4-0.1,6.7,1,9.2,3.2c2.2,2.3,4.2,4.9,5.9,7.7c4.6,6.8,10.2,15.3,22.9,15.3h0.2c2.8,0,5.2,1.8,6.1,4.4l8.2,24.8L71.4,90.7z"
	/>
<path d="M46.3,97.7c-14,0-25.3-11.3-25.3-25.3c0-8.4,4.2-16.2,11.1-20.9c0.8-0.6,1.9-0.4,2.4,0.4s0.4,1.9-0.4,2.4
	c-10,6.8-12.6,20.3-5.8,30.3s20.3,12.6,30.3,5.8c10-6.8,12.6-20.3,5.8-30.3c-4.1-6-10.8-9.6-18.1-9.6c-2.7,0-5.4,0.5-7.9,1.5
	c-0.4,0.2-1,0.2-1.4,0c-0.4-0.2-0.7-0.6-0.9-1L33,40.9c-1-3.3-4.4-6-7.6-6h-6v1.8h6.1c1-0.1,1.8,0.6,1.9,1.6c0.1,1-0.6,1.8-1.6,1.9
	c-0.1,0-0.2,0-0.3,0h-7.8c-1,0-1.8-0.8-1.8-1.8v-5.2c0-1,0.8-1.7,1.8-1.8h7.8c4.8,0,9.4,3.6,10.9,8.4l2.6,8.4
	c2.4-0.7,4.9-1.1,7.4-1.1c1.7,0,3.3,0.2,4.9,0.5c-1.4-1.8-2.7-3.7-3.9-5.5c-3.3-5-6.8-10.1-13.1-12.8l-1.6-0.7
	c-0.7-0.3-1.1-0.9-1.1-1.6V12.2C31.5,5.5,37,0,43.7,0s12.2,5.5,12.2,12.2v15.7c0,1-0.8,1.8-1.8,1.8s-1.8-0.8-1.8-1.8V12.2
	c0-4.8-3.9-8.7-8.7-8.7S35,7.4,35,12.2l0,0v13.7l0.6,0.2c7.3,3,11.1,8.6,14.7,14c4.2,6.3,8.2,12.2,17,12.2h8.6
	c0.8,0,1.4,0.5,1.7,1.2L87,81.9c0.3,0.9-0.2,1.9-1.1,2.2c-0.1,0-0.1,0-0.2,0.1l-13.2,2.8l0.3,1.7l21.9-4.5l-0.3-1.7l-3.6,0.8
	c-0.9,0.2-1.9-0.4-2.1-1.4c-0.2-0.9,0.4-1.9,1.4-2.1l5.3-1.1c0.5-0.1,0.9,0,1.3,0.3c0.4,0.3,0.7,0.7,0.7,1.1l1.1,5.1
	c0.2,0.9-0.4,1.9-1.4,2.1l-25.3,5.2c-0.9,0.2-1.9-0.4-2.1-1.4c0,0,0,0,0,0l-1-5.1c-0.2-0.9,0.4-1.9,1.4-2.1L83,81.2l-8.4-25.3h-7.3
	c-0.7,0-1.3,0-1.9-0.1c9.2,10.5,8.2,26.5-2.3,35.7C58.4,95.5,52.5,97.8,46.3,97.7L46.3,97.7z M46.3,90.8C36.2,90.8,28,82.6,28,72.4
	c0-10.1,8.2-18.4,18.4-18.4c1,0,1.8,0.8,1.8,1.8s-0.8,1.8-1.8,1.8c-8.2,0-14.9,6.7-14.9,14.9s6.7,14.9,14.9,14.9s14.9-6.7,14.9-14.9
	c0,0,0,0,0,0c0-1,0.8-1.8,1.8-1.8s1.8,0.8,1.8,1.8C64.7,82.6,56.5,90.8,46.3,90.8z"/>
</svg>
