<svg id="Capa_2" data-name="Capa 2" xmlns="http://www.w3.org/2000/svg" xmlns:xlink="http://www.w3.org/1999/xlink" viewBox="0 0 150 150"><defs><style>.cls-1{fill:#171717;}.cls-2{fill:url(#Degradado_sin_nombre_4);}</style><linearGradient id="Degradado_sin_nombre_4" x1="95.57" y1="408.65" x2="96.27" y2="337.57" gradientTransform="translate(0 -327.89)" gradientUnits="userSpaceOnUse"><stop offset="0" stop-color="#fff"/><stop offset="1" stop-color="#8e68a4"/></linearGradient></defs><path class="cls-1" d="M143.54,58.8h-7.45a2.45,2.45,0,0,1,0-4.9h7.45a2.45,2.45,0,0,1,0,4.9Zm1.59,6.74a2.46,2.46,0,0,0-2.45-2.45H120.06a2.46,2.46,0,0,0,0,4.91h22.62A2.46,2.46,0,0,0,145.13,65.54ZM60.59,140.89a2.46,2.46,0,0,0-2.45-2.46H31.29a2.46,2.46,0,0,0,0,4.91H58.14A2.46,2.46,0,0,0,60.59,140.89ZM43.49,131A2.46,2.46,0,0,0,41,128.53H6.46a2.46,2.46,0,0,0,0,4.91H41A2.46,2.46,0,0,0,43.49,131Zm-34-14.9a2.76,2.76,0,1,0-2.76,2.76A2.77,2.77,0,0,0,9.53,116.09Zm9.19,0A2.76,2.76,0,1,0,16,118.85,2.77,2.77,0,0,0,18.72,116.09Zm9.2,0a2.76,2.76,0,1,0-2.76,2.76A2.77,2.77,0,0,0,27.92,116.09Z"/><path class="cls-2" d="M137.07,19.78,90.3,66.56c-4,4-4,4-28,13.73l-7.63,3.09,3.09-7.6C61.3,67.05,60,70,61.61,66.28,69.27,63.06,82.69,56,84.75,53.93L130.11,9.11h0a7,7,0,0,1,7,7v3.71Z"/><path class="cls-1" d="M39.78,120.72a2.48,2.48,0,0,1-1-.19,2.42,2.42,0,0,1-1.5-2.27V95H25.9a9.43,9.43,0,0,1-9.41-9.41V16.07A9.43,9.43,0,0,1,25.9,6.66H80.64a2.46,2.46,0,0,1,0,4.91H25.9a4.51,4.51,0,0,0-4.51,4.5V85.56a4.52,4.52,0,0,0,4.51,4.51H39.78a2.45,2.45,0,0,1,2.45,2.45v19.83L63.81,90.77a2.42,2.42,0,0,1,1.75-.7h64.58a4.52,4.52,0,0,0,4.51-4.51v-20a2.45,2.45,0,0,1,4.9,0v20A9.43,9.43,0,0,1,130.14,95H66.57l-25,25A2.5,2.5,0,0,1,39.78,120.72ZM44.84,76a2.54,2.54,0,0,1-1.75-.71,2.46,2.46,0,0,1-.55-2.66l3.1-7.61c9.93-24.49,9.93-24.49,14.28-28.81L88.73,7.43a2.43,2.43,0,0,1,1.75-.71h9.84a2.46,2.46,0,0,1,0,4.91h-8.8L63.44,39.74c-3.61,3.61-3.61,3.61-13.18,27.18l-.92,2.24,2.24-.92c23.57-9.56,23.57-9.56,27.19-13.18a2.45,2.45,0,0,1,3.46,3.46c-4.32,4.33-4.32,4.33-28.81,14.29l-7.66,3A2.33,2.33,0,0,1,44.84,76Zm92.23-17.41a2.46,2.46,0,0,1-2.45-2.46V16.07a4.52,4.52,0,0,0-4.51-4.5h-1.44L89.13,51.11a2.45,2.45,0,0,1-3.46-3.47L125.91,7.4a2.45,2.45,0,0,1,1.75-.71h2.45a9.43,9.43,0,0,1,9.41,9.41V56.2A2.45,2.45,0,0,1,137.07,58.62Z"/></svg>