<svg id="Capa_2" data-name="Capa 2" xmlns="http://www.w3.org/2000/svg" xmlns:xlink="http://www.w3.org/1999/xlink" viewBox="0 0 538.86 427.45"><defs><style>.cls-1,.cls-4{fill:#8e68a4;}.cls-1,.cls-7{stroke:#171717;}.cls-1,.cls-2,.cls-3,.cls-6,.cls-7,.cls-9{stroke-linecap:round;stroke-linejoin:round;}.cls-1,.cls-2,.cls-3,.cls-7{stroke-width:4px;}.cls-2,.cls-3,.cls-6,.cls-7,.cls-9{fill:none;}.cls-2{stroke:#000;}.cls-3{stroke:#fff;}.cls-5{clip-path:url(#clip-path);}.cls-6,.cls-9{stroke-width:8.35px;}.cls-6{stroke:url(#Degradado_sin_nombre_2);}.cls-8{clip-path:url(#clip-path-2);}.cls-9{stroke:url(#Degradado_sin_nombre_2-2);}</style><clipPath id="clip-path"><path class="cls-1" d="M409.14,80.05V87.5a6.69,6.69,0,0,0,6.67,6.67h13.46a2.8,2.8,0,0,1,2.47,1.45l4.89,8.79,4.88-8.79A2.83,2.83,0,0,1,444,94.17h13.47a6.69,6.69,0,0,0,6.67-6.67V45.86a6.69,6.69,0,0,0-6.67-6.67H415.81a6.69,6.69,0,0,0-6.67,6.67V80.05"/></clipPath><linearGradient id="Degradado_sin_nombre_2" x1="441.01" y1="77.42" x2="418.74" y2="35.53" gradientUnits="userSpaceOnUse"><stop offset="0" stop-color="#8e68a4"/><stop offset="1" stop-color="#fff"/></linearGradient><clipPath id="clip-path-2"><path class="cls-1" d="M150,228.48v7.45a6.68,6.68,0,0,0,6.66,6.66h13.47a2.84,2.84,0,0,1,2.47,1.46l4.88,8.78,4.89-8.78a2.82,2.82,0,0,1,2.47-1.46h13.46a6.69,6.69,0,0,0,6.67-6.66V194.28a6.69,6.69,0,0,0-6.67-6.66H156.67a6.68,6.68,0,0,0-6.66,6.66v34.2"/></clipPath><linearGradient id="Degradado_sin_nombre_2-2" x1="181.87" y1="225.85" x2="159.6" y2="183.96" xlink:href="#Degradado_sin_nombre_2"/></defs><line class="cls-2" x1="145.92" y1="118.12" x2="161.47" y2="118.12"/><line class="cls-2" x1="147.46" y1="138.54" x2="163.02" y2="138.54"/><line class="cls-2" x1="171.56" y1="138.54" x2="187.11" y2="138.54"/><line class="cls-2" x1="186.62" y1="97.7" x2="202.17" y2="97.7"/><line class="cls-2" x1="281.39" y1="138.54" x2="296.95" y2="138.54"/><line class="cls-2" x1="253.35" y1="118.12" x2="268.9" y2="118.12"/><line class="cls-2" x1="244.74" y1="138.54" x2="260.29" y2="138.54"/><line class="cls-2" x1="244.01" y1="97.7" x2="259.57" y2="97.7"/><line class="cls-2" x1="218.69" y1="97.7" x2="234.25" y2="97.7"/><line class="cls-2" x1="198.85" y1="138.54" x2="228.64" y2="138.54"/><line class="cls-2" x1="280.39" y1="118.12" x2="310.17" y2="118.12"/><line class="cls-2" x1="145.92" y1="97.7" x2="175.7" y2="97.7"/><line class="cls-2" x1="209.77" y1="97.7" x2="209.77" y2="102"/><line class="cls-2" x1="304.72" y1="138.54" x2="304.72" y2="142.85"/><line class="cls-2" x1="266.81" y1="97.7" x2="266.81" y2="102"/><line class="cls-3" x1="120.89" y1="56.85" x2="191.29" y2="56.85"/><line class="cls-2" x1="171.56" y1="118.12" x2="241.97" y2="118.12"/><line class="cls-2" x1="101.62" y1="118.12" x2="133.68" y2="118.12"/><line class="cls-3" x1="105.9" y1="51.35" x2="94.9" y2="62.35"/><line class="cls-3" x1="115.93" y1="51.35" x2="104.93" y2="62.35"/><path class="cls-2" d="M238,146.08A13.54,13.54,0,0,1,238,131"/><line class="cls-3" x1="208.52" y1="77.27" x2="224.07" y2="77.27"/><line class="cls-2" x1="155.24" y1="77.27" x2="185.02" y2="77.27"/><line class="cls-2" x1="120.89" y1="77.27" x2="136.44" y2="77.27"/><polyline class="cls-3" points="201.33 71.8 194.39 77.27 201.33 82.75"/><path class="cls-2" d="M148.21,84.81a14.92,14.92,0,0,1-2.29-7.54,14.91,14.91,0,0,1,2.29-7.53"/><path class="cls-2" d="M248.46,69.74c-4.13,0,1,7.53-4.45,7.53,5.46,0,.32,7.54,4.45,7.54-4.13,0,1-7.54-4.45-7.54"/><path class="cls-2" d="M232,69.74a14.91,14.91,0,0,1,2.29,7.53A14.92,14.92,0,0,1,232,84.81"/><path class="cls-2" d="M266.94,131a13.54,13.54,0,0,1,0,15.07"/><line class="cls-2" x1="321.42" y1="118.12" x2="336.98" y2="118.12"/><line class="cls-2" x1="322.97" y1="138.54" x2="338.52" y2="138.54"/><line class="cls-2" x1="347.07" y1="138.54" x2="362.62" y2="138.54"/><line class="cls-2" x1="456.9" y1="138.54" x2="472.45" y2="138.54"/><line class="cls-2" x1="428.85" y1="118.12" x2="444.41" y2="118.12"/><line class="cls-2" x1="420.24" y1="138.54" x2="435.8" y2="138.54"/><line class="cls-2" x1="341.26" y1="98.05" x2="390.17" y2="98.05"/><line class="cls-2" x1="317.11" y1="97.7" x2="332.66" y2="97.7"/><line class="cls-2" x1="374.36" y1="138.54" x2="404.14" y2="138.54"/><line class="cls-2" x1="347.07" y1="199.81" x2="362.62" y2="199.81"/><line class="cls-2" x1="371.16" y1="199.81" x2="386.72" y2="199.81"/><line class="cls-2" x1="398.46" y1="199.81" x2="428.24" y2="199.81"/><line class="cls-2" x1="455.9" y1="118.12" x2="485.68" y2="118.12"/><line class="cls-2" x1="276.53" y1="97.7" x2="306.32" y2="97.7"/><line class="cls-2" x1="480.23" y1="138.54" x2="480.23" y2="142.85"/><line class="cls-2" x1="494.07" y1="118.12" x2="494.07" y2="122.43"/><line class="cls-2" x1="397.42" y1="97.7" x2="397.42" y2="102"/><line class="cls-2" x1="347.07" y1="118.12" x2="417.48" y2="118.12"/><path class="cls-2" d="M413.46,146.08a13.54,13.54,0,0,1,0-15.07"/><path class="cls-2" d="M442.45,131a13.54,13.54,0,0,1,0,15.07"/><line class="cls-2" x1="213.91" y1="158.99" x2="229.46" y2="158.99"/><line class="cls-2" x1="194.85" y1="166.52" x2="194.85" y2="151.45"/><line class="cls-2" x1="204.08" y1="166.52" x2="204.08" y2="151.45"/><line class="cls-2" x1="145.92" y1="199.81" x2="161.47" y2="199.81"/><line class="cls-2" x1="147.46" y1="220.23" x2="163.02" y2="220.23"/><line class="cls-2" x1="171.56" y1="220.23" x2="187.11" y2="220.23"/><line class="cls-2" x1="281.39" y1="220.23" x2="296.95" y2="220.23"/><line class="cls-2" x1="213.48" y1="199.81" x2="229.03" y2="199.81"/><line class="cls-2" x1="321.42" y1="179.39" x2="336.98" y2="179.39"/><line class="cls-2" x1="244.74" y1="220.23" x2="260.29" y2="220.23"/><line class="cls-2" x1="210.91" y1="179.39" x2="226.47" y2="179.39"/><line class="cls-2" x1="155.24" y1="158.99" x2="185.02" y2="158.99"/><line class="cls-2" x1="198.85" y1="220.23" x2="228.64" y2="220.23"/><line class="cls-2" x1="240.52" y1="199.81" x2="270.3" y2="199.81"/><line class="cls-2" x1="173.07" y1="199.81" x2="202.85" y2="199.81"/><line class="cls-2" x1="58.68" y1="199.81" x2="88.46" y2="199.81"/><line class="cls-2" x1="145.92" y1="179.39" x2="201.33" y2="179.39"/><line class="cls-2" x1="304.72" y1="220.23" x2="304.72" y2="224.54"/><line class="cls-2" x1="334.77" y1="199.81" x2="334.77" y2="204.12"/><line class="cls-2" x1="435.8" y1="199.81" x2="435.8" y2="204.12"/><line class="cls-2" x1="345.02" y1="179.39" x2="345.02" y2="183.69"/><line class="cls-2" x1="120.89" y1="158.99" x2="136.44" y2="158.99"/><line class="cls-2" x1="238.43" y1="179.39" x2="308.84" y2="179.39"/><line class="cls-2" x1="58.68" y1="179.39" x2="129.09" y2="179.39"/><line class="cls-2" x1="464.35" y1="179.39" x2="479.9" y2="179.39"/><line class="cls-2" x1="353.84" y1="179.39" x2="369.4" y2="179.39"/><line class="cls-2" x1="487.94" y1="179.39" x2="487.94" y2="183.69"/><line class="cls-2" x1="381.36" y1="179.39" x2="451.77" y2="179.39"/><path class="cls-2" d="M148.21,166.52a13.54,13.54,0,0,1,0-15.07"/><path class="cls-2" d="M238,227.77a13.54,13.54,0,0,1,0-15.07"/><path class="cls-2" d="M383,151.45c-4.13,0,1,7.54-4.45,7.54,5.46,0,.32,7.53,4.45,7.53-4.13,0,1-7.53-4.45-7.53"/><path class="cls-2" d="M237.34,151.45a13.54,13.54,0,0,1,0,15.07"/><line class="cls-2" x1="342.49" y1="158.99" x2="358.05" y2="158.99"/><line class="cls-2" x1="323.44" y1="166.52" x2="323.44" y2="151.45"/><line class="cls-2" x1="332.66" y1="166.52" x2="332.66" y2="151.45"/><line class="cls-3" x1="301.91" y1="199.81" x2="317.46" y2="199.81"/><path class="cls-2" d="M282.88,207.35a13.56,13.56,0,0,1,0-15.08"/><path class="cls-2" d="M324.11,192.27a13.56,13.56,0,0,1,0,15.08"/><line class="cls-3" x1="293.5" y1="207.35" x2="293.5" y2="192.27"/><line class="cls-2" x1="66.11" y1="118.12" x2="81.66" y2="118.12"/><path class="cls-2" d="M47.08,125.66a13.56,13.56,0,0,1,0-15.08"/><path class="cls-2" d="M88.32,110.58a13.56,13.56,0,0,1,0,15.08"/><line class="cls-2" x1="57.71" y1="125.66" x2="57.71" y2="110.58"/><line class="cls-3" x1="102.3" y1="260.17" x2="117.86" y2="260.17"/><path class="cls-2" d="M83.28,267.71a13.56,13.56,0,0,1,0-15.08"/><path class="cls-2" d="M124.51,252.63a13.56,13.56,0,0,1,0,15.08"/><line class="cls-3" x1="93.9" y1="267.71" x2="93.9" y2="252.63"/><line class="cls-2" x1="283.82" y1="158.99" x2="313.61" y2="158.99"/><line class="cls-2" x1="249.47" y1="158.99" x2="265.02" y2="158.99"/><path class="cls-2" d="M276.79,166.52a13.54,13.54,0,0,1,0-15.07"/><path class="cls-2" d="M365.93,151.45a13.54,13.54,0,0,1,0,15.07"/><path class="cls-2" d="M266.94,212.7a13.54,13.54,0,0,1,0,15.07"/><line class="cls-2" x1="347.07" y1="280.59" x2="362.62" y2="280.59"/><line class="cls-2" x1="371.16" y1="280.59" x2="386.72" y2="280.59"/><line class="cls-2" x1="398.46" y1="280.59" x2="428.24" y2="280.59"/><line class="cls-2" x1="118.67" y1="280.59" x2="134.23" y2="280.59"/><line class="cls-2" x1="103.89" y1="199.81" x2="133.68" y2="199.81"/><line class="cls-2" x1="145.92" y1="280.59" x2="161.47" y2="280.59"/><line class="cls-2" x1="147.46" y1="301.02" x2="163.02" y2="301.02"/><line class="cls-2" x1="171.56" y1="301.02" x2="187.11" y2="301.02"/><line class="cls-2" x1="281.39" y1="301.02" x2="296.95" y2="301.02"/><line class="cls-2" x1="213.48" y1="280.59" x2="229.03" y2="280.59"/><line class="cls-2" x1="321.42" y1="260.17" x2="336.98" y2="260.17"/><line class="cls-2" x1="244.74" y1="301.02" x2="260.29" y2="301.02"/><line class="cls-2" x1="210.91" y1="260.17" x2="226.47" y2="260.17"/><line class="cls-2" x1="198.85" y1="301.02" x2="228.64" y2="301.02"/><line class="cls-2" x1="240.52" y1="280.59" x2="270.3" y2="280.59"/><line class="cls-2" x1="173.07" y1="280.59" x2="202.85" y2="280.59"/><line class="cls-2" x1="145.92" y1="260.17" x2="201.33" y2="260.17"/><line class="cls-2" x1="304.72" y1="301.02" x2="304.72" y2="305.32"/><line class="cls-2" x1="334.77" y1="280.59" x2="334.77" y2="284.9"/><line class="cls-2" x1="435.8" y1="280.59" x2="435.8" y2="284.9"/><line class="cls-2" x1="345.02" y1="260.17" x2="345.02" y2="264.48"/><line class="cls-2" x1="238.43" y1="260.17" x2="308.84" y2="260.17"/><line class="cls-2" x1="464.35" y1="260.17" x2="479.9" y2="260.17"/><line class="cls-2" x1="353.84" y1="260.17" x2="369.4" y2="260.17"/><line class="cls-2" x1="487.94" y1="260.17" x2="487.94" y2="264.48"/><line class="cls-2" x1="381.36" y1="260.17" x2="451.77" y2="260.17"/><path class="cls-2" d="M238,308.55a13.54,13.54,0,0,1,0-15.07"/><path class="cls-2" d="M383,232.23c-4.13,0,1,7.54-4.45,7.54,5.46,0,.32,7.54,4.45,7.54-4.13,0,1-7.54-4.45-7.54"/><line class="cls-2" x1="342.49" y1="239.77" x2="358.05" y2="239.77"/><line class="cls-2" x1="323.44" y1="247.31" x2="323.44" y2="232.23"/><line class="cls-2" x1="332.66" y1="247.31" x2="332.66" y2="232.23"/><line class="cls-3" x1="301.91" y1="280.59" x2="317.46" y2="280.59"/><path class="cls-2" d="M282.88,288.13a13.54,13.54,0,0,1,0-15.07"/><path class="cls-2" d="M324.11,273.06a13.54,13.54,0,0,1,0,15.07"/><line class="cls-3" x1="293.5" y1="288.13" x2="293.5" y2="273.06"/><line class="cls-2" x1="283.82" y1="239.77" x2="313.61" y2="239.77"/><line class="cls-2" x1="249.47" y1="239.77" x2="265.02" y2="239.77"/><path class="cls-2" d="M276.79,247.31a13.56,13.56,0,0,1,0-15.08"/><path class="cls-2" d="M365.93,232.23a13.56,13.56,0,0,1,0,15.08"/><path class="cls-2" d="M266.94,293.48a13.54,13.54,0,0,1,0,15.07"/><line class="cls-3" x1="162.17" y1="382.76" x2="177.73" y2="382.76"/><line class="cls-3" x1="219.57" y1="382.76" x2="235.12" y2="382.76"/><line class="cls-3" x1="194.25" y1="382.76" x2="209.8" y2="382.76"/><line class="cls-3" x1="121.47" y1="382.76" x2="151.26" y2="382.76"/><line class="cls-3" x1="185.33" y1="382.76" x2="185.33" y2="387.07"/><line class="cls-3" x1="242.36" y1="382.76" x2="242.36" y2="387.07"/><line class="cls-3" x1="120.89" y1="341.92" x2="191.29" y2="341.92"/><line class="cls-3" x1="105.9" y1="336.42" x2="94.9" y2="347.42"/><line class="cls-3" x1="115.93" y1="336.42" x2="104.93" y2="347.42"/><line class="cls-3" x1="105.9" y1="356.84" x2="94.9" y2="367.84"/><line class="cls-3" x1="115.93" y1="356.84" x2="104.93" y2="367.84"/><line class="cls-3" x1="105.9" y1="377.26" x2="94.9" y2="388.26"/><line class="cls-3" x1="115.93" y1="377.26" x2="104.93" y2="388.26"/><line class="cls-3" x1="185.24" y1="362.34" x2="200.79" y2="362.34"/><line class="cls-3" x1="144.92" y1="362.34" x2="174.7" y2="362.34"/><line class="cls-3" x1="209.15" y1="362.34" x2="238.94" y2="362.34"/><line class="cls-3" x1="247.23" y1="362.34" x2="295.28" y2="362.34"/><line class="cls-3" x1="120.89" y1="362.34" x2="136.44" y2="362.34"/><line class="cls-3" x1="316.81" y1="383.12" x2="365.73" y2="383.12"/><line class="cls-3" x1="292.66" y1="382.76" x2="308.22" y2="382.76"/><line class="cls-3" x1="252.09" y1="382.76" x2="281.87" y2="382.76"/><line class="cls-3" x1="372.98" y1="382.76" x2="372.98" y2="387.07"/><path class="cls-4" d="M409.14,80.05V87.5a6.69,6.69,0,0,0,6.67,6.67h13.46a2.8,2.8,0,0,1,2.47,1.45l4.89,8.79,4.88-8.79A2.83,2.83,0,0,1,444,94.17h13.47a6.69,6.69,0,0,0,6.67-6.67V45.86a6.69,6.69,0,0,0-6.67-6.67H415.81a6.69,6.69,0,0,0-6.67,6.67V80.05"/><g class="cls-5"><path class="cls-6" d="M412.61,87.8V59a15.55,15.55,0,0,1,15.5-15.5h-15.5Z"/></g><path class="cls-7" d="M409.14,80.05V87.5a6.69,6.69,0,0,0,6.67,6.67h13.46a2.8,2.8,0,0,1,2.47,1.45l4.89,8.79,4.88-8.79A2.83,2.83,0,0,1,444,94.17h13.47a6.69,6.69,0,0,0,6.67-6.67V45.86a6.69,6.69,0,0,0-6.67-6.67H415.81a6.69,6.69,0,0,0-6.67,6.67V80.05"/><line class="cls-7" x1="429.1" y1="59.15" x2="444.16" y2="74.21"/><line class="cls-7" x1="429.1" y1="74.21" x2="444.16" y2="59.15"/><path class="cls-4" d="M150,228.48v7.45a6.68,6.68,0,0,0,6.66,6.66h13.47a2.84,2.84,0,0,1,2.47,1.46l4.88,8.78,4.89-8.78a2.82,2.82,0,0,1,2.47-1.46h13.46a6.69,6.69,0,0,0,6.67-6.66V194.28a6.69,6.69,0,0,0-6.67-6.66H156.67a6.68,6.68,0,0,0-6.66,6.66v34.2"/><g class="cls-8"><path class="cls-9" d="M153.48,236.22V207.44A15.54,15.54,0,0,1,169,191.94H153.48Z"/></g><path class="cls-7" d="M150,228.48v7.45a6.68,6.68,0,0,0,6.66,6.66h13.47a2.84,2.84,0,0,1,2.47,1.46l4.88,8.78,4.89-8.78a2.82,2.82,0,0,1,2.47-1.46h13.46a6.69,6.69,0,0,0,6.67-6.66V194.28a6.69,6.69,0,0,0-6.67-6.66H156.67a6.68,6.68,0,0,0-6.66,6.66v34.2"/><line class="cls-7" x1="169.97" y1="207.58" x2="185.02" y2="222.63"/><line class="cls-7" x1="169.97" y1="222.63" x2="185.02" y2="207.58"/></svg>