<svg id="Capa_2" data-name="Capa 2" xmlns="http://www.w3.org/2000/svg" viewBox="0 0 150 150"><defs><style>.cls-1{fill:#8e68a4;}</style></defs><path class="cls-1" d="M14.34,67V80.05a19.81,19.81,0,0,1-2.38.42,25.49,25.49,0,0,1-3.29.21q-3.7,0-5.14-1.26c-1-.83-1.43-2.35-1.43-4.54V41.72a3,3,0,0,1,.8-2.27,5.71,5.71,0,0,1,2.2-1.3,26.08,26.08,0,0,1,5.63-1.22,50.09,50.09,0,0,1,5.92-.39q9.65,0,14.76,4.13a13.63,13.63,0,0,1,5.1,11.19,14.43,14.43,0,0,1-1.29,6.19,13.77,13.77,0,0,1-3.64,4.76,16.41,16.41,0,0,1-5.7,3.08A24.37,24.37,0,0,1,18.39,67Zm3.28-9.58A7.12,7.12,0,0,0,22.31,56a5,5,0,0,0,1.75-4.09,5.16,5.16,0,0,0-1.64-4.09,7.08,7.08,0,0,0-4.8-1.43c-.74,0-1.36,0-1.85,0a9.89,9.89,0,0,0-1.5.18V57.39Z"/><path class="cls-1" d="M56.77,80.68a24.47,24.47,0,0,1-7.9-1.18,16.92,16.92,0,0,1-5.95-3.4,14.63,14.63,0,0,1-3.75-5.31,17.84,17.84,0,0,1-1.29-6.89v-27l2.45-.38a21.72,21.72,0,0,1,3.22-.25q3.5,0,5,1.19t1.54,4.62V63.69A7.14,7.14,0,0,0,52,68.93a7,7,0,0,0,9.58,0,7.13,7.13,0,0,0,1.85-5.24V36.89l2.45-.38a21.83,21.83,0,0,1,3.22-.25q3.49,0,5,1.19t1.53,4.62V63.9a17.66,17.66,0,0,1-1.29,6.89,14.6,14.6,0,0,1-3.74,5.31,17.14,17.14,0,0,1-5.94,3.4A24.62,24.62,0,0,1,56.77,80.68Z"/><path class="cls-1" d="M96.12,67.11,87.24,80.54c-.38,0-.73.09-1,.11l-1,0c-2.66,0-4.62-.53-5.88-1.61a5,5,0,0,1-1.89-4,6.89,6.89,0,0,1,.88-3.54A31.7,31.7,0,0,1,80.8,68l7.34-9.37L77,42.91a9.44,9.44,0,0,1,1-2,7.8,7.8,0,0,1,1.58-1.78,8,8,0,0,1,2.2-1.33,7.2,7.2,0,0,1,2.8-.53,6.27,6.27,0,0,1,3.56,1,11.79,11.79,0,0,1,3.15,3.46l5.46,8.39L104.86,38a8.83,8.83,0,0,1,1.54-.38,11.27,11.27,0,0,1,2-.18A7.26,7.26,0,0,1,113.36,39a4.82,4.82,0,0,1,1.79,3.78,6.22,6.22,0,0,1-1,3.5c-.68,1-1.6,2.26-2.76,3.7s-2.38,3-3.5,4.41-2.28,2.89-3.5,4.34L116,75.09a7,7,0,0,1-2.42,4.09,7.7,7.7,0,0,1-5,1.5,5.87,5.87,0,0,1-3.46-1,12.73,12.73,0,0,1-3-3.46Z"/><path class="cls-1" d="M119.1,78.94a6.47,6.47,0,0,1-1.74-4.76V37.94l2.45-.38a21.59,21.59,0,0,1,3.21-.25q3.49,0,5,1.19c1,.79,1.54,2.34,1.54,4.62v27.7h16a9.56,9.56,0,0,1,.91,2,8.87,8.87,0,0,1,.42,2.73,5.66,5.66,0,0,1-1.12,3.84,3.92,3.92,0,0,1-3.08,1.26H123.86A6.45,6.45,0,0,1,119.1,78.94Z"/><path class="cls-1" d="M14.93,102.66H8.57c-.23.84-.44,1.63-.61,2.36l-.51,2a10.52,10.52,0,0,1-1,.29,5.61,5.61,0,0,1-1.32.13,4.56,4.56,0,0,1-2.65-.62,2,2,0,0,1-.87-1.7,3.76,3.76,0,0,1,.14-1c.1-.32.2-.71.32-1.16.17-.63.39-1.42.69-2.37s.61-2,1-3.06.73-2.2,1.13-3.34S5.58,92,5.93,91s.68-1.94,1-2.75.52-1.42.69-1.84a7.16,7.16,0,0,1,1.81-.67,9.61,9.61,0,0,1,2.44-.32,8.78,8.78,0,0,1,3.11.51,2.72,2.72,0,0,1,1.74,1.64c.42,1.19.88,2.6,1.37,4.22s1,3.29,1.48,5,1,3.42,1.44,5.1.88,3.15,1.23,4.44a2.79,2.79,0,0,1-1.26.79,6.08,6.08,0,0,1-2,.3,3.84,3.84,0,0,1-2.39-.56,3.37,3.37,0,0,1-1-1.79ZM11.81,91l-1.1,3.2c-.39,1.18-.78,2.43-1.16,3.77h4.37c-.33-1.34-.67-2.6-1-3.78S12.27,91.89,12,91Z"/><path class="cls-1" d="M26.14,92.5a5.23,5.23,0,0,1-1.06-1,2.7,2.7,0,0,1-.52-1.76c0-1.41.85-2.39,2.56-3l3.94-1.34h1.3a3,3,0,0,1,3.27,3.27v18.32a10.42,10.42,0,0,1-1.1.21,11.11,11.11,0,0,1-1.57.1,4.27,4.27,0,0,1-2.53-.58,2.63,2.63,0,0,1-.77-2.23V91.41Z"/><path class="cls-1" d="M39.56,92.5a5.23,5.23,0,0,1-1.06-1A2.7,2.7,0,0,1,38,89.76c0-1.41.85-2.39,2.56-3l3.94-1.34h1.3a3,3,0,0,1,3.27,3.27v18.32a10.42,10.42,0,0,1-1.1.21,11.11,11.11,0,0,1-1.57.1,4.27,4.27,0,0,1-2.53-.58,2.63,2.63,0,0,1-.77-2.23V91.41Z"/><path class="cls-1" d="M55.19,102.73c-.25-.58-.53-1.24-.82-2s-.6-1.56-.92-2.49-.64-2-1-3.22-.7-2.6-1.07-4.17A4.44,4.44,0,0,1,52.71,90a4.55,4.55,0,0,1,1.82-.37,3.73,3.73,0,0,1,2,.51,3.14,3.14,0,0,1,1.2,1.92L59.15,97c.45,1.6.92,3.2,1.39,4.8h.14c.28-.8.55-1.67.82-2.6s.54-1.91.8-2.9.49-2,.72-3,.41-2,.57-2.94a6.27,6.27,0,0,1,1.24-.49,4.8,4.8,0,0,1,1.33-.18,4.26,4.26,0,0,1,2.15.53A1.93,1.93,0,0,1,69.22,92a15.82,15.82,0,0,1-.44,3.36,40.21,40.21,0,0,1-1.14,4c-.47,1.39-1,2.76-1.58,4.09A37.14,37.14,0,0,1,64.3,107a24.73,24.73,0,0,1-3.67,5.08,4.93,4.93,0,0,1-3.4,1.64,3.34,3.34,0,0,1-2.35-.88,3.61,3.61,0,0,1-1.13-2.29A27.72,27.72,0,0,0,56,108.43,20.38,20.38,0,0,0,58,106a3.29,3.29,0,0,1-1.28-.83A8,8,0,0,1,55.19,102.73Z"/><path class="cls-1" d="M72,105.76a4.76,4.76,0,0,1-.38-1.94A4,4,0,0,1,72,102a9.57,9.57,0,0,1,1.09-1.69l8.09-9.63H72.55a4,4,0,0,1-.47-1,4.57,4.57,0,0,1-.2-1.39,2.8,2.8,0,0,1,.6-2,2.13,2.13,0,0,1,1.62-.63H87.21a4.15,4.15,0,0,1,1.55,3.38,4.1,4.1,0,0,1-.41,1.74,8.1,8.1,0,0,1-1,1.63l-8,9.63h9.07a6,6,0,0,1,.45,1.06,4.42,4.42,0,0,1,.21,1.4,2.83,2.83,0,0,1-.57,2,2.12,2.12,0,0,1-1.61.61H72.94A3.71,3.71,0,0,1,72,105.76Z"/><path class="cls-1" d="M109.77,98.55a10.32,10.32,0,0,1-.65,3.79,7.75,7.75,0,0,1-1.86,2.87,8.24,8.24,0,0,1-2.9,1.81,10.82,10.82,0,0,1-3.8.63,11.1,11.1,0,0,1-3.8-.61,8.19,8.19,0,0,1-2.9-1.79A8,8,0,0,1,92,102.38a10.64,10.64,0,0,1-.65-3.83A10,10,0,0,1,92,94.79a8,8,0,0,1,1.88-2.87,8.38,8.38,0,0,1,2.9-1.81,10.67,10.67,0,0,1,3.76-.63,10.44,10.44,0,0,1,3.76.65,8.33,8.33,0,0,1,2.9,1.83,8,8,0,0,1,1.88,2.86A10,10,0,0,1,109.77,98.55Zm-9.21-4.4a2.61,2.61,0,0,0-2.28,1.15,5.55,5.55,0,0,0-.81,3.25,5.62,5.62,0,0,0,.81,3.32,2.89,2.89,0,0,0,4.57,0,5.62,5.62,0,0,0,.81-3.3,5.55,5.55,0,0,0-.81-3.25A2.63,2.63,0,0,0,100.56,94.15Z"/><path class="cls-1" d="M128.92,107.06a9.31,9.31,0,0,1-1.11.21,10.86,10.86,0,0,1-1.56.1,4.25,4.25,0,0,1-2.53-.58,2.63,2.63,0,0,1-.77-2.23v-8.3a1.93,1.93,0,0,0-.65-1.6,2.72,2.72,0,0,0-1.71-.51,4.68,4.68,0,0,0-1.32.18,6.62,6.62,0,0,0-1.17.46v12.27a10.2,10.2,0,0,1-1.11.21,11,11,0,0,1-1.57.1,4.27,4.27,0,0,1-2.53-.58,2.66,2.66,0,0,1-.77-2.23V94a2.7,2.7,0,0,1,.4-1.55,4.27,4.27,0,0,1,1.11-1.09,9.87,9.87,0,0,1,3-1.35,14.73,14.73,0,0,1,4-.51,9.49,9.49,0,0,1,6.12,1.74,5.91,5.91,0,0,1,2.14,4.87Z"/><path class="cls-1" d="M137.14,100.9a3.06,3.06,0,0,0,1.65,1.78,6.42,6.42,0,0,0,2.6.51,10.38,10.38,0,0,0,2.82-.37,8.62,8.62,0,0,0,2.14-.86,2.88,2.88,0,0,1,1,1,2.51,2.51,0,0,1,.39,1.34,2.42,2.42,0,0,1-.49,1.51,3.81,3.81,0,0,1-1.39,1,7.64,7.64,0,0,1-2.13.62,17.37,17.37,0,0,1-2.71.19,12.28,12.28,0,0,1-3.85-.58,8.3,8.3,0,0,1-3.07-1.74,7.88,7.88,0,0,1-2-2.91,10.67,10.67,0,0,1-.74-4.12,9.57,9.57,0,0,1,.76-4,7.72,7.72,0,0,1,2-2.74A8.22,8.22,0,0,1,136.86,90a10.44,10.44,0,0,1,3.23-.51,9.9,9.9,0,0,1,3.4.56,8,8,0,0,1,2.63,1.55,6.66,6.66,0,0,1,1.71,2.35,7.39,7.39,0,0,1,.6,3,2.42,2.42,0,0,1-.67,1.83,3.4,3.4,0,0,1-1.87.81Zm3-7.06a3.19,3.19,0,0,0-2.23.81,3.44,3.44,0,0,0-1.07,2.28l6-1a2,2,0,0,0-.21-.72,2.49,2.49,0,0,0-.49-.69,2.34,2.34,0,0,0-.81-.51A3.13,3.13,0,0,0,140.13,93.84Z"/></svg>