<svg id="Capa_2" data-name="Capa 2" xmlns="http://www.w3.org/2000/svg" viewBox="0 0 150 150"><defs><style>.cls-1{fill:#171717;}</style></defs><path class="cls-1" d="M17.42,67.38V79.8a20.67,20.67,0,0,1-2.26.4,24.65,24.65,0,0,1-3.12.2c-2.35,0-4-.4-4.88-1.2S5.8,77,5.8,74.88V43.41a2.92,2.92,0,0,1,.76-2.16A5.41,5.41,0,0,1,8.65,40,24.84,24.84,0,0,1,14,38.86a47,47,0,0,1,5.62-.37q9.16,0,14,3.92A13,13,0,0,1,38.47,53a13.61,13.61,0,0,1-1.23,5.87,13.17,13.17,0,0,1-3.46,4.52,15.51,15.51,0,0,1-5.41,2.92,22.88,22.88,0,0,1-7.1,1Zm3.12-9.1A6.8,6.8,0,0,0,25,56.92,4.75,4.75,0,0,0,26.64,53a4.85,4.85,0,0,0-1.56-3.89,6.68,6.68,0,0,0-4.54-1.36c-.71,0-1.3,0-1.76,0a11.85,11.85,0,0,0-1.43.17V58.28Z"/><path class="cls-1" d="M57.7,80.4a23.29,23.29,0,0,1-7.51-1.13,16.14,16.14,0,0,1-5.64-3.22A13.81,13.81,0,0,1,41,71a16.86,16.86,0,0,1-1.23-6.54V38.83l2.33-.37a20.77,20.77,0,0,1,3-.23c2.22,0,3.81.38,4.78,1.13s1.47,2.21,1.47,4.38V64.26a6.76,6.76,0,0,0,1.76,5,6.67,6.67,0,0,0,9.09,0,6.76,6.76,0,0,0,1.76-5V38.83l2.32-.37a21,21,0,0,1,3.06-.23c2.21,0,3.81.38,4.78,1.13s1.46,2.21,1.46,4.38V64.46A16.86,16.86,0,0,1,74.39,71a13.9,13.9,0,0,1-3.55,5,16.23,16.23,0,0,1-5.64,3.22A23.31,23.31,0,0,1,57.7,80.4Z"/><path class="cls-1" d="M95.05,67.51,86.62,80.26c-.36,0-.69.08-1,.1s-.62,0-.93,0c-2.53,0-4.38-.51-5.58-1.53a4.8,4.8,0,0,1-1.79-3.79,6.48,6.48,0,0,1,.83-3.35,28.58,28.58,0,0,1,2.36-3.35l7-8.9L76.92,44.54a9,9,0,0,1,.93-1.86A8,8,0,0,1,79.34,41a8.08,8.08,0,0,1,2.1-1.26,6.84,6.84,0,0,1,2.65-.5,6.07,6.07,0,0,1,3.39,1,11.33,11.33,0,0,1,3,3.28l5.18,8,7.71-11.55a7.82,7.82,0,0,1,1.46-.37,11,11,0,0,1,1.93-.16,6.91,6.91,0,0,1,4.68,1.46,4.54,4.54,0,0,1,1.69,3.58,6,6,0,0,1-1,3.33q-1,1.46-2.62,3.51t-3.33,4.19c-1.06,1.37-2.16,2.74-3.32,4.11l11,15.54a6.66,6.66,0,0,1-2.3,3.89,7.3,7.3,0,0,1-4.74,1.43,5.56,5.56,0,0,1-3.29-1,12.33,12.33,0,0,1-2.89-3.28Z"/><path class="cls-1" d="M116.86,78.74a6.14,6.14,0,0,1-1.65-4.52V39.82l2.32-.36a19.67,19.67,0,0,1,3-.23c2.22,0,3.81.37,4.78,1.13s1.47,2.21,1.47,4.38V71H142A9.63,9.63,0,0,1,142.9,73a8.32,8.32,0,0,1,.4,2.59,5.36,5.36,0,0,1-1.07,3.65,3.69,3.69,0,0,1-2.92,1.2H121.38A6.15,6.15,0,0,1,116.86,78.74Z"/><path class="cls-1" d="M18,101.26h-6c-.22.8-.42,1.54-.58,2.23s-.33,1.34-.49,1.94a9.34,9.34,0,0,1-1,.28,5.63,5.63,0,0,1-1.25.12,4.33,4.33,0,0,1-2.52-.59,1.84,1.84,0,0,1-.82-1.61,3.8,3.8,0,0,1,.13-.94c.09-.31.19-.68.3-1.1q.24-.9.66-2.25c.27-.9.58-1.87.91-2.91S8,94.34,8.37,93.27s.73-2.11,1.07-3.08.64-1.83.92-2.6.49-1.35.65-1.75a7.25,7.25,0,0,1,1.71-.63,8.83,8.83,0,0,1,2.33-.31,8.41,8.41,0,0,1,2.95.49,2.56,2.56,0,0,1,1.65,1.55c.4,1.14.84,2.47,1.3,4s.94,3.13,1.4,4.76.93,3.25,1.37,4.84.84,3,1.17,4.22a2.81,2.81,0,0,1-1.2.75,5.71,5.71,0,0,1-1.9.29,3.57,3.57,0,0,1-2.27-.54,3.12,3.12,0,0,1-.94-1.7ZM15,90.14c-.31.92-.66,1.93-1,3s-.75,2.3-1.1,3.57H17c-.32-1.27-.63-2.46-1-3.58s-.6-2.13-.85-3Z"/><path class="cls-1" d="M28.62,91.61a4.72,4.72,0,0,1-1-.93,2.5,2.5,0,0,1-.5-1.67c0-1.34.81-2.27,2.43-2.8l3.74-1.27h1.24a2.87,2.87,0,0,1,3.1,3.1v17.39a10,10,0,0,1-1.05.2,9.89,9.89,0,0,1-1.49.1,4,4,0,0,1-2.4-.55,2.52,2.52,0,0,1-.73-2.12V90.58Z"/><path class="cls-1" d="M41.36,91.61a4.49,4.49,0,0,1-1-.93,2.5,2.5,0,0,1-.5-1.67c0-1.34.81-2.27,2.43-2.8L46,84.94h1.24a2.87,2.87,0,0,1,3.1,3.1v17.39a10,10,0,0,1-1,.2,9.89,9.89,0,0,1-1.49.1,4,4,0,0,1-2.4-.55,2.52,2.52,0,0,1-.73-2.12V90.58Z"/><path class="cls-1" d="M56.2,101.32c-.25-.55-.51-1.18-.79-1.86s-.56-1.48-.86-2.37-.62-1.91-.94-3.06-.66-2.46-1-4a4.11,4.11,0,0,1,1.25-.82,4.28,4.28,0,0,1,1.73-.35,3.59,3.59,0,0,1,1.93.48,3,3,0,0,1,1.14,1.82L60,95.83q.66,2.3,1.32,4.56h.13c.27-.76.53-1.58.79-2.47s.51-1.81.75-2.75.47-1.89.68-2.84.4-1.87.55-2.79a5.8,5.8,0,0,1,1.17-.46,4.81,4.81,0,0,1,1.27-.17,4.06,4.06,0,0,1,2,.5,1.82,1.82,0,0,1,.86,1.73,15.21,15.21,0,0,1-.41,3.19A37.49,37.49,0,0,1,68,98.17c-.44,1.32-.94,2.62-1.5,3.89a33.45,33.45,0,0,1-1.67,3.34,23.36,23.36,0,0,1-3.49,4.82,4.65,4.65,0,0,1-3.22,1.55,3.17,3.17,0,0,1-2.23-.83,3.44,3.44,0,0,1-1.07-2.17,26.75,26.75,0,0,0,2.14-2,20.28,20.28,0,0,0,1.87-2.3,3,3,0,0,1-1.22-.79A7.48,7.48,0,0,1,56.2,101.32Z"/><path class="cls-1" d="M72.11,104.2a4.32,4.32,0,0,1-.37-1.84,3.65,3.65,0,0,1,.44-1.7,8.17,8.17,0,0,1,1-1.61l7.67-9.14h-8.2a4.25,4.25,0,0,1-.46-1A4.48,4.48,0,0,1,72,87.61a2.63,2.63,0,0,1,.57-1.87,2,2,0,0,1,1.53-.6H86.59A4.07,4.07,0,0,1,87.68,90a7.6,7.6,0,0,1-1,1.56l-7.64,9.14h8.61a5.64,5.64,0,0,1,.43,1,4.05,4.05,0,0,1,.2,1.34,2.62,2.62,0,0,1-.55,1.85,2,2,0,0,1-1.52.58H73A3.4,3.4,0,0,1,72.11,104.2Z"/><path class="cls-1" d="M108,97.35a10,10,0,0,1-.62,3.61,7.46,7.46,0,0,1-1.77,2.72,7.83,7.83,0,0,1-2.75,1.72,10.24,10.24,0,0,1-3.61.6,10.45,10.45,0,0,1-3.6-.59,7.51,7.51,0,0,1-2.75-1.7A7.38,7.38,0,0,1,91.14,101a10.1,10.1,0,0,1-.62-3.64,9.49,9.49,0,0,1,.64-3.57,7.61,7.61,0,0,1,1.78-2.72,8,8,0,0,1,2.75-1.72,10.13,10.13,0,0,1,3.57-.6,9.83,9.83,0,0,1,3.57.62,8,8,0,0,1,2.76,1.74,7.57,7.57,0,0,1,1.78,2.71A9.41,9.41,0,0,1,108,97.35Zm-8.75-4.17a2.48,2.48,0,0,0-2.16,1.09,5.21,5.21,0,0,0-.77,3.08,5.3,5.3,0,0,0,.77,3.16,2.74,2.74,0,0,0,4.33,0,5.29,5.29,0,0,0,.77-3.14,5.21,5.21,0,0,0-.77-3.08A2.48,2.48,0,0,0,99.26,93.18Z"/><path class="cls-1" d="M126.19,105.43a10.77,10.77,0,0,1-2.54.3,4,4,0,0,1-2.4-.55,2.52,2.52,0,0,1-.74-2.12V95.18a1.79,1.79,0,0,0-.61-1.51,2.54,2.54,0,0,0-1.62-.49,4.55,4.55,0,0,0-1.25.17,6,6,0,0,0-1.12.43v11.65a10.58,10.58,0,0,1-2.54.3,4,4,0,0,1-2.4-.55,2.52,2.52,0,0,1-.74-2.12V93a2.5,2.5,0,0,1,.39-1.46,4,4,0,0,1,1-1,9.4,9.4,0,0,1,2.85-1.28,13.81,13.81,0,0,1,3.82-.49,8.94,8.94,0,0,1,5.81,1.66,5.61,5.61,0,0,1,2,4.62Z"/><path class="cls-1" d="M134,99.59a2.87,2.87,0,0,0,1.57,1.68,5.91,5.91,0,0,0,2.46.49,10.2,10.2,0,0,0,2.68-.35,8.43,8.43,0,0,0,2-.82,2.68,2.68,0,0,1,.9.93,2.39,2.39,0,0,1,.37,1.27,2.28,2.28,0,0,1-.47,1.44,3.54,3.54,0,0,1-1.32,1,7.2,7.2,0,0,1-2,.58,15.65,15.65,0,0,1-2.57.19,11.88,11.88,0,0,1-3.65-.55,8.09,8.09,0,0,1-2.92-1.66,7.56,7.56,0,0,1-1.94-2.77,10.13,10.13,0,0,1-.7-3.9,9.12,9.12,0,0,1,.72-3.79,7.37,7.37,0,0,1,1.9-2.6,7.67,7.67,0,0,1,2.69-1.5,9.72,9.72,0,0,1,3.07-.49,9.18,9.18,0,0,1,3.22.54,7.63,7.63,0,0,1,2.5,1.46A6.44,6.44,0,0,1,144.13,93a7,7,0,0,1,.57,2.84,2.28,2.28,0,0,1-.63,1.73,3.21,3.21,0,0,1-1.77.77Zm2.83-6.71a3,3,0,0,0-2.11.77,3.3,3.3,0,0,0-1,2.17l5.67-.94a2,2,0,0,0-.2-.68,2.38,2.38,0,0,0-.47-.65,2.11,2.11,0,0,0-.77-.48A2.81,2.81,0,0,0,136.82,92.88Z"/></svg>