<?xml version="1.0" encoding="utf-8"?>
<!-- Generator: Adobe Illustrator 24.3.0, SVG Export Plug-In . SVG Version: 6.00 Build 0)  -->
<svg version="1.1" id="Capa_2_1_" xmlns="http://www.w3.org/2000/svg" xmlns:xlink="http://www.w3.org/1999/xlink" x="0px" y="0px"
	 viewBox="0 0 85.9 76.3" style="enable-background:new 0 0 85.9 76.3;" xml:space="preserve">
<style type="text/css">
	.st0{fill:url(#SVGID_1_);}
	.st1{fill:#8E68A4;}
</style>
<linearGradient id="SVGID_1_" gradientUnits="userSpaceOnUse" x1="43.425" y1="-284.4002" x2="43.425" y2="-263.1002" gradientTransform="matrix(1 0 0 -1 0 -251.6202)">
	<stop  offset="0" style="stop-color:#FFFFFF"/>
	<stop  offset="1" style="stop-color:#8E68A4"/>
</linearGradient>
<path class="st0" d="M55.8,21c-0.1,6.9-5.7,12.4-12.6,12.3c-6.5-0.1-11.8-5.1-12.3-11.6c0.6-0.3,1.4-0.1,1.8,0.6
	c1.7,4,4.6,7,8.7,7.6c3.5,0.6,5.8-0.8,7-2.1c3.3-3.8,3.6-11.6-4.9-16C42.2,11.1,43,9,44.6,9l0,0c0.9,0,1.8,0.1,2.7,0.3
	C52.4,10.9,55.8,15.7,55.8,21z"/>
<path d="M43.4,52.5c-20.3,0-29.7-11.3-30.7-12.6c-0.5-0.8-0.3-1.9,0.5-2.4c0.7-0.5,1.7-0.4,2.3,0.3c0.9,1.2,9.3,11.3,28,11.3
	s27.1-10.1,28-11.3l1.4,1.1l1.4,1.1C73.1,41.1,63.7,52.5,43.4,52.5z M43.4,36.1c-8.5,0-15.4-6.9-15.4-15.3C28,12.9,34,6.3,41.8,5.5
	h0.1h1.4h0.1h1.4H45c8.4,0.9,14.6,8.4,13.7,16.8C57.9,30.2,51.3,36.1,43.4,36.1z M42.1,9C35.6,9.7,30.9,15.5,31.6,22
	c0.7,6.5,6.6,11.2,13.1,10.5c6.5-0.7,11.2-6.6,10.5-13.1c-0.6-5.5-5-9.9-10.5-10.5h-1.3H42.1z M2.7,27.3c-0.1,0-0.3,0-0.4,0
	c-1-0.2-1.6-1.2-1.3-2.1c0,0,0,0,0,0C1,24.9,7,0,43.4,0c34.5,0,41.7,22.5,42.4,25.1c0.3,0.9-0.3,1.9-1.2,2.2c0,0,0,0,0,0
	c-0.9,0.3-1.9-0.3-2.1-1.2l0,0c-0.6-2.3-7.1-22.5-39.1-22.5C9.9,3.5,4.5,25.8,4.4,26C4.2,26.8,3.5,27.3,2.7,27.3z"/>
<path d="M53.3,71.1H37.1c-1,0-1.8,0.8-1.8,1.8s0.8,1.8,1.8,1.8h16.1c1,0,1.8-0.8,1.8-1.8S54.2,71.1,53.3,71.1L53.3,71.1z M46.1,60.5
	c0-1-0.8-1.7-1.7-1.8H23c-1,0-1.8,0.8-1.8,1.8s0.8,1.8,1.8,1.8h21.4C45.4,62.2,46.1,61.5,46.1,60.5C46.1,60.5,46.1,60.5,46.1,60.5z"
	/>
<path class="st1" d="M0,51l12.7,12.6L0,76.3V51z"/>
</svg>
