<svg xmlns="http://www.w3.org/2000/svg" xmlns:xlink="http://www.w3.org/1999/xlink" viewBox="0 0 476.7 452.8"><defs><style>.a{fill:url(#a);}.b{fill:#fff;}.c{fill:#8e68a4;}</style><linearGradient id="a" x1="353.5" y1="535.61" x2="353.5" y2="194.65" gradientTransform="translate(0 -81.28)" gradientUnits="userSpaceOnUse"><stop offset="0" stop-color="#fff"/><stop offset="1" stop-color="#8e68a4"/></linearGradient></defs><path class="a" d="M471.3,209.9a108.91,108.91,0,0,1-31.9,76.8l-183,183h0a70.86,70.86,0,0,1,0-100.1L374.3,251.7a108.49,108.49,0,0,0,31.9-76.8,74.33,74.33,0,0,0-1.5-16.6,105.11,105.11,0,0,0-13.3-37.9,8.31,8.31,0,0,1,10.1-12,108.68,108.68,0,0,1,37.8,24.7,107,107,0,0,1,30.4,60.2A68.81,68.81,0,0,1,471.3,209.9Z" transform="translate(-19.1 -38.5)"/><path class="b" d="M135.5,356.8a8.46,8.46,0,0,1-5.7-2.3L67.7,292.4A115.93,115.93,0,0,1,33.4,210a81.3,81.3,0,0,1,1.7-18.1,114.52,114.52,0,0,1,32.6-64.4,116.13,116.13,0,0,1,164.8,0L262,157a8,8,0,1,1-11.3,11.3l-29.5-29.5a100.19,100.19,0,0,0-142.2,0,97.68,97.68,0,0,0-28.1,55.7c0,.2-.1.5-.1.7a64.61,64.61,0,0,0-1.3,14.7A99.87,99.87,0,0,0,79.1,281l62.1,62.1a8,8,0,0,1,0,11.3A8.12,8.12,0,0,1,135.5,356.8ZM262,475.3l183-183a115.93,115.93,0,0,0,34.3-82.4,81.3,81.3,0,0,0-1.7-18.1A114.52,114.52,0,0,0,445,127.4a116.13,116.13,0,0,0-164.8,0l-10,10a8,8,0,0,0,11.3,11.3l10-10a100.19,100.19,0,0,1,142.2,0,97.68,97.68,0,0,1,28.1,55.7c0,.2.1.5.1.7a64.14,64.14,0,0,1,1.3,14.7,99.87,99.87,0,0,1-29.6,71.1L256.4,458.4l-74.6-74.6a8,8,0,0,0-11.3,11.3l80.2,80.2a7.85,7.85,0,0,0,5.7,2.3A7.4,7.4,0,0,0,262,475.3Z" transform="translate(-19.1 -38.5)"/><path class="b" d="M345.6,46.5a8,8,0,0,1-8,8,99.87,99.87,0,0,0-71.1,29.6l-10,10a7.85,7.85,0,0,1-5.7,2.3,8.27,8.27,0,0,1-5.7-2.3,8,8,0,0,1,0-11.3l10-10a115.93,115.93,0,0,1,82.4-34.3A8,8,0,0,1,345.6,46.5Zm-152.9,333H27.1a8,8,0,0,0,0,16H192.7a8,8,0,1,0,0-16Zm20.4-37.3H97.3a8,8,0,0,0,0,16H213a8,8,0,0,0,8-8A7.94,7.94,0,0,0,213.1,342.2ZM487.8,50.4H401a8,8,0,1,0,0,16h86.8a8,8,0,0,0,0-16ZM126.6,429.8H69.2a8,8,0,1,0,0,16h57.4a8,8,0,0,0,0-16Z" transform="translate(-19.1 -38.5)"/><path class="c" d="M325,491.3l56.9-56.9v56.9Z" transform="translate(-19.1 -38.5)"/></svg>