<?xml version="1.0" encoding="utf-8"?>
<!-- Generator: Adobe Illustrator 24.3.0, SVG Export Plug-In . SVG Version: 6.00 Build 0)  -->
<svg version="1.1" id="Capa_2_1_" xmlns="http://www.w3.org/2000/svg" xmlns:xlink="http://www.w3.org/1999/xlink" x="0px" y="0px"
	 viewBox="0 0 151.8 112.7" style="enable-background:new 0 0 151.8 112.7;" xml:space="preserve">
<style type="text/css">
	.st0{fill:url(#SVGID_1_);}
	.st1{fill:#8E68A4;}
</style>
<linearGradient id="SVGID_1_" gradientUnits="userSpaceOnUse" x1="75.0806" y1="-318.9655" x2="75.0806" y2="-235.2454" gradientTransform="matrix(1 0 0 -1 0 -215.1795)">
	<stop  offset="0" style="stop-color:#FFFFFF"/>
	<stop  offset="1" style="stop-color:#8E68A4"/>
</linearGradient>
<path class="st0" d="M73,14c0.8-1.3,2.5-1.8,3.8-1c0.4,0.2,0.8,0.6,1,1l53.7,91.5c0.8,1.3,0.3,3.1-1,3.8c-0.4,0.2-0.9,0.4-1.4,0.4
	h-109c-4.1,0-0.2-4.5,1.8-8l0,0c1-1.6,2.7-2.6,4.6-2.6h80.2c1.6,0,2.8-1.3,2.8-2.8c0-0.5-0.1-1-0.4-1.4L78.5,42.7l0.2-5l-3.2-0.2
	L73,33.3C69.5,27.4,69.5,20,73,14L73,14z"/>
<path d="M129.1,112.7H16.9c-1.7-0.1-2.9-1.6-2.8-3.2c0.1-1.5,1.3-2.7,2.8-2.8h111.9l-53.3-91l-50.5,86c-0.8,1.4-2.7,1.9-4.1,1.1
	c-1.4-0.8-1.9-2.7-1.1-4.1l50.6-86.3c1.7-2.8,5.2-3.7,8-2c0.8,0.5,1.5,1.2,2,2l53.6,91.5c1.6,2.8,0.7,6.4-2.1,8
	C131.1,112.4,130.1,112.7,129.1,112.7L129.1,112.7z M83.5,82.7c0-1.6-1.3-2.9-2.9-2.9c0,0-0.1,0-0.1,0h-7.2V39.9h4.2v35.5
	c-0.1,1.7,1.1,3.1,2.8,3.2c1.7,0.1,3.1-1.1,3.2-2.8c0-0.1,0-0.3,0-0.4V36.9c0-1.7-1.3-3-3-3H70.3c-1.6,0-2.9,1.4-2.9,3v45.8
	c0,1.6,1.3,2.9,2.9,2.9h10.2C82.1,85.6,83.5,84.4,83.5,82.7C83.5,82.7,83.5,82.7,83.5,82.7z M83.5,100.3v-9.6c0-1.7-1.3-3-3-3H70.3
	c-1.6,0-2.9,1.4-2.9,3v9.5c0,1.6,1.3,3,2.9,3h10.2C82.2,103.2,83.5,101.8,83.5,100.3L83.5,100.3z M73.3,93.7h4.2v3.6h-4.2L73.3,93.7
	L73.3,93.7z"/>
<path class="st1" d="M0,39.7h7v18.2H0V39.7z M0,87.7h7V69.6H0V87.7z M151.8,7V0h-18.1v7H151.8z"/>
</svg>
