<svg id="Capa_2" data-name="Capa 2" xmlns="http://www.w3.org/2000/svg" xmlns:xlink="http://www.w3.org/1999/xlink" viewBox="0 0 392.92 413.81"><defs><style>.cls-1{fill:#fff;}.cls-2,.cls-3{fill:none;stroke-linecap:round;stroke-linejoin:round;}.cls-2{stroke:#171717;stroke-width:7.54px;}.cls-3{stroke-width:12.56px;stroke:url(#Degradado_sin_nombre_22);}.cls-4{fill:url(#Degradado_sin_nombre_10);}.cls-5{fill:url(#Degradado_sin_nombre_6);}</style><linearGradient id="Degradado_sin_nombre_22" x1="114.42" y1="282" x2="140.43" y2="282" gradientUnits="userSpaceOnUse"><stop offset="0" stop-color="#fff"/><stop offset="1" stop-color="#8e68a4"/></linearGradient><linearGradient id="Degradado_sin_nombre_10" x1="808.55" y1="386.74" x2="902.05" y2="386.74" gradientTransform="translate(-292.24 -486.73) rotate(25.77)" gradientUnits="userSpaceOnUse"><stop offset="0" stop-color="#8e68a4"/><stop offset="1" stop-color="#fff"/></linearGradient><linearGradient id="Degradado_sin_nombre_6" x1="45.76" y1="178.84" x2="151.72" y2="162.82" xlink:href="#Degradado_sin_nombre_22"/></defs><rect class="cls-1" x="323.27" y="318.88" width="10.95" height="27.14" transform="translate(661.19 3.71) rotate(90)"/><rect class="cls-1" x="332.62" y="302.18" width="10.95" height="10.95"/><rect class="cls-1" x="309.7" y="276.54" width="10.95" height="10.95"/><path class="cls-2" d="M197,120.82s11.56,6.56,33.85-44.93c24.69,44.5-3.46,82.33-3.46,82.33"/><polyline class="cls-2" points="176.92 182.08 201.99 171.38 176.92 182.08 176.21 213.99"/><path class="cls-2" d="M90.14,293.27c-24.77-14.87-23.52-36.79-25.91-52.4a2.63,2.63,0,0,0-2.9-2.18c-4.55.5-12,4.59-12,4.59L58,207.82,84.4,233.07"/><line class="cls-2" x1="110.08" y1="335.78" x2="110.08" y2="332.45"/><line class="cls-2" x1="151.74" y1="335.78" x2="151.74" y2="332.45"/><path class="cls-3" d="M133.8,244.77a41.72,41.72,0,0,0-13.1,29.08l13.45,45.37"/><polyline class="cls-2" points="175.21 275.23 162.81 324.08 150.41 275.23"/><path class="cls-2" d="M109.53,264.73h0a19.4,19.4,0,0,0-19.39,19.4v51.65h8"/><line class="cls-2" x1="184.93" y1="335.78" x2="184.93" y2="332.45"/><line class="cls-2" x1="173.87" y1="335.78" x2="173.87" y2="332.45"/><path class="cls-2" d="M198.75,237.5A52,52,0,0,1,215,275.23"/><line class="cls-2" x1="235.47" y1="335.78" x2="219.03" y2="335.78"/><path class="cls-2" d="M216.08,264.73h0a19.42,19.42,0,0,1,17.86,11.81"/><path class="cls-4" d="M332.77,279.14a6.29,6.29,0,0,1-3.45-4.5c-5.2-27.66-21.18-37.11-35.75-43.78l-22.35-10.24a6.26,6.26,0,0,1-3.15-8.19,6.57,6.57,0,0,1,8.7-3.09l22,10.1c8.69,4,17.25,8.78,24.53,16a.83.83,0,0,0,1.32-1c-7.53-13.4-21.79-25.1-42.94-35.34a6.46,6.46,0,0,1-3.57-7.27,6.3,6.3,0,0,1,8.84-4.14c44.46,21.46,62.86,50.7,54.7,86.89a6.5,6.5,0,0,1-4.91,5.06A6.32,6.32,0,0,1,332.77,279.14Z"/><line class="cls-2" x1="263.91" y1="215.71" x2="204.2" y2="336.88"/><path class="cls-2" d="M332.37,296.81c25.86-53.56-2-86.79-45.93-108L257.23,174.7l-14.79,30.63,29.21,14.1C303.4,234.76,332.64,239.66,332.37,296.81Z"/><line class="cls-2" x1="278.76" y1="183.69" x2="284.28" y2="172.26"/><line class="cls-2" x1="61.87" y1="192.85" x2="78.3" y2="192.85"/><line class="cls-2" x1="78.3" y1="181.25" x2="94.73" y2="181.25"/><path class="cls-5" d="M162.92,252.21a6.86,6.86,0,0,1-3.69-1.07C149,244.66,98,210.77,98,180.1c0-3.37,1-19,1.35-25.39-6.68-9.61-24.69-39.9-10.91-70.3A6.92,6.92,0,0,1,100.8,84c1.71,3.14,3.43,6.41,5.16,9.7,4.15,7.87,8.43,16,12.47,22.09,5.46,8.22,8,8.85,8.06,8.87s.37,0,.68,0a6.57,6.57,0,0,0,3.12-.7l.17-.1a64.91,64.91,0,0,1,32.17-8.68c3.63,0,9-3.12,9.31.5.36,4.09-5,13.31-9,13.31a51,51,0,0,0-25.69,6.92L137,136a20.21,20.21,0,0,1-9.84,2.45c-.7,0-1.39,0-2.06-.1-9.65-.94-17.45-12.55-25.69-27.61a1.09,1.09,0,0,0-2,.59c1.28,18.8,12.73,34.75,14.47,37.07l.13.18a6.66,6.66,0,0,1,1.32,4.45c-.59,9.36-1.48,24.34-1.48,27,0,16.87,28.27,42.5,54.61,59.24a7.1,7.1,0,0,1,2.55,9.33A6.93,6.93,0,0,1,162.92,252.21Z"/><path class="cls-2" d="M128.58,120.82a68.1,68.1,0,0,1,102.31,58.86c0,37.6-68.08,77-68.08,77s-47.15-27.26-63-58.08"/><path class="cls-2" d="M94.77,181.25c0-.52,0-1.05,0-1.57a67.81,67.81,0,0,1,18.34-46.49"/><path class="cls-2" d="M128.58,120.82S117,127.38,94.73,75.89c-24.69,44.5,3.45,82.33,3.45,82.33"/><line class="cls-2" x1="140.68" y1="335.78" x2="140.68" y2="332.45"/><path class="cls-2" d="M126.86,237.5a52,52,0,0,0-16.23,37.73l18,60.55"/></svg>