<svg id="Capa_2" data-name="Capa 2" xmlns="http://www.w3.org/2000/svg" viewBox="0 0 227.37 245.99"><defs><style>.cls-1{fill:#8e68a4;}.cls-2{fill:#fff;}.cls-3{fill:#171717;}</style></defs><g id="layer1"><g id="g4207"><path id="path4165" class="cls-1" d="M74.22,130.72c-9-26.8-16.41-49.22-16.41-49.83s2.34-1.3,5.45-1.55c6.39-.53,9.38-2.67,7.29-5.19-1.16-1.39-3.25-1.5-17.31-.89-8.8.38-16,.37-16,0,0-1.69,6.29-9.45,12.91-15.93a90.2,90.2,0,0,1,63.51-25.77c10.86,0,19,1.37,30.23,5.1,9.13,3,23.37,11.05,28.83,16.23l2.71,2.59-4.31,1.25a16.59,16.59,0,0,0-11.3,11.53c-1.41,5.59.32,11.23,6.76,22.07,11.47,19.33,11.54,27,.58,63.09-4.07,13.41-7.62,24.61-7.89,24.88s-.72-.13-1-.88c-1.5-4.14-32.86-97.19-32.86-97.5s1.87-.41,4.16-.46c6.78-.16,9.07-1.14,9.07-3.86v-2.4l-26.67,0c-20.94,0-26.78.23-27.16,1.22-1,2.6.68,4.12,5.17,4.71l6,.78c.84.11,4.18,7.78,8.58,19.73l7.21,19.54-10,30.18c-5.53,16.6-10.27,30.17-10.55,30.17s-7.89-21.95-16.92-48.75Zm84.51,71c0-.14,6.68-19.43,14.85-42.87,18.35-52.64,19.58-57.06,19.64-70.47,0-8.93.22-10,1.4-8.38,2.3,3.15,7,16.29,8.6,24.2,1.78,8.64,2.05,26.07.53,34.64-3.38,19.06-13.62,38-27.53,50.86C168.75,196.66,158.73,203.54,158.73,201.76Zm-94-1.52a92.27,92.27,0,0,1-41.1-61.36c-1.62-9.12-1.23-25.42.84-35.45,1.77-8.58,5.48-18.82,6.46-17.84.42.42,43.59,118.34,43.59,119.07C74.47,205.85,71,204.26,64.68,200.24Zm36.77,13.39c-10.13-1.3-14.5-2.66-13.87-4.31.29-.76,6.33-18.26,13.41-38.88s13.24-38.16,13.69-39c.63-1.15,1-.83,1.93,1.47C121,144.35,144,208.1,144,208.76c0,2-22.41,6.16-31.81,5.86C110.05,214.56,105.2,214.11,101.45,213.63Zm29.35,8.44c51.07-8.91,88.58-58.11,82.89-108.72-2.86-25.38-12-44.13-30.42-62.22C164,32.19,140.56,22.57,113.66,22.57A100,100,0,0,0,61.55,37C51.49,43,36.21,57.81,29.9,67.63c-23.71,36.92-22.17,81.23,4,116.1a100.58,100.58,0,0,0,96.87,38.34Zm-36.09,5.87A106.78,106.78,0,0,1,36.62,49.42,105.22,105.22,0,0,1,93,18.38c10.54-2,30.7-2,41.25,0C173,25.72,205,55.11,216,93.44c14.53,50.74-9.74,103.83-57.77,126.34-13.33,6.25-24.86,8.81-41.59,9.25-9.85.25-16.56-.08-21.89-1.09Z"/></g></g><circle class="cls-2" cx="113.68" cy="81.91" r="13.34"/><path class="cls-3" d="M113.68,72.34a9.57,9.57,0,1,1-9.56,9.57,9.56,9.56,0,0,1,9.56-9.57m0-7.54a17.11,17.11,0,1,0,17.11,17.11A17.13,17.13,0,0,0,113.68,64.8Z"/><path class="cls-2" d="M101.7,177.42a7.7,7.7,0,0,1-2.12-.3,7.78,7.78,0,0,1-5.48-8.73l.93-5.82a266.11,266.11,0,0,0,3.25-45L71.07,116a7.76,7.76,0,0,1-7-5.47c-1-3.34.33-6.9,3.5-9.29a3.8,3.8,0,0,1,2.27-.76h.21l32.53,1.8c.27,0,.55.05.84.1l10.22.45,10.23-.45c.29,0,.57-.08.84-.1l32.53-1.8h.21a3.8,3.8,0,0,1,2.27.76c3.17,2.39,4.51,6,3.5,9.29a7.76,7.76,0,0,1-7,5.47l-27.21,1.51a266.11,266.11,0,0,0,3.25,45l.94,5.92a7.74,7.74,0,0,1-6.3,8.81,7,7,0,0,1-1.29.11,7.84,7.84,0,0,1-7.66-6.6l-4.35-27.34-4.35,27.44A7.79,7.79,0,0,1,101.7,177.42Z"/><path class="cls-3" d="M157.49,104.28c4.24,3.2,2,7.8-1.4,8l-30.7,1.7h0a269.09,269.09,0,0,0,3.23,49.19l.94,5.92a4,4,0,0,1-3.23,4.51,3.45,3.45,0,0,1-.64,0,4.06,4.06,0,0,1-3.94-3.43L116.94,140a1,1,0,0,0-.26-.35,4.17,4.17,0,0,0-6,0,.89.89,0,0,0-.26.35l-4.83,30.37a4,4,0,0,1-3.9,3.33,3.72,3.72,0,0,1-1.08-.16,4,4,0,0,1-2.8-4.51l.93-5.82A269.09,269.09,0,0,0,102,114h0l-30.7-1.7c-3.44-.19-5.64-4.79-1.4-8l32.53,1.81a3.19,3.19,0,0,1,.63.09h0l10.64.47,10.64-.47h0a3.42,3.42,0,0,1,.63-.09l32.54-1.81m0-7.54-.42,0-32.53,1.8c-.34,0-.67,0-1,.1l-9.85.43-9.84-.43c-.34,0-.67-.08-1-.1L70.3,96.76l-.42,0a7.6,7.6,0,0,0-4.54,1.52c-4.47,3.37-6.32,8.5-4.84,13.4a11.52,11.52,0,0,0,10.36,8.13l23.67,1.31A261.23,261.23,0,0,1,91.3,162l-.92,5.82a11.49,11.49,0,1,0,22.67,3.7l.63-4,.62,3.9a11.66,11.66,0,0,0,11.39,9.78,11.34,11.34,0,0,0,1.93-.16A11.54,11.54,0,0,0,137,167.9l-.94-5.92a260,260,0,0,1-3.23-40.88l23.67-1.31a11.52,11.52,0,0,0,10.35-8.13c1.49-4.9-.36-10-4.84-13.4a7.58,7.58,0,0,0-4.53-1.52Z"/></svg>