<svg id="Capa_1" data-name="Capa 1" xmlns="http://www.w3.org/2000/svg" xmlns:xlink="http://www.w3.org/1999/xlink" viewBox="0 0 450.5 460.9"><defs><style>.cls-1{fill:url(#Degradado_sin_nombre);}</style><linearGradient id="Degradado_sin_nombre" x1="353.75" y1="784.26" x2="353.75" y2="415.15" gradientTransform="translate(0 -327.89)" gradientUnits="userSpaceOnUse"><stop offset="0" stop-color="#fff"/><stop offset="1" stop-color="#8e68a4"/></linearGradient></defs><path class="cls-1" d="M457.6,198.7c0,90-69.3,149.5-165.3,231.8l-21,18c-4.9,4.2-12.1,7.3-16.9,3.1v-3.1a13,13,0,0,1-4.5-9.8V132.1a13.37,13.37,0,0,1,3.8-9.2h0c18.2-18.2,47.5-42.3,92.5-42.3C410.7,80.7,457.6,130.3,457.6,198.7Z" transform="translate(-19.2 -27.1)"/><path d="M53.9,61.8H19.2V27.1H53.9Zm55.3-34.7H74.5V61.8h34.7Zm149.2,448V488H21.3V475.1Z" transform="translate(-19.2 -27.1)"/><path d="M71.7,274.6a8,8,0,0,0-8-8H44.1a8,8,0,0,0,0,16H63.8A8,8,0,0,0,71.7,274.6Z" transform="translate(-19.2 -27.1)"/><path d="M259.5,470.9a7.78,7.78,0,0,1-5.2-1.9l-30.5-26.3C122.6,355.9,49.4,293.2,49.4,196.1c0-36.4,12.4-69.5,34.9-93.4s54.1-37.1,88.8-37.1c20.1,0,38.3,4,55.6,12.4a8,8,0,0,1-7,14.4c-15.1-7.3-31-10.8-48.7-10.8-62.4,0-107.7,48.2-107.7,114.5,0,89.8,70.8,150.5,168.8,234.5l25.3,21.8,25.3-21.8c98-84.1,168.8-144.8,168.8-234.5,0-66.4-45.3-114.5-107.6-114.5-43.7,0-72.5,23.7-90.3,41.6l-9.9,9.9a8,8,0,0,1-11.3-11.3l9.9-9.9C264.1,92,296.3,65.6,346,65.6c34.6,0,66.2,13.2,88.8,37.1s34.9,57,34.9,93.4c0,97.1-73.1,159.8-174.3,246.7L264.8,469A8,8,0,0,1,259.5,470.9Z" transform="translate(-19.2 -27.1)"/></svg>