<svg id="Capa_2" data-name="Capa 2" xmlns="http://www.w3.org/2000/svg" xmlns:xlink="http://www.w3.org/1999/xlink" viewBox="0 0 162.57 175.88"><defs><style>.cls-1{fill:url(#Degradado_sin_nombre_3);}.cls-2{fill:#171717;}.cls-3{fill:none;stroke:#171717;stroke-linecap:round;stroke-linejoin:round;stroke-width:3px;}</style><linearGradient id="Degradado_sin_nombre_3" x1="17.69" y1="87.43" x2="144.88" y2="87.43" gradientUnits="userSpaceOnUse"><stop offset="0" stop-color="#fff"/><stop offset="1" stop-color="#8e68a4"/></linearGradient></defs><path class="cls-1" d="M17.69,65.5v40.38a3.43,3.43,0,0,0,3,3.46A3.34,3.34,0,0,0,24.37,106V82a9.85,9.85,0,0,1,9.85-9.85H55.27A3.85,3.85,0,0,1,59.12,76V83.7a3.45,3.45,0,0,0,3,3.47c.78-2.66.33-1.37.33-3.33V72.18h72.95a5.94,5.94,0,0,1,5.94,5.93V83.7a3.44,3.44,0,0,0,3,3.47c.71-1.88.48-1.37.48-3.33l-.19-18.34Z"/><path class="cls-2" d="M89.1,92.17l-3,9.6H83.85l-2-6.5-2.07,6.5H77.51l-3-9.6H76.7l2.06,6.75,2.16-6.75h2L85,99l2.12-6.8Z"/><path class="cls-2" d="M92,101.3a4.7,4.7,0,0,1-1.77-1.77,5.37,5.37,0,0,1,0-5.12A4.56,4.56,0,0,1,92,92.64,5,5,0,0,1,94.55,92a5.16,5.16,0,0,1,2.15.44,4.31,4.31,0,0,1,1.61,1.26L97,95a2.84,2.84,0,0,0-2.29-1.12,2.9,2.9,0,0,0-1.51.39,2.67,2.67,0,0,0-1,1.09A3.28,3.28,0,0,0,91.74,97a3.33,3.33,0,0,0,.37,1.59,2.67,2.67,0,0,0,1,1.09,2.9,2.9,0,0,0,1.51.39A2.83,2.83,0,0,0,97,98.9l1.36,1.32a4.22,4.22,0,0,1-1.62,1.28,5.16,5.16,0,0,1-2.15.44A5,5,0,0,1,92,101.3Z"/><path class="cls-2" d="M105.56,99.71h-4.24l-.81,2.06H98.35l4.07-9.6h2.08l4.08,9.6h-2.21ZM104.89,98l-1.44-3.68L102,98Z"/><path class="cls-2" d="M115.57,96.82h1.93v3.9a5.42,5.42,0,0,1-1.72.9,6.4,6.4,0,0,1-2,.32,5,5,0,0,1-2.55-.64,4.66,4.66,0,0,1-1.78-1.77,5.37,5.37,0,0,1,0-5.12,4.48,4.48,0,0,1,1.79-1.77,5.14,5.14,0,0,1,2.58-.64,5.3,5.3,0,0,1,2.18.43,4.26,4.26,0,0,1,1.64,1.23L116.32,95a3.21,3.21,0,0,0-3.92-.7,2.73,2.73,0,0,0-1.05,1.08A3.39,3.39,0,0,0,111,97a3.34,3.34,0,0,0,.38,1.59,2.69,2.69,0,0,0,1.05,1.09,3,3,0,0,0,1.53.39,3.22,3.22,0,0,0,1.64-.41Z"/><path class="cls-2" d="M129.39,100v1.81H122.5v-1.44l3.52-3.5a3.84,3.84,0,0,0,.75-1,1.82,1.82,0,0,0,.2-.8,1.1,1.1,0,0,0-.37-.88,1.67,1.67,0,0,0-1.09-.31,2.45,2.45,0,0,0-1.09.24,2,2,0,0,0-.8.72l-1.54-1a3.69,3.69,0,0,1,1.47-1.32A4.79,4.79,0,0,1,125.7,92a4.28,4.28,0,0,1,1.78.35,2.71,2.71,0,0,1,1.19,1,2.66,2.66,0,0,1,.42,1.5,3.49,3.49,0,0,1-.31,1.47,5.65,5.65,0,0,1-1.21,1.57l-2.1,2.08Z"/><path class="cls-2" d="M130.7,101.5a1.33,1.33,0,0,1-.37-1,1.28,1.28,0,0,1,.37-1,1.22,1.22,0,0,1,.9-.36,1.25,1.25,0,0,1,.9.36,1.31,1.31,0,0,1,.36,1,1.36,1.36,0,0,1-.36,1,1.23,1.23,0,0,1-.9.38A1.2,1.2,0,0,1,130.7,101.5Z"/><path class="cls-2" d="M137.12,92.17v9.6H135V94h-1.82V92.17Z"/><path class="cls-2" d="M90,80.48,91.24,74h3.05L91.9,84.74h-3l-1.63-6.32-1.57,6.32h-3L80.32,74h3l1.23,6.4L86.06,74h2.37Z"/><path class="cls-2" d="M100.94,82.5H96.76l-.82,2.24H93.1L97.67,74h2.44l4.48,10.7h-2.83Zm-3.52-1.75h2.89l-1.43-3.94Z"/><path class="cls-2" d="M104.59,74h7.31v1.67h-2.47v7.37h2.47v1.66h-7.31V83.08H107V75.71h-2.4Z"/><path class="cls-2" d="M116.85,81.32H112.5V79.67h4.35Z"/><path class="cls-2" d="M124.74,82.5h-3.66l-.71,2.24h-2.48l4-10.7H124l3.92,10.7h-2.48Zm-3.08-1.75h2.53l-1.25-3.94Z"/><path class="cls-2" d="M135,82.5h-3.65l-.72,2.24h-2.48l4-10.7h2.14l3.91,10.7h-2.47ZM132,80.75h2.52l-1.24-3.94Z"/><path class="cls-2" d="M30.51,78.24,34,90.17l3.51-11.93H47v1.19L43.46,85.6a5,5,0,0,1,2.86,2.2,7.17,7.17,0,0,1,1,3.75A7.08,7.08,0,0,1,45.87,96a4.45,4.45,0,0,1-3.67,1.82,4.39,4.39,0,0,1-3-1.08,6.3,6.3,0,0,1-1.86-2.92l2-.82a4.53,4.53,0,0,0,1.15,1.76,2.48,2.48,0,0,0,1.68.64,2,2,0,0,0,1.72-1.14,5.1,5.1,0,0,0,.7-2.74,4.37,4.37,0,0,0-.75-2.73,3.21,3.21,0,0,0-2.73-1.14h-1V86.52l3.39-5.86H39.47l-.23.4-5,16.78H34L30.39,85.69,26.76,97.84h-.24l-5.81-19.6h2.54l3.51,11.93,2.37-8L28,78.24Z"/><path class="cls-2" d="M57.14,78.13l.41,2.5-1.46,2.79a5.42,5.42,0,0,0-1.49-1.84,2.31,2.31,0,0,0-2.09-.5A4.38,4.38,0,0,0,49.82,84a10.05,10.05,0,0,0-.64,3.49,8.11,8.11,0,0,0,.17,2,9.19,9.19,0,0,1-.87-4,10.05,10.05,0,0,1,1.06-4.79,3.8,3.8,0,0,1,2.65-2.25,3.05,3.05,0,0,1,2.29.85A7.7,7.7,0,0,1,55.7,81l1.43-2.86Z"/><path class="cls-2" d="M57.32,92.29a13.21,13.21,0,0,1-1,1.6,6.4,6.4,0,0,1-2,1.61,3.67,3.67,0,0,1-2.22.38,4.38,4.38,0,0,1-2-.8,7.7,7.7,0,0,1-1.42-1.41c-.42-.58-1.06-1.75-1.06-1.75s.36,1.17.58,1.66a10.63,10.63,0,0,0,1.09,1.91,5.19,5.19,0,0,0,3.1,2.2,4,4,0,0,0,2.89-.59,8.54,8.54,0,0,0,1.17-1,10,10,0,0,0,.91-1.2c.14-.22.37-.66.37-.66l-.37-1.94Z"/><rect class="cls-3" x="17.92" y="65.6" width="126.76" height="44.78"/><line class="cls-3" x1="62.46" y1="65.6" x2="62.46" y2="110.38"/></svg>